G04 DipTrace 3.3.1.3*
G04 Bottom.gbr*
%MOIN*%
G04 #@! TF.FileFunction,Copper,L2,Bot*
G04 #@! TF.Part,Single*
G04 #@! TA.AperFunction,Conductor*
%ADD14C,0.012*%
%ADD16C,0.02*%
G04 #@! TA.AperFunction,ViaPad*
%ADD17C,0.03*%
G04 #@! TA.AperFunction,Conductor*
%ADD18C,0.025*%
G04 #@! TA.AperFunction,ViaPad*
%ADD19C,0.04*%
G04 #@! TA.AperFunction,CopperBalancing*
%ADD21C,0.013*%
G04 #@! TA.AperFunction,ComponentPad*
%ADD32R,0.059055X0.059055*%
%ADD33C,0.059055*%
%ADD34R,0.066929X0.066929*%
%ADD35C,0.066929*%
%ADD36O,0.11811X0.07874*%
%ADD37O,0.07874X0.11811*%
%ADD43C,0.2*%
%ADD44R,0.059X0.059*%
%ADD45C,0.059*%
%ADD49C,0.06*%
%FSLAX26Y26*%
G04*
G70*
G90*
G75*
G01*
G04 Bottom*
%LPD*%
X1081200Y2068700D2*
D14*
X818700D1*
X718700Y2243700D2*
D16*
Y2287451D1*
X793700Y2362451D1*
X1318701D1*
X1662451Y2706200D1*
X2606200D1*
X2718700Y2593700D1*
X2769700Y494700D2*
D17*
X2757254Y507146D1*
Y1131991D1*
X2640254Y1248991D1*
X2243700Y493700D2*
X2293700D1*
X1268700Y2668700D2*
D18*
Y2506200D1*
X1206200Y2443700D1*
X556200D1*
X2718700Y2093700D2*
D14*
X2712451D1*
X2593700Y2212451D1*
X2362449D1*
X2193700Y2381200D1*
X1631200D1*
X1399949Y2149949D1*
Y1106200D2*
X949949D1*
X887449Y1043700D1*
X718700D1*
X2818700Y2093700D2*
Y2143700D1*
X2718700Y2243700D1*
X2399951D1*
X2237451Y2406200D1*
X1499949D1*
X1349949Y2256200D1*
Y1268700D2*
X862449D1*
X787449Y1343700D1*
X731201D1*
X724951Y1337449D1*
X718700Y1343700D1*
X1168700Y1693700D2*
X1543700D1*
X2218700Y2093700D2*
X2168700Y2143700D1*
X1718700D1*
X1224949Y1356200D2*
X1537449D1*
X1549949Y1343700D1*
X1618700D1*
X2249949Y1143700D2*
X1718700D1*
X1093700Y1443700D2*
X1618700D1*
X2268700Y1437451D2*
Y1418699D1*
X2237451Y1387449D1*
X1899951D1*
X1843700Y1443700D1*
X1831200D1*
X1718700D1*
X2318700Y2093700D2*
X2262451Y2037451D1*
X1831200D1*
X2418700Y2093700D2*
X2343700Y2168700D1*
X2349949D1*
X2274949Y2243700D1*
X1868700D1*
X1004857Y1554857D2*
X1016015Y1543700D1*
X1618700D1*
X1718700D2*
X1924949D1*
Y1987451D2*
X2412451D1*
X2518700Y2093700D1*
X2418700Y2593700D2*
D19*
X2612451Y2399949D1*
X2774949D1*
X2993700Y2181200D1*
X3043700D1*
Y2081200D2*
X2981200D1*
X2718700Y2343700D1*
X2568700D1*
X2318700Y2593700D1*
X2668700Y1437451D2*
D14*
Y1381200D1*
X2643700Y1356200D1*
X1799949D1*
X1762449Y1393700D1*
X899951D1*
Y1143700D2*
X718700D1*
X2768700Y1437451D2*
Y1362449D1*
X2731200Y1324949D1*
X1793700D1*
X1768700Y1299949D1*
X1431201D1*
X1418700Y1312451D1*
X912449D1*
X781200Y1443700D1*
X718700D1*
X3043700Y1843700D2*
D19*
X2662451D1*
X2568700Y1937451D1*
X2518700Y2593700D2*
Y2587449D1*
X2649949Y2456200D1*
X2868700D1*
X3043700Y2281200D1*
Y2381200D2*
X3031200D1*
X2893700Y2518700D1*
X2693700D1*
X2618700Y2593700D1*
X1306200Y1231200D2*
D14*
X818700D1*
X806200Y1243700D1*
X718700D1*
X2268700Y1937451D2*
D19*
X2349949Y1856200D1*
Y1706200D1*
X2512449Y1543700D1*
X3037451D1*
X3043700Y1537451D1*
Y1543700D1*
Y1643700D2*
X2649949D1*
X2368700Y1924949D1*
Y1937451D1*
X3043700Y1743700D2*
X2662451D1*
X2468700Y1937451D1*
X2118700Y2293700D2*
D14*
X1849951D1*
X1749951Y2193700D1*
X1543700D1*
X1112451Y1762451D1*
X974949D1*
X2068700Y1637451D2*
X1874951D1*
X1831200Y1593700D1*
X1093700D1*
X1024949Y1662451D1*
X974949D1*
X1268700Y1043700D2*
X1518700D1*
X1618700D1*
X2068700Y1193700D2*
X781200D1*
D19*
X1081200Y2068700D3*
X818700D3*
X556200Y2443700D3*
X1399949Y2149949D3*
Y1106200D3*
X1349949Y2256200D3*
Y1268700D3*
X1168700Y1693700D3*
X1543700D3*
X1224949Y1356200D3*
X2249949Y1143700D3*
X1093700Y1443700D3*
X1831200Y2037451D3*
Y1443700D3*
X1868700Y2243700D3*
X1004857Y1554857D3*
X1924949Y1543700D3*
Y1987451D3*
X899951Y1393700D3*
Y1143700D3*
X1306200Y1231200D3*
X1268700Y1043700D3*
X2068700Y1193700D3*
X781200D3*
X881200Y2293700D3*
X1156200D3*
X868700Y618700D3*
X1443700D3*
X868700Y843700D3*
X1443700D3*
X1043700Y868700D3*
D17*
X2562254Y949991D3*
X2536254D3*
X2510254D3*
X2562254Y988991D3*
X2536254D3*
X2510254D3*
X2562254Y1027991D3*
X2536254D3*
X2510254D3*
X2314700Y598700D3*
Y637700D3*
D19*
X2640254Y1248991D3*
X2769700Y494700D3*
X2293700Y493700D3*
X2243700D3*
X2568700Y2293700D3*
X2412451Y1737451D3*
X2449949Y2293700D3*
X2512451D3*
X2462451Y1737451D3*
X2531200Y1643700D3*
X451513Y2699331D2*
D21*
X753448D1*
X833946D2*
X1113919D1*
X1313854D2*
X1611829D1*
X2656815D2*
X3110891D1*
X451513Y2686462D2*
X746135D1*
X841259D2*
X1113919D1*
X1320456D2*
X1598956D1*
X2669688D2*
X3110891D1*
X451513Y2673594D2*
X743088D1*
X844306D2*
X1113919D1*
X1323249D2*
X1586083D1*
X1673589D2*
X2595055D1*
X2682562D2*
X3110891D1*
X451513Y2660725D2*
X743495D1*
X843899D2*
X1113919D1*
X1322894D2*
X1573210D1*
X1660741D2*
X2607928D1*
X2695435D2*
X3110891D1*
X451513Y2647856D2*
X747456D1*
X839938D2*
X1113919D1*
X1319263D2*
X1560362D1*
X1647868D2*
X2620801D1*
X2708308D2*
X3110891D1*
X451513Y2634987D2*
X756088D1*
X831306D2*
X1113919D1*
X1311519D2*
X1547489D1*
X1634995D2*
X2090061D1*
X2147353D2*
X2290063D1*
X2347354D2*
X2390051D1*
X2447343D2*
X2490065D1*
X2547331D2*
X2590053D1*
X2747333D2*
X2790055D1*
X2847347D2*
X3110891D1*
X451513Y2622119D2*
X775512D1*
X811882D2*
X1113919D1*
X1223489D2*
X1234879D1*
X1302530D2*
X1534616D1*
X1622122D2*
X2076858D1*
X2160556D2*
X2276835D1*
X2360558D2*
X2376848D1*
X2460546D2*
X2476837D1*
X2560560D2*
X2576850D1*
X2760562D2*
X2776852D1*
X2860550D2*
X3110891D1*
X451513Y2609250D2*
X742860D1*
X844560D2*
X863922D1*
X923474D2*
X963936D1*
X1023462D2*
X1234879D1*
X1302530D2*
X1521743D1*
X1609249D2*
X2070383D1*
X2167005D2*
X2270385D1*
X2867024D2*
X3110891D1*
X451513Y2596381D2*
X742860D1*
X844560D2*
X851298D1*
X936093D2*
X951317D1*
X1036106D2*
X1234879D1*
X1302530D2*
X1508870D1*
X1596376D2*
X2067946D1*
X2169442D2*
X2267948D1*
X2869437D2*
X3110891D1*
X451513Y2583512D2*
X742860D1*
X1042276D2*
X1234879D1*
X1302530D2*
X1495997D1*
X1583528D2*
X2068936D1*
X2168452D2*
X2268938D1*
X2868472D2*
X3110891D1*
X451513Y2570644D2*
X742860D1*
X1044511D2*
X1234879D1*
X1302530D2*
X1483149D1*
X1570655D2*
X2073583D1*
X2163831D2*
X2273585D1*
X2763837D2*
X2773577D1*
X2863825D2*
X3110891D1*
X451513Y2557775D2*
X742860D1*
X1043317D2*
X1234879D1*
X1302530D2*
X1470276D1*
X1557782D2*
X2083307D1*
X2154081D2*
X2283309D1*
X2903638D2*
X3110891D1*
X451513Y2544906D2*
X742860D1*
X938454D2*
X948930D1*
X1038468D2*
X1234879D1*
X1302530D2*
X1457403D1*
X1544909D2*
X2108952D1*
X2128437D2*
X2308954D1*
X2925397D2*
X3110891D1*
X451513Y2532037D2*
X742860D1*
X844560D2*
X859073D1*
X928323D2*
X959061D1*
X1028337D2*
X1234879D1*
X1302530D2*
X1444530D1*
X1532036D2*
X2322462D1*
X2938271D2*
X3110891D1*
X451513Y2519169D2*
X742860D1*
X844560D2*
X1234372D1*
X1302530D2*
X1431657D1*
X1519163D2*
X2335335D1*
X2951118D2*
X3110891D1*
X451513Y2506300D2*
X1221499D1*
X1302530D2*
X1418784D1*
X1506315D2*
X2348208D1*
X2963991D2*
X3110891D1*
X451513Y2493431D2*
X1208651D1*
X1299915D2*
X1405936D1*
X1493442D2*
X2361081D1*
X2976864D2*
X3110891D1*
X451513Y2480562D2*
X539329D1*
X573083D2*
X1195778D1*
X1290343D2*
X1393063D1*
X1480569D2*
X2373928D1*
X2989737D2*
X3110891D1*
X451513Y2467693D2*
X522876D1*
X1277495D2*
X1380190D1*
X1467696D2*
X2386801D1*
X3002610D2*
X3110891D1*
X451513Y2454825D2*
X516452D1*
X1264622D2*
X1367317D1*
X1454823D2*
X2399674D1*
X3015483D2*
X3110891D1*
X451513Y2441956D2*
X514928D1*
X1251749D2*
X1354444D1*
X1441950D2*
X2412547D1*
X3028331D2*
X3110891D1*
X451513Y2429087D2*
X517645D1*
X1238876D2*
X1341571D1*
X1429103D2*
X1486272D1*
X2251124D2*
X2425421D1*
X3057708D2*
X3110891D1*
X451513Y2416218D2*
X525796D1*
X1224886D2*
X1328723D1*
X1416229D2*
X1471876D1*
X2265521D2*
X2438294D1*
X3080052D2*
X3110891D1*
X451513Y2403350D2*
X1315850D1*
X1403356D2*
X1459003D1*
X2278394D2*
X2451141D1*
X2829446D2*
X2863663D1*
X3089319D2*
X3110891D1*
X451513Y2390481D2*
X781657D1*
X1390483D2*
X1446129D1*
X2291267D2*
X2464014D1*
X2842319D2*
X2876510D1*
X3093661D2*
X3110891D1*
X451513Y2377612D2*
X765102D1*
X1377610D2*
X1433256D1*
X1509464D2*
X1589510D1*
X2304140D2*
X2476887D1*
X2855192D2*
X2889383D1*
X3094423D2*
X3110891D1*
X451513Y2364743D2*
X752229D1*
X1364737D2*
X1420383D1*
X1496591D2*
X1576637D1*
X2317013D2*
X2489760D1*
X2868065D2*
X2902256D1*
X3091731D2*
X3110891D1*
X451513Y2351875D2*
X739381D1*
X1351890D2*
X1407536D1*
X1483718D2*
X1563764D1*
X1639972D2*
X2184921D1*
X2329886D2*
X2502633D1*
X2880913D2*
X2915129D1*
X3084927D2*
X3110891D1*
X451513Y2339006D2*
X726508D1*
X1338763D2*
X1394663D1*
X1470845D2*
X1550917D1*
X1627099D2*
X2097399D1*
X2139989D2*
X2197794D1*
X2342733D2*
X2515506D1*
X2893786D2*
X2928003D1*
X3070962D2*
X3110891D1*
X451513Y2326137D2*
X713635D1*
X801142D2*
X1381790D1*
X1457972D2*
X1538044D1*
X1614226D2*
X2079981D1*
X2157407D2*
X2210667D1*
X2355606D2*
X2528354D1*
X2906659D2*
X2940876D1*
X3065884D2*
X3110891D1*
X451513Y2313268D2*
X700762D1*
X788269D2*
X1368917D1*
X1445124D2*
X1525171D1*
X1601378D2*
X1831508D1*
X2165481D2*
X2223540D1*
X2368479D2*
X2541405D1*
X2919532D2*
X2953723D1*
X3082769D2*
X3110891D1*
X451513Y2300399D2*
X690327D1*
X775396D2*
X1356044D1*
X1432251D2*
X1512297D1*
X1588505D2*
X1818559D1*
X2169062D2*
X2236413D1*
X2381353D2*
X2704108D1*
X2932405D2*
X2966596D1*
X3090665D2*
X3110891D1*
X451513Y2287531D2*
X687381D1*
X762522D2*
X1323747D1*
X1419378D2*
X1499424D1*
X1575632D2*
X1805686D1*
X2169138D2*
X2249260D1*
X2394226D2*
X2716981D1*
X2945278D2*
X2979469D1*
X3094144D2*
X3110891D1*
X451513Y2274662D2*
X678114D1*
X759298D2*
X1313133D1*
X1406505D2*
X1486551D1*
X1562759D2*
X1792813D1*
X2165710D2*
X2262133D1*
X2407099D2*
X2729829D1*
X2958126D2*
X2992342D1*
X3094118D2*
X3110891D1*
X451513Y2261793D2*
X670776D1*
X766636D2*
X1309020D1*
X1393632D2*
X1473704D1*
X1549886D2*
X1779940D1*
X2970999D2*
X2996811D1*
X3090589D2*
X3110891D1*
X451513Y2248924D2*
X667653D1*
X769759D2*
X1309299D1*
X1390610D2*
X1460831D1*
X1537013D2*
X1767067D1*
X2983872D2*
X3004809D1*
X3082591D2*
X3110891D1*
X451513Y2236056D2*
X667958D1*
X769429D2*
X1314073D1*
X1385837D2*
X1447958D1*
X1524165D2*
X1754219D1*
X2996745D2*
X3021973D1*
X3065427D2*
X3110891D1*
X451513Y2223187D2*
X671792D1*
X765620D2*
X1326032D1*
X1373878D2*
X1435085D1*
X1511292D2*
X1741346D1*
X3071317D2*
X3110891D1*
X451513Y2210318D2*
X680145D1*
X757241D2*
X1422212D1*
X1498419D2*
X1522225D1*
X2633938D2*
X2713985D1*
X3085079D2*
X3110891D1*
X451513Y2197449D2*
X698350D1*
X739062D2*
X1409364D1*
X1485546D2*
X1509352D1*
X2646812D2*
X2726858D1*
X3091808D2*
X3110891D1*
X451513Y2184581D2*
X688575D1*
X748812D2*
X1378590D1*
X1472673D2*
X1496479D1*
X2371856D2*
X2583477D1*
X2659659D2*
X2739731D1*
X3094423D2*
X3110891D1*
X451513Y2171712D2*
X675956D1*
X761431D2*
X1365057D1*
X1459800D2*
X1483606D1*
X2378788D2*
X2596350D1*
X2672532D2*
X2752579D1*
X3093636D2*
X3110891D1*
X451513Y2158843D2*
X669735D1*
X767677D2*
X1359624D1*
X1446952D2*
X1470733D1*
X1546940D2*
X1569731D1*
X2391661D2*
X2609198D1*
X2685405D2*
X2765452D1*
X3089218D2*
X3110891D1*
X451513Y2145974D2*
X667424D1*
X769962D2*
X1358837D1*
X1441062D2*
X1457885D1*
X1534067D2*
X1567421D1*
X2404534D2*
X2622071D1*
X2698278D2*
X2778325D1*
X2845925D2*
X2858534D1*
X3079849D2*
X3110891D1*
X451513Y2133106D2*
X668516D1*
X768896D2*
X1362340D1*
X1437558D2*
X1445012D1*
X1521194D2*
X1568512D1*
X2449983D2*
X2487399D1*
X2549997D2*
X2634944D1*
X2749999D2*
X2787415D1*
X2849987D2*
X2871407D1*
X2987198D2*
X3030479D1*
X3056921D2*
X3110891D1*
X451513Y2120237D2*
X673213D1*
X764173D2*
X1371837D1*
X1508347D2*
X1573235D1*
X1664169D2*
X1673756D1*
X2461815D2*
X2475592D1*
X2561804D2*
X2647817D1*
X2761806D2*
X2775583D1*
X2861819D2*
X2884254D1*
X3094550D2*
X3110891D1*
X451513Y2107368D2*
X683014D1*
X754372D2*
X807098D1*
X830315D2*
X1069587D1*
X1092804D2*
X1419266D1*
X1495474D2*
X1583010D1*
X1654368D2*
X1683710D1*
X1753696D2*
X2067870D1*
X2567593D2*
X2660690D1*
X2867608D2*
X2897128D1*
X3094550D2*
X3110891D1*
X451513Y2094499D2*
X708379D1*
X729007D2*
X786811D1*
X1113091D2*
X1406393D1*
X1482601D2*
X1608376D1*
X1629028D2*
X1711538D1*
X1725843D2*
X2067870D1*
X2569522D2*
X2667876D1*
X2869513D2*
X2910001D1*
X3094550D2*
X3110891D1*
X451513Y2081630D2*
X684792D1*
X752620D2*
X779524D1*
X1120378D2*
X1393520D1*
X1469728D2*
X1584788D1*
X1652616D2*
X1685512D1*
X1751868D2*
X2067870D1*
X2568024D2*
X2669374D1*
X2868015D2*
X2922874D1*
X3094550D2*
X3110891D1*
X451513Y2068762D2*
X674102D1*
X763284D2*
X777391D1*
X1122511D2*
X1380672D1*
X1456854D2*
X1574124D1*
X1663280D2*
X1674671D1*
X1762735D2*
X1804975D1*
X1857417D2*
X2067870D1*
X2562794D2*
X2674629D1*
X2762771D2*
X2774618D1*
X2862784D2*
X2935747D1*
X3094550D2*
X3110891D1*
X451513Y2055893D2*
X668897D1*
X768515D2*
X779473D1*
X1120403D2*
X1367799D1*
X1443981D2*
X1568893D1*
X1768017D2*
X1794387D1*
X2551978D2*
X2685421D1*
X2751979D2*
X2785409D1*
X2851993D2*
X2948620D1*
X3094550D2*
X3110891D1*
X451513Y2043024D2*
X667374D1*
X770013D2*
X786710D1*
X1113192D2*
X1354926D1*
X1431134D2*
X1567395D1*
X1769540D2*
X1790274D1*
X2506122D2*
X2967891D1*
X3094550D2*
X3110891D1*
X451513Y2030155D2*
X669253D1*
X768159D2*
X806641D1*
X830772D2*
X1069129D1*
X1093261D2*
X1342053D1*
X1418261D2*
X1569249D1*
X1767661D2*
X1790553D1*
X2493249D2*
X3110891D1*
X451513Y2017287D2*
X674915D1*
X762472D2*
X1329180D1*
X1405388D2*
X1574911D1*
X1662468D2*
X1675483D1*
X1761923D2*
X1795327D1*
X2480376D2*
X3110891D1*
X451513Y2004418D2*
X686442D1*
X750970D2*
X1316333D1*
X1392515D2*
X1586438D1*
X1650966D2*
X1687213D1*
X1750192D2*
X1807311D1*
X1855081D2*
X1887393D1*
X2467528D2*
X3110891D1*
X451513Y1991549D2*
X702819D1*
X734567D2*
X1303460D1*
X1379642D2*
X1602815D1*
X1634589D2*
X1704530D1*
X1732851D2*
X1883838D1*
X2454655D2*
X3110891D1*
X451513Y1978680D2*
X681643D1*
X755743D2*
X1290587D1*
X1366769D2*
X1581639D1*
X1655765D2*
X1682313D1*
X1755093D2*
X1884600D1*
X2497438D2*
X2539983D1*
X2597427D2*
X2639971D1*
X2697440D2*
X3110891D1*
X451513Y1965812D2*
X672528D1*
X764858D2*
X1277713D1*
X1353921D2*
X1572524D1*
X1664880D2*
X1673071D1*
X1764335D2*
X1889983D1*
X2510591D2*
X2526805D1*
X2610604D2*
X2626794D1*
X2710593D2*
X3110891D1*
X451513Y1952943D2*
X668237D1*
X769149D2*
X1264840D1*
X1341048D2*
X1568233D1*
X1768677D2*
X1903389D1*
X1946513D2*
X2020364D1*
X2117036D2*
X2220366D1*
X2717042D2*
X3110891D1*
X451513Y1940074D2*
X667501D1*
X769886D2*
X1251967D1*
X1328175D2*
X1567522D1*
X1769413D2*
X2017952D1*
X2119448D2*
X2217954D1*
X2719454D2*
X3110891D1*
X451513Y1927205D2*
X670167D1*
X767220D2*
X1239120D1*
X1315302D2*
X1570188D1*
X1766722D2*
X2018942D1*
X2118458D2*
X2218944D1*
X2718438D2*
X3110891D1*
X451513Y1914336D2*
X676895D1*
X760491D2*
X1226247D1*
X1302429D2*
X1576917D1*
X1660487D2*
X1677489D1*
X1759917D2*
X2023614D1*
X2113786D2*
X2223616D1*
X2713792D2*
X3110891D1*
X451513Y1901468D2*
X690606D1*
X746806D2*
X1213374D1*
X1289556D2*
X1590602D1*
X1646802D2*
X1691479D1*
X1745901D2*
X2033389D1*
X2104011D2*
X2233391D1*
X2704017D2*
X3110891D1*
X451513Y1888599D2*
X695354D1*
X742058D2*
X1200501D1*
X1276708D2*
X1595350D1*
X1642054D2*
X1696456D1*
X1740950D2*
X2059288D1*
X2078112D2*
X2259290D1*
X2678118D2*
X3021440D1*
X3065960D2*
X3110891D1*
X451513Y1875730D2*
X678977D1*
X758409D2*
X1187628D1*
X1263835D2*
X1578973D1*
X1658431D2*
X1679596D1*
X1757810D2*
X2272518D1*
X3082794D2*
X3110891D1*
X451513Y1862861D2*
X671208D1*
X766204D2*
X1174754D1*
X1250962D2*
X1571204D1*
X1765681D2*
X2285391D1*
X3090690D2*
X3110891D1*
X451513Y1849993D2*
X667780D1*
X769632D2*
X1161907D1*
X1238089D2*
X1567776D1*
X1769134D2*
X2298264D1*
X3094144D2*
X3110891D1*
X451513Y1837124D2*
X667805D1*
X769581D2*
X1149034D1*
X1225216D2*
X1567827D1*
X1769108D2*
X2308624D1*
X2391280D2*
X2398641D1*
X3094118D2*
X3110891D1*
X451513Y1824255D2*
X671309D1*
X766077D2*
X1136161D1*
X1212343D2*
X1571305D1*
X1765579D2*
X2308624D1*
X2391280D2*
X2411506D1*
X3090563D2*
X3110891D1*
X451513Y1811386D2*
X679231D1*
X758181D2*
X824110D1*
X925810D2*
X965891D1*
X984005D2*
X1123288D1*
X1199495D2*
X1579227D1*
X1658177D2*
X1679850D1*
X1757556D2*
X2308624D1*
X2391280D2*
X2424354D1*
X3082565D2*
X3110891D1*
X451513Y1798518D2*
X695938D1*
X741448D2*
X824110D1*
X925810D2*
X939688D1*
X1010233D2*
X1110415D1*
X1186622D2*
X1595934D1*
X1641470D2*
X1697065D1*
X1740341D2*
X2308624D1*
X2391280D2*
X2437227D1*
X2665524D2*
X3022075D1*
X3065325D2*
X3110891D1*
X451513Y1785649D2*
X690149D1*
X747237D2*
X824110D1*
X1173749D2*
X1590145D1*
X1647233D2*
X1691022D1*
X1746358D2*
X2308624D1*
X2391280D2*
X2450100D1*
X2678397D2*
X3016032D1*
X3071368D2*
X3110891D1*
X451513Y1772780D2*
X676692D1*
X760694D2*
X824110D1*
X1160876D2*
X1576713D1*
X1660690D2*
X1677286D1*
X1760120D2*
X2308624D1*
X2391280D2*
X2462973D1*
X3085104D2*
X3110891D1*
X451513Y1759911D2*
X670090D1*
X767321D2*
X824110D1*
X1148003D2*
X1570087D1*
X1766823D2*
X2308624D1*
X2391280D2*
X2475846D1*
X3091833D2*
X3110891D1*
X451513Y1747043D2*
X667501D1*
X769911D2*
X824110D1*
X1135130D2*
X1567497D1*
X1769438D2*
X2308624D1*
X2391280D2*
X2488719D1*
X3094423D2*
X3110891D1*
X451513Y1734174D2*
X668288D1*
X769099D2*
X824110D1*
X925810D2*
X932960D1*
X1016937D2*
X1568284D1*
X1768626D2*
X2308624D1*
X2391280D2*
X2501567D1*
X3093636D2*
X3110891D1*
X451513Y1721305D2*
X672680D1*
X764731D2*
X824110D1*
X925810D2*
X946036D1*
X1003860D2*
X1138421D1*
X1198987D2*
X1513415D1*
X1664728D2*
X1673198D1*
X1764208D2*
X2308624D1*
X2392753D2*
X2514440D1*
X3089192D2*
X3110891D1*
X451513Y1708436D2*
X681922D1*
X755464D2*
X824110D1*
X925810D2*
X955202D1*
X994694D2*
X1130194D1*
X1655485D2*
X1682592D1*
X1754813D2*
X2308624D1*
X2405601D2*
X2527313D1*
X3079798D2*
X3110891D1*
X451513Y1695567D2*
X703784D1*
X733603D2*
X824110D1*
X925810D2*
X936794D1*
X1013103D2*
X1127426D1*
X1584976D2*
X1603780D1*
X1633599D2*
X1705647D1*
X1731759D2*
X2310071D1*
X2418474D2*
X2540186D1*
X2655978D2*
X3030631D1*
X3056769D2*
X3110891D1*
X451513Y1682699D2*
X686087D1*
X751325D2*
X824110D1*
X1042581D2*
X1128924D1*
X1583478D2*
X2047278D1*
X2090122D2*
X2316266D1*
X2431347D2*
X2553059D1*
X3075558D2*
X3110891D1*
X451513Y1669830D2*
X674737D1*
X762649D2*
X824110D1*
X1055657D2*
X1135272D1*
X1577130D2*
X2029936D1*
X2107464D2*
X2328428D1*
X2444220D2*
X2565932D1*
X3087085D2*
X3110891D1*
X451513Y1656961D2*
X669176D1*
X768235D2*
X824110D1*
X1068530D2*
X1151522D1*
X1185860D2*
X1526542D1*
X1560880D2*
X1856442D1*
X2115513D2*
X2341301D1*
X2457093D2*
X2578780D1*
X3092747D2*
X3110891D1*
X451513Y1644092D2*
X667374D1*
X770013D2*
X824110D1*
X1081403D2*
X1843493D1*
X2119067D2*
X2354149D1*
X2469966D2*
X2591653D1*
X3094550D2*
X3110891D1*
X451513Y1631224D2*
X668973D1*
X768438D2*
X824110D1*
X925810D2*
X935169D1*
X1094276D2*
X1830620D1*
X2119118D2*
X2367022D1*
X2482813D2*
X2604526D1*
X3092950D2*
X3110891D1*
X451513Y1618355D2*
X674280D1*
X763132D2*
X824110D1*
X925810D2*
X951063D1*
X998833D2*
X1030942D1*
X2115690D2*
X2379895D1*
X2495687D2*
X2617399D1*
X3087567D2*
X3110891D1*
X451513Y1605486D2*
X685122D1*
X752265D2*
X1043815D1*
X1881081D2*
X2029581D1*
X2107819D2*
X2392768D1*
X2508560D2*
X2636772D1*
X3076548D2*
X3110891D1*
X451513Y1592617D2*
X706958D1*
X730454D2*
X990292D1*
X1019425D2*
X1056688D1*
X1868208D2*
X2046364D1*
X2091036D2*
X2405641D1*
X2521433D2*
X2992850D1*
X3094550D2*
X3110891D1*
X451513Y1579749D2*
X682735D1*
X754677D2*
X972213D1*
X1037503D2*
X1069561D1*
X1855335D2*
X1906258D1*
X1943618D2*
X2041641D1*
X2095759D2*
X2418514D1*
X3094550D2*
X3110891D1*
X451513Y1566880D2*
X673087D1*
X764325D2*
X965383D1*
X1664321D2*
X1673604D1*
X1958878D2*
X2027575D1*
X2109825D2*
X2431362D1*
X3094550D2*
X3110891D1*
X451513Y1554011D2*
X668465D1*
X768946D2*
X963555D1*
X1964921D2*
X2020719D1*
X2116681D2*
X2444235D1*
X3094550D2*
X3110891D1*
X451513Y1541142D2*
X667450D1*
X769962D2*
X965967D1*
X1966190D2*
X2018028D1*
X2119372D2*
X2457108D1*
X3094550D2*
X3110891D1*
X451513Y1528273D2*
X669811D1*
X767575D2*
X973635D1*
X1963169D2*
X2018739D1*
X2118661D2*
X2469981D1*
X3094550D2*
X3110891D1*
X451513Y1515405D2*
X676159D1*
X761253D2*
X996842D1*
X1012874D2*
X1576155D1*
X1661249D2*
X1676727D1*
X1760679D2*
X1895340D1*
X1954562D2*
X2023055D1*
X2114345D2*
X2482854D1*
X3094550D2*
X3110891D1*
X451513Y1502536D2*
X688981D1*
X748405D2*
X1588977D1*
X1648427D2*
X1689829D1*
X1747577D2*
X2032272D1*
X2105128D2*
X2992850D1*
X3094550D2*
X3110891D1*
X451513Y1489667D2*
X697665D1*
X739722D2*
X1597686D1*
X1639718D2*
X1698919D1*
X1738487D2*
X2054413D1*
X2082987D2*
X3110891D1*
X451513Y1476798D2*
X679891D1*
X757495D2*
X1069891D1*
X1117509D2*
X1579887D1*
X1657491D2*
X1680536D1*
X1756870D2*
X1807413D1*
X1855005D2*
X2017876D1*
X2119524D2*
X2137338D1*
X2200063D2*
X2237327D1*
X2300077D2*
X2337340D1*
X2400065D2*
X2437329D1*
X2500054D2*
X2637331D1*
X2700056D2*
X2737344D1*
X2800069D2*
X3110891D1*
X451513Y1463930D2*
X671665D1*
X798856D2*
X1057881D1*
X1867040D2*
X2017876D1*
X2211845D2*
X2225546D1*
X2311858D2*
X2325559D1*
X2411847D2*
X2425547D1*
X2511835D2*
X2625549D1*
X2711837D2*
X2725563D1*
X2811851D2*
X3110891D1*
X451513Y1451061D2*
X667932D1*
X811933D2*
X1053057D1*
X1874429D2*
X2017876D1*
X2517624D2*
X2619786D1*
X2817614D2*
X3110891D1*
X451513Y1438192D2*
X667678D1*
X824806D2*
X1052753D1*
X1887302D2*
X2017876D1*
X2519503D2*
X2617881D1*
X2819519D2*
X3110891D1*
X451513Y1425323D2*
X670878D1*
X837679D2*
X874129D1*
X925784D2*
X1056840D1*
X1900175D2*
X2017876D1*
X2518005D2*
X2619379D1*
X2818021D2*
X3110891D1*
X451513Y1412455D2*
X678342D1*
X759069D2*
X774344D1*
X850552D2*
X863288D1*
X2312747D2*
X2324645D1*
X2412761D2*
X2424659D1*
X2512749D2*
X2624661D1*
X2712751D2*
X2724649D1*
X2812739D2*
X3110891D1*
X451513Y1399586D2*
X693831D1*
X743581D2*
X787217D1*
X2301905D2*
X2335487D1*
X2401919D2*
X2435475D1*
X2501907D2*
X2635477D1*
X2701909D2*
X2735491D1*
X2801923D2*
X3110891D1*
X451513Y1386717D2*
X691876D1*
X745536D2*
X800090D1*
X2274813D2*
X2636112D1*
X2696019D2*
X2741381D1*
X2796032D2*
X3110891D1*
X451513Y1373848D2*
X677479D1*
X759907D2*
X812963D1*
X2694952D2*
X2741381D1*
X2796032D2*
X3110891D1*
X451513Y1360980D2*
X670471D1*
X808276D2*
X825811D1*
X2686573D2*
X2729143D1*
X2795981D2*
X3110891D1*
X451513Y1348111D2*
X667577D1*
X821124D2*
X838684D1*
X2791716D2*
X3110891D1*
X451513Y1335242D2*
X668110D1*
X833997D2*
X851557D1*
X2779579D2*
X3110891D1*
X451513Y1322373D2*
X672147D1*
X846870D2*
X864430D1*
X2766731D2*
X3110891D1*
X451513Y1309504D2*
X680907D1*
X756505D2*
X783536D1*
X859743D2*
X877303D1*
X2753858D2*
X3110891D1*
X451513Y1296636D2*
X700458D1*
X736929D2*
X796409D1*
X872616D2*
X890176D1*
X1803487D2*
X3110891D1*
X451513Y1283767D2*
X687458D1*
X749954D2*
X809282D1*
X1790614D2*
X2619151D1*
X2661360D2*
X3110891D1*
X451513Y1270898D2*
X675422D1*
X761989D2*
X822155D1*
X1761415D2*
X2605465D1*
X2675046D2*
X3110891D1*
X451513Y1258029D2*
X669481D1*
X1767433D2*
X2599956D1*
X2682054D2*
X3110891D1*
X451513Y1245161D2*
X667399D1*
X1769515D2*
X2599118D1*
X2694901D2*
X3110891D1*
X451513Y1232292D2*
X668694D1*
X1768220D2*
X2056799D1*
X2080601D2*
X2602596D1*
X2707774D2*
X3110891D1*
X451513Y1219423D2*
X673671D1*
X2100659D2*
X2611991D1*
X2720647D2*
X3110891D1*
X451513Y1206554D2*
X683903D1*
X2107896D2*
X2631872D1*
X2733521D2*
X3110891D1*
X451513Y1193686D2*
X739889D1*
X2110028D2*
X2644745D1*
X2746394D2*
X3110891D1*
X451513Y1180817D2*
X683878D1*
X2107896D2*
X2233696D1*
X2266206D2*
X2657592D1*
X2759267D2*
X3110891D1*
X451513Y1167948D2*
X673645D1*
X2283091D2*
X2670465D1*
X2772114D2*
X3110891D1*
X451513Y1155079D2*
X668694D1*
X939622D2*
X1568690D1*
X2289616D2*
X2683338D1*
X2784886D2*
X3110891D1*
X451513Y1142210D2*
X667399D1*
X941247D2*
X1381180D1*
X1418718D2*
X1567395D1*
X2291241D2*
X2696212D1*
X2792046D2*
X3110891D1*
X451513Y1129342D2*
X669481D1*
X1433901D2*
X1569477D1*
X2288601D2*
X2709085D1*
X2793569D2*
X3110891D1*
X451513Y1116473D2*
X675448D1*
X761964D2*
X869331D1*
X1439919D2*
X1575444D1*
X1661960D2*
X1676016D1*
X1761390D2*
X2219325D1*
X2280577D2*
X2720942D1*
X2793569D2*
X3110891D1*
X451513Y1103604D2*
X687483D1*
X749903D2*
X909245D1*
X1441188D2*
X1587504D1*
X1649899D2*
X1688280D1*
X1749101D2*
X2720942D1*
X2793569D2*
X3110891D1*
X451513Y1090735D2*
X700381D1*
X737030D2*
X896397D1*
X1438167D2*
X1600378D1*
X1637026D2*
X1701813D1*
X1735567D2*
X2720942D1*
X2793569D2*
X3110891D1*
X451513Y1077867D2*
X680856D1*
X756530D2*
X883524D1*
X959706D2*
X1246559D1*
X1429509D2*
X1580878D1*
X1656526D2*
X1681526D1*
X1755880D2*
X2720942D1*
X2793569D2*
X3110891D1*
X451513Y1064998D2*
X672147D1*
X946833D2*
X1233508D1*
X1665261D2*
X1672665D1*
X1764741D2*
X2720942D1*
X2793569D2*
X3110891D1*
X451513Y1052129D2*
X668085D1*
X933985D2*
X1228278D1*
X1768829D2*
X2720942D1*
X2793569D2*
X3110891D1*
X451513Y1039260D2*
X667577D1*
X921112D2*
X1227618D1*
X1769337D2*
X2720942D1*
X2793569D2*
X3110891D1*
X451513Y1026392D2*
X670471D1*
X908239D2*
X1231325D1*
X1766417D2*
X2720942D1*
X2793569D2*
X3110891D1*
X451513Y1013523D2*
X677504D1*
X759882D2*
X1241126D1*
X1296284D2*
X1577501D1*
X1659903D2*
X1678098D1*
X1759308D2*
X2720942D1*
X2793569D2*
X3110891D1*
X451513Y1000654D2*
X691926D1*
X745485D2*
X1591922D1*
X1645481D2*
X1692876D1*
X1744530D2*
X1955872D1*
X2031521D2*
X2720942D1*
X2793569D2*
X3110891D1*
X451513Y987785D2*
X693780D1*
X743632D2*
X1593776D1*
X1643628D2*
X1694780D1*
X1742626D2*
X1932919D1*
X2054474D2*
X2720942D1*
X2793569D2*
X2992850D1*
X3094550D2*
X3110891D1*
X451513Y974917D2*
X678317D1*
X759095D2*
X1578313D1*
X1659091D2*
X1678911D1*
X1758470D2*
X1922178D1*
X2065214D2*
X2720942D1*
X2793569D2*
X2992850D1*
X3094550D2*
X3110891D1*
X451513Y962048D2*
X670878D1*
X766534D2*
X1570874D1*
X1766036D2*
X1916237D1*
X2071181D2*
X2720942D1*
X2793569D2*
X2992850D1*
X3094550D2*
X3110891D1*
X451513Y949179D2*
X667678D1*
X769708D2*
X1567674D1*
X1769235D2*
X1913571D1*
X2073821D2*
X2720942D1*
X2793569D2*
X2992850D1*
X3094550D2*
X3110891D1*
X451513Y936310D2*
X667932D1*
X769479D2*
X1567928D1*
X1768981D2*
X1913774D1*
X2073618D2*
X2720942D1*
X2793569D2*
X2992850D1*
X3094550D2*
X3110891D1*
X451513Y923441D2*
X671665D1*
X765722D2*
X1571661D1*
X1765224D2*
X1916897D1*
X2070521D2*
X2720942D1*
X2793569D2*
X2992850D1*
X3094550D2*
X3110891D1*
X451513Y910573D2*
X679917D1*
X757470D2*
X1579913D1*
X1657466D2*
X1680561D1*
X1756845D2*
X1923422D1*
X2063970D2*
X2720942D1*
X2793569D2*
X2992850D1*
X3094550D2*
X3110891D1*
X451513Y897704D2*
X697741D1*
X739646D2*
X1597737D1*
X1639667D2*
X1698969D1*
X1738411D2*
X1935153D1*
X2052265D2*
X2149551D1*
X2207935D2*
X2720942D1*
X2793569D2*
X2992850D1*
X3094550D2*
X3110891D1*
X451513Y884835D2*
X688930D1*
X748456D2*
X1588952D1*
X1648452D2*
X1689778D1*
X1747628D2*
X1964835D1*
X2022558D2*
X2133149D1*
X2224337D2*
X2720942D1*
X2793569D2*
X3110891D1*
X451513Y871966D2*
X676133D1*
X761278D2*
X1576129D1*
X1661274D2*
X1676702D1*
X1760704D2*
X2124389D1*
X2233097D2*
X2720942D1*
X2793569D2*
X3110891D1*
X451513Y859098D2*
X669811D1*
X767601D2*
X1569807D1*
X1767103D2*
X2119692D1*
X2237794D2*
X2720942D1*
X2793569D2*
X3110891D1*
X451513Y846229D2*
X667450D1*
X769962D2*
X1567446D1*
X1769489D2*
X2118067D1*
X2239419D2*
X2720942D1*
X2793569D2*
X3110891D1*
X451513Y833360D2*
X668465D1*
X768946D2*
X1568462D1*
X1768448D2*
X2118042D1*
X2239419D2*
X2720942D1*
X2793569D2*
X3110891D1*
X451513Y820491D2*
X673087D1*
X764300D2*
X1573083D1*
X1664321D2*
X1673629D1*
X1763776D2*
X2118042D1*
X2239419D2*
X2720942D1*
X2793569D2*
X3110891D1*
X451513Y807623D2*
X682760D1*
X754651D2*
X1582756D1*
X1654647D2*
X1683430D1*
X1753950D2*
X2118042D1*
X2239419D2*
X2720942D1*
X2793569D2*
X3110891D1*
X451513Y794754D2*
X707085D1*
X730302D2*
X1607081D1*
X1630298D2*
X1709710D1*
X1727696D2*
X2119108D1*
X2238378D2*
X2720942D1*
X2793569D2*
X3110891D1*
X451513Y781885D2*
X685096D1*
X752315D2*
X1585092D1*
X1652312D2*
X1685817D1*
X1751563D2*
X2123120D1*
X2234366D2*
X2720942D1*
X2793569D2*
X3110891D1*
X451513Y769016D2*
X674254D1*
X763132D2*
X1574251D1*
X1663128D2*
X1674797D1*
X1762583D2*
X2130889D1*
X2226597D2*
X2720942D1*
X2793569D2*
X3110891D1*
X451513Y756148D2*
X668948D1*
X768438D2*
X1568944D1*
X1767966D2*
X2145006D1*
X2212454D2*
X2720942D1*
X2793569D2*
X3110891D1*
X451513Y743279D2*
X667374D1*
X770013D2*
X1567370D1*
X1769540D2*
X2720942D1*
X2793569D2*
X3110891D1*
X451513Y730410D2*
X669176D1*
X768210D2*
X1569172D1*
X1767737D2*
X2720942D1*
X2793569D2*
X3110891D1*
X451513Y717541D2*
X674762D1*
X762624D2*
X1574758D1*
X1662646D2*
X1675331D1*
X1762075D2*
X2720942D1*
X2793569D2*
X3110891D1*
X451513Y704672D2*
X686112D1*
X751274D2*
X1586108D1*
X1651296D2*
X1686883D1*
X1750522D2*
X2720942D1*
X2793569D2*
X3110891D1*
X451513Y691804D2*
X703682D1*
X733704D2*
X1603678D1*
X1633700D2*
X1705520D1*
X1731886D2*
X2720942D1*
X2793569D2*
X3110891D1*
X451513Y678935D2*
X681897D1*
X755515D2*
X1581893D1*
X1655511D2*
X1682567D1*
X1754839D2*
X2720942D1*
X2793569D2*
X3110891D1*
X451513Y666066D2*
X672655D1*
X764731D2*
X1572651D1*
X1664753D2*
X1673198D1*
X1764208D2*
X2720942D1*
X2793569D2*
X3110891D1*
X451513Y653197D2*
X668288D1*
X769099D2*
X1568284D1*
X1768626D2*
X2720942D1*
X2793569D2*
X3110891D1*
X451513Y640329D2*
X667501D1*
X769911D2*
X1567497D1*
X1769438D2*
X2720942D1*
X2793569D2*
X3110891D1*
X451513Y627460D2*
X670090D1*
X767321D2*
X1570087D1*
X1766798D2*
X2720942D1*
X2793569D2*
X3110891D1*
X451513Y614591D2*
X676717D1*
X760669D2*
X1576713D1*
X1660665D2*
X1677311D1*
X1760095D2*
X2720942D1*
X2793569D2*
X3110891D1*
X451513Y601722D2*
X690200D1*
X747212D2*
X1590196D1*
X1647208D2*
X1691073D1*
X1746333D2*
X2720942D1*
X2793569D2*
X3110891D1*
X451513Y588854D2*
X695887D1*
X741524D2*
X1595883D1*
X1641521D2*
X1696989D1*
X1740392D2*
X2720942D1*
X2793569D2*
X3110891D1*
X451513Y575985D2*
X679206D1*
X758206D2*
X1579202D1*
X1658202D2*
X1679825D1*
X1757581D2*
X2720942D1*
X2793569D2*
X3110891D1*
X451513Y563116D2*
X671309D1*
X766103D2*
X1571305D1*
X1765579D2*
X2720942D1*
X2793569D2*
X3110891D1*
X451513Y550247D2*
X667805D1*
X769581D2*
X962743D1*
X1008405D2*
X1277688D1*
X1323351D2*
X1567801D1*
X1769108D2*
X2720942D1*
X2793569D2*
X3110891D1*
X451513Y537378D2*
X667780D1*
X769606D2*
X947610D1*
X1023538D2*
X1262555D1*
X1338483D2*
X1567776D1*
X1769134D2*
X2720942D1*
X2793569D2*
X3110891D1*
X451513Y524510D2*
X671208D1*
X766204D2*
X940754D1*
X1030394D2*
X1255700D1*
X1345339D2*
X1571204D1*
X1765681D2*
X2216862D1*
X2320542D2*
X2720942D1*
X2797708D2*
X3110891D1*
X451513Y511641D2*
X679003D1*
X758384D2*
X938317D1*
X1032831D2*
X1253262D1*
X1347776D2*
X1578999D1*
X1658405D2*
X1679622D1*
X1757784D2*
X2206629D1*
X2330774D2*
X2720942D1*
X2807255D2*
X3110891D1*
X451513Y498772D2*
X695405D1*
X741981D2*
X939561D1*
X1031587D2*
X1254506D1*
X1346532D2*
X1595401D1*
X1641978D2*
X1696506D1*
X1740899D2*
X2202694D1*
X2334710D2*
X2721958D1*
X2810810D2*
X3110891D1*
X451513Y485903D2*
X690555D1*
X746856D2*
X944842D1*
X1026306D2*
X1259788D1*
X1341251D2*
X1590551D1*
X1646853D2*
X1667840D1*
X1769540D2*
X2203151D1*
X2334253D2*
X2728102D1*
X2810048D2*
X3110891D1*
X451513Y473035D2*
X676895D1*
X760517D2*
X956344D1*
X1014778D2*
X1271315D1*
X1329749D2*
X1576891D1*
X1660513D2*
X1667831D1*
X1769540D2*
X2208128D1*
X2329276D2*
X2734754D1*
X2804640D2*
X3110891D1*
X451513Y460166D2*
X670167D1*
X767220D2*
X1570163D1*
X1769540D2*
X2220569D1*
X2316835D2*
X2748186D1*
X2791233D2*
X3110891D1*
X1675652Y493248D2*
X1768248D1*
Y450210D1*
X3112179Y450200D1*
X3112200Y2712175D1*
X2642651Y2712200D1*
X2712080Y2642775D1*
X2718700Y2643220D1*
X2726447Y2642610D1*
X2734003Y2640796D1*
X2741182Y2637823D1*
X2747807Y2633763D1*
X2753716Y2628716D1*
X2758763Y2622807D1*
X2762823Y2616182D1*
X2765796Y2609003D1*
X2767610Y2601447D1*
X2768220Y2593700D1*
X2767610Y2585953D1*
X2765796Y2578397D1*
X2762823Y2571218D1*
X2758763Y2564593D1*
X2753747Y2558718D1*
X2783659Y2558720D1*
X2778637Y2564593D1*
X2774577Y2571218D1*
X2771604Y2578397D1*
X2769790Y2585953D1*
X2769180Y2593700D1*
X2769790Y2601447D1*
X2771604Y2609003D1*
X2774577Y2616182D1*
X2778637Y2622807D1*
X2783684Y2628716D1*
X2789593Y2633763D1*
X2796218Y2637823D1*
X2803397Y2640796D1*
X2810953Y2642610D1*
X2818700Y2643220D1*
X2826447Y2642610D1*
X2834003Y2640796D1*
X2841182Y2637823D1*
X2847807Y2633763D1*
X2853716Y2628716D1*
X2858763Y2622807D1*
X2862823Y2616182D1*
X2865796Y2609003D1*
X2867610Y2601447D1*
X2868220Y2593700D1*
X2867610Y2585953D1*
X2865796Y2578397D1*
X2862823Y2571218D1*
X2858763Y2564593D1*
X2853747Y2558718D1*
X2896840Y2558597D1*
X2903042Y2557614D1*
X2909015Y2555674D1*
X2914610Y2552823D1*
X2919691Y2549131D1*
X2931191Y2537806D1*
X3038537Y2430460D1*
X3043700Y2430748D1*
X3051451Y2430138D1*
X3059011Y2428323D1*
X3066194Y2425347D1*
X3072823Y2421285D1*
X3078735Y2416235D1*
X3083785Y2410323D1*
X3087847Y2403694D1*
X3090823Y2396511D1*
X3092638Y2388951D1*
X3093248Y2381200D1*
X3092638Y2373449D1*
X3090823Y2365889D1*
X3087847Y2358706D1*
X3083785Y2352077D1*
X3078735Y2346165D1*
X3072823Y2341115D1*
X3066194Y2337053D1*
X3059011Y2334077D1*
X3051451Y2332262D1*
X3049474Y2332028D1*
X3051451Y2330138D1*
X3059011Y2328323D1*
X3066194Y2325347D1*
X3072823Y2321285D1*
X3078735Y2316235D1*
X3083785Y2310323D1*
X3087847Y2303694D1*
X3090823Y2296511D1*
X3092638Y2288951D1*
X3093248Y2281200D1*
X3092638Y2273449D1*
X3090823Y2265889D1*
X3087847Y2258706D1*
X3083785Y2252077D1*
X3078735Y2246165D1*
X3072823Y2241115D1*
X3066194Y2237053D1*
X3059011Y2234077D1*
X3051451Y2232262D1*
X3043700Y2231652D1*
X3035949Y2232262D1*
X3028389Y2234077D1*
X3021206Y2237053D1*
X3014577Y2241115D1*
X3008665Y2246165D1*
X3003615Y2252077D1*
X2999553Y2258706D1*
X2996577Y2265889D1*
X2994762Y2273449D1*
X2978632Y2289671D1*
X2852111Y2416192D1*
X2815304Y2416180D1*
X3010275Y2221222D1*
X3014577Y2221285D1*
X3021206Y2225347D1*
X3028389Y2228323D1*
X3035949Y2230138D1*
X3043700Y2230748D1*
X3051451Y2230138D1*
X3059011Y2228323D1*
X3066194Y2225347D1*
X3072823Y2221285D1*
X3078735Y2216235D1*
X3083785Y2210323D1*
X3087847Y2203694D1*
X3090823Y2196511D1*
X3092638Y2188951D1*
X3093248Y2181200D1*
X3092638Y2173449D1*
X3090823Y2165889D1*
X3087847Y2158706D1*
X3083785Y2152077D1*
X3078735Y2146165D1*
X3072823Y2141115D1*
X3066194Y2137053D1*
X3059011Y2134077D1*
X3051451Y2132262D1*
X3043700Y2131652D1*
X3035949Y2132262D1*
X3028389Y2134077D1*
X3021206Y2137053D1*
X3014577Y2141115D1*
X2993700Y2141180D1*
X2987439Y2141673D1*
X2981333Y2143139D1*
X2975531Y2145542D1*
X2970167Y2148831D1*
X2994170Y2124827D1*
X2994152Y2130748D1*
X3093248D1*
Y2031652D1*
X2994152D1*
Y2041174D1*
X2978060Y2041303D1*
X2971857Y2042286D1*
X2965885Y2044226D1*
X2960290Y2047077D1*
X2955209Y2050768D1*
X2943709Y2062094D1*
X2702140Y2303663D1*
X2568700Y2303680D1*
X2562439Y2304173D1*
X2556333Y2305639D1*
X2550531Y2308042D1*
X2545177Y2311323D1*
X2540401Y2315401D1*
X2310953Y2544790D1*
X2303397Y2546604D1*
X2296218Y2549577D1*
X2289593Y2553637D1*
X2283684Y2558684D1*
X2278637Y2564593D1*
X2274577Y2571218D1*
X2271604Y2578397D1*
X2269790Y2585953D1*
X2269180Y2593700D1*
X2269790Y2601447D1*
X2271604Y2609003D1*
X2274577Y2616182D1*
X2278637Y2622807D1*
X2283684Y2628716D1*
X2289593Y2633763D1*
X2296218Y2637823D1*
X2303397Y2640796D1*
X2310953Y2642610D1*
X2318700Y2643220D1*
X2326447Y2642610D1*
X2334003Y2640796D1*
X2341182Y2637823D1*
X2347807Y2633763D1*
X2353716Y2628716D1*
X2358763Y2622807D1*
X2362823Y2616182D1*
X2365796Y2609003D1*
X2367619Y2601371D1*
X2369790Y2601447D1*
X2371604Y2609003D1*
X2374577Y2616182D1*
X2378637Y2622807D1*
X2383684Y2628716D1*
X2389593Y2633763D1*
X2396218Y2637823D1*
X2403397Y2640796D1*
X2410953Y2642610D1*
X2418700Y2643220D1*
X2426447Y2642610D1*
X2434003Y2640796D1*
X2441182Y2637823D1*
X2447807Y2633763D1*
X2453716Y2628716D1*
X2458763Y2622807D1*
X2462823Y2616182D1*
X2465796Y2609003D1*
X2467619Y2601371D1*
X2469790Y2601447D1*
X2471604Y2609003D1*
X2474577Y2616182D1*
X2478637Y2622807D1*
X2483684Y2628716D1*
X2489593Y2633763D1*
X2496218Y2637823D1*
X2503397Y2640796D1*
X2510953Y2642610D1*
X2518700Y2643220D1*
X2526447Y2642610D1*
X2534003Y2640796D1*
X2541182Y2637823D1*
X2547807Y2633763D1*
X2553716Y2628716D1*
X2558763Y2622807D1*
X2562823Y2616182D1*
X2565796Y2609003D1*
X2567610Y2601447D1*
X2568186Y2594565D1*
X2569180Y2593700D1*
X2569790Y2601447D1*
X2571604Y2609003D1*
X2574577Y2616182D1*
X2578637Y2622807D1*
X2583684Y2628716D1*
X2589593Y2633763D1*
X2596218Y2637823D1*
X2603397Y2640796D1*
X2610953Y2642610D1*
X2618700Y2643220D1*
X2626447Y2642610D1*
X2627564Y2642388D1*
X2593753Y2676192D1*
X1674897Y2676180D1*
X1338198Y2339623D1*
X1334387Y2336854D1*
X1330190Y2334716D1*
X1325709Y2333260D1*
X1321057Y2332523D1*
X1292701Y2332430D1*
X806141D1*
X753399Y2279695D1*
X756736Y2276185D1*
X761349Y2269835D1*
X764912Y2262842D1*
X767338Y2255377D1*
X768566Y2247625D1*
Y2239775D1*
X767338Y2232023D1*
X764912Y2224558D1*
X761349Y2217565D1*
X756736Y2211215D1*
X751185Y2205664D1*
X744835Y2201051D1*
X737842Y2197488D1*
X730377Y2195062D1*
X722625Y2193834D1*
X717857Y2193687D1*
X710875Y2194296D1*
X703243Y2196128D1*
X695991Y2199132D1*
X689299Y2203233D1*
X683331Y2208331D1*
X678233Y2214299D1*
X674132Y2220991D1*
X671128Y2228243D1*
X669296Y2235875D1*
X668680Y2243700D1*
X669296Y2251525D1*
X671128Y2259157D1*
X674132Y2266409D1*
X678233Y2273101D1*
X683331Y2279069D1*
X688685Y2283683D1*
X688772Y2289806D1*
X689509Y2294459D1*
X690965Y2298939D1*
X693104Y2303136D1*
X695872Y2306947D1*
X715857Y2327063D1*
X774203Y2385278D1*
X778015Y2388047D1*
X782212Y2390186D1*
X786692Y2391641D1*
X791345Y2392378D1*
X819700Y2392471D1*
X1306261D1*
X1626012Y2712216D1*
X1299843Y2712200D1*
X1303435Y2709370D1*
X1306519Y2706519D1*
X1309370Y2703435D1*
X1311970Y2700137D1*
X1314303Y2696646D1*
X1316355Y2692981D1*
X1318113Y2689168D1*
X1319567Y2685228D1*
X1320707Y2681186D1*
X1321526Y2677067D1*
X1322020Y2672896D1*
X1322185Y2668700D1*
X1322020Y2664504D1*
X1321526Y2660333D1*
X1320707Y2656214D1*
X1319567Y2652172D1*
X1318113Y2648232D1*
X1316355Y2644419D1*
X1314303Y2640754D1*
X1311970Y2637263D1*
X1309370Y2633965D1*
X1306519Y2630881D1*
X1301232Y2626293D1*
X1301120Y2503649D1*
X1300322Y2498608D1*
X1298745Y2493755D1*
X1296428Y2489208D1*
X1293428Y2485080D1*
X1277907Y2469416D1*
X1227320Y2418972D1*
X1223192Y2415972D1*
X1218645Y2413655D1*
X1213792Y2412078D1*
X1208751Y2411280D1*
X1186700Y2411180D1*
X579534D1*
X574369Y2408042D1*
X568567Y2405639D1*
X562461Y2404173D1*
X556200Y2403680D1*
X549939Y2404173D1*
X543833Y2405639D1*
X538031Y2408042D1*
X532677Y2411323D1*
X527902Y2415402D1*
X523823Y2420177D1*
X520542Y2425531D1*
X518139Y2431333D1*
X516673Y2437439D1*
X516180Y2443700D1*
X516673Y2449961D1*
X518139Y2456067D1*
X520542Y2461869D1*
X523823Y2467223D1*
X527902Y2471998D1*
X532677Y2476077D1*
X538031Y2479358D1*
X543833Y2481761D1*
X549939Y2483227D1*
X556200Y2483720D1*
X562461Y2483227D1*
X568567Y2481761D1*
X574369Y2479358D1*
X579509Y2476220D1*
X1192718D1*
X1236187Y2519677D1*
X1236180Y2626221D1*
X1230881Y2630881D1*
X1228030Y2633965D1*
X1225430Y2637263D1*
X1222191Y2642372D1*
X1222185Y2615215D1*
X1115216D1*
Y2712182D1*
X817421Y2712200D1*
X822823Y2708785D1*
X828735Y2703735D1*
X833785Y2697823D1*
X837847Y2691194D1*
X840823Y2684011D1*
X842638Y2676451D1*
X843248Y2668700D1*
X842638Y2660949D1*
X840823Y2653389D1*
X837847Y2646206D1*
X833785Y2639577D1*
X828735Y2633665D1*
X822823Y2628615D1*
X816194Y2624553D1*
X809011Y2621577D1*
X801451Y2619762D1*
X793700Y2619152D1*
X785949Y2619762D1*
X778389Y2621577D1*
X771206Y2624553D1*
X764577Y2628615D1*
X758665Y2633665D1*
X753615Y2639577D1*
X749553Y2646206D1*
X746577Y2653389D1*
X744762Y2660949D1*
X744152Y2668700D1*
X744762Y2676451D1*
X746577Y2684011D1*
X749553Y2691194D1*
X753615Y2697823D1*
X758665Y2703735D1*
X764577Y2708785D1*
X770052Y2712201D1*
X450221Y2712200D1*
X450200Y450225D1*
X669093Y450200D1*
X670062Y455377D1*
X672488Y462842D1*
X676051Y469835D1*
X680664Y476185D1*
X686215Y481736D1*
X692565Y486349D1*
X699558Y489912D1*
X707023Y492338D1*
X714775Y493566D1*
X719543Y493713D1*
X726525Y493104D1*
X734157Y491272D1*
X741409Y488268D1*
X748101Y484167D1*
X754069Y479069D1*
X759167Y473101D1*
X763268Y466409D1*
X766272Y459157D1*
X768104Y451525D1*
X768261Y450199D1*
X1569089Y450200D1*
X1570062Y455377D1*
X1572488Y462842D1*
X1576051Y469835D1*
X1580664Y476185D1*
X1586215Y481736D1*
X1592565Y486349D1*
X1599558Y489912D1*
X1607023Y492338D1*
X1614775Y493566D1*
X1619543Y493713D1*
X1626525Y493104D1*
X1634157Y491272D1*
X1641409Y488268D1*
X1648101Y484167D1*
X1654069Y479069D1*
X1659167Y473101D1*
X1663268Y466409D1*
X1666272Y459157D1*
X1668104Y451525D1*
X1668261Y450199D1*
X1669152Y452652D1*
Y493248D1*
X1675652D1*
X1768095Y539813D2*
X1766879Y532133D1*
X1764476Y524739D1*
X1760946Y517811D1*
X1756376Y511521D1*
X1750879Y506024D1*
X1744589Y501454D1*
X1737661Y497924D1*
X1730267Y495521D1*
X1722587Y494305D1*
X1714813D1*
X1707133Y495521D1*
X1699739Y497924D1*
X1692811Y501454D1*
X1686521Y506024D1*
X1681024Y511521D1*
X1676454Y517811D1*
X1672924Y524739D1*
X1670521Y532133D1*
X1669305Y539813D1*
Y547587D1*
X1670521Y555267D1*
X1672924Y562661D1*
X1676454Y569589D1*
X1681024Y575879D1*
X1686521Y581376D1*
X1692811Y585946D1*
X1699739Y589476D1*
X1707133Y591879D1*
X1714813Y593095D1*
X1722587D1*
X1730267Y591879D1*
X1737661Y589476D1*
X1744589Y585946D1*
X1750879Y581376D1*
X1756376Y575879D1*
X1760946Y569589D1*
X1764476Y562661D1*
X1766879Y555267D1*
X1768095Y547587D1*
Y539813D1*
Y639813D2*
X1766879Y632133D1*
X1764476Y624739D1*
X1760946Y617811D1*
X1756376Y611521D1*
X1750879Y606024D1*
X1744589Y601454D1*
X1737661Y597924D1*
X1730267Y595521D1*
X1722587Y594305D1*
X1714813D1*
X1707133Y595521D1*
X1699739Y597924D1*
X1692811Y601454D1*
X1686521Y606024D1*
X1681024Y611521D1*
X1676454Y617811D1*
X1672924Y624739D1*
X1670521Y632133D1*
X1669305Y639813D1*
Y647587D1*
X1670521Y655267D1*
X1672924Y662661D1*
X1676454Y669589D1*
X1681024Y675879D1*
X1686521Y681376D1*
X1692811Y685946D1*
X1699739Y689476D1*
X1707133Y691879D1*
X1714813Y693095D1*
X1722587D1*
X1730267Y691879D1*
X1737661Y689476D1*
X1744589Y685946D1*
X1750879Y681376D1*
X1756376Y675879D1*
X1760946Y669589D1*
X1764476Y662661D1*
X1766879Y655267D1*
X1768095Y647587D1*
Y639813D1*
Y739813D2*
X1766879Y732133D1*
X1764476Y724739D1*
X1760946Y717811D1*
X1756376Y711521D1*
X1750879Y706024D1*
X1744589Y701454D1*
X1737661Y697924D1*
X1730267Y695521D1*
X1722587Y694305D1*
X1714813D1*
X1707133Y695521D1*
X1699739Y697924D1*
X1692811Y701454D1*
X1686521Y706024D1*
X1681024Y711521D1*
X1676454Y717811D1*
X1672924Y724739D1*
X1670521Y732133D1*
X1669305Y739813D1*
Y747587D1*
X1670521Y755267D1*
X1672924Y762661D1*
X1676454Y769589D1*
X1681024Y775879D1*
X1686521Y781376D1*
X1692811Y785946D1*
X1699739Y789476D1*
X1707133Y791879D1*
X1714813Y793095D1*
X1722587D1*
X1730267Y791879D1*
X1737661Y789476D1*
X1744589Y785946D1*
X1750879Y781376D1*
X1756376Y775879D1*
X1760946Y769589D1*
X1764476Y762661D1*
X1766879Y755267D1*
X1768095Y747587D1*
Y739813D1*
Y839813D2*
X1766879Y832133D1*
X1764476Y824739D1*
X1760946Y817811D1*
X1756376Y811521D1*
X1750879Y806024D1*
X1744589Y801454D1*
X1737661Y797924D1*
X1730267Y795521D1*
X1722587Y794305D1*
X1714813D1*
X1707133Y795521D1*
X1699739Y797924D1*
X1692811Y801454D1*
X1686521Y806024D1*
X1681024Y811521D1*
X1676454Y817811D1*
X1672924Y824739D1*
X1670521Y832133D1*
X1669305Y839813D1*
Y847587D1*
X1670521Y855267D1*
X1672924Y862661D1*
X1676454Y869589D1*
X1681024Y875879D1*
X1686521Y881376D1*
X1692811Y885946D1*
X1699739Y889476D1*
X1707133Y891879D1*
X1714813Y893095D1*
X1722587D1*
X1730267Y891879D1*
X1737661Y889476D1*
X1744589Y885946D1*
X1750879Y881376D1*
X1756376Y875879D1*
X1760946Y869589D1*
X1764476Y862661D1*
X1766879Y855267D1*
X1768095Y847587D1*
Y839813D1*
Y939813D2*
X1766879Y932133D1*
X1764476Y924739D1*
X1760946Y917811D1*
X1756376Y911521D1*
X1750879Y906024D1*
X1744589Y901454D1*
X1737661Y897924D1*
X1730267Y895521D1*
X1722587Y894305D1*
X1714813D1*
X1707133Y895521D1*
X1699739Y897924D1*
X1692811Y901454D1*
X1686521Y906024D1*
X1681024Y911521D1*
X1676454Y917811D1*
X1672924Y924739D1*
X1670521Y932133D1*
X1669305Y939813D1*
Y947587D1*
X1670521Y955267D1*
X1672924Y962661D1*
X1676454Y969589D1*
X1681024Y975879D1*
X1686521Y981376D1*
X1692811Y985946D1*
X1699739Y989476D1*
X1707133Y991879D1*
X1714813Y993095D1*
X1722587D1*
X1730267Y991879D1*
X1737661Y989476D1*
X1744589Y985946D1*
X1750879Y981376D1*
X1756376Y975879D1*
X1760946Y969589D1*
X1764476Y962661D1*
X1766879Y955267D1*
X1768095Y947587D1*
Y939813D1*
Y1039813D2*
X1766879Y1032133D1*
X1764476Y1024739D1*
X1760946Y1017811D1*
X1756376Y1011521D1*
X1750879Y1006024D1*
X1744589Y1001454D1*
X1737661Y997924D1*
X1730267Y995521D1*
X1722587Y994305D1*
X1714813D1*
X1707133Y995521D1*
X1699739Y997924D1*
X1692811Y1001454D1*
X1686521Y1006024D1*
X1681024Y1011521D1*
X1676454Y1017811D1*
X1672924Y1024739D1*
X1670521Y1032133D1*
X1669305Y1039813D1*
Y1047587D1*
X1670521Y1055267D1*
X1672924Y1062661D1*
X1676454Y1069589D1*
X1681024Y1075879D1*
X1686521Y1081376D1*
X1692811Y1085946D1*
X1699739Y1089476D1*
X1707133Y1091879D1*
X1714813Y1093095D1*
X1722587D1*
X1730267Y1091879D1*
X1737661Y1089476D1*
X1744589Y1085946D1*
X1750879Y1081376D1*
X1756376Y1075879D1*
X1760946Y1069589D1*
X1764476Y1062661D1*
X1766879Y1055267D1*
X1768095Y1047587D1*
Y1039813D1*
X1760853Y1517672D2*
X1756376Y1511521D1*
X1750879Y1506024D1*
X1744589Y1501454D1*
X1737661Y1497924D1*
X1730267Y1495521D1*
X1722587Y1494305D1*
X1714813D1*
X1707133Y1495521D1*
X1699739Y1497924D1*
X1692811Y1501454D1*
X1686521Y1506024D1*
X1681024Y1511521D1*
X1676454Y1517811D1*
X1672924Y1524739D1*
X1670521Y1532133D1*
X1669305Y1539813D1*
Y1547587D1*
X1670521Y1555267D1*
X1672924Y1562661D1*
X1675392Y1567692D1*
X1662581Y1567680D1*
X1664912Y1562842D1*
X1667338Y1555377D1*
X1668566Y1547625D1*
Y1539775D1*
X1667338Y1532023D1*
X1664912Y1524558D1*
X1661349Y1517565D1*
X1656736Y1511215D1*
X1651185Y1505664D1*
X1644835Y1501051D1*
X1637842Y1497488D1*
X1630377Y1495062D1*
X1622625Y1493834D1*
X1617857Y1493687D1*
X1610875Y1494296D1*
X1603243Y1496128D1*
X1595991Y1499132D1*
X1589299Y1503233D1*
X1583331Y1508331D1*
X1578233Y1514299D1*
X1575983Y1517685D1*
X1019657Y1517680D1*
X1014200Y1515943D1*
X1007997Y1514961D1*
X1001718D1*
X995515Y1515943D1*
X989542Y1517884D1*
X983947Y1520735D1*
X978867Y1524426D1*
X974426Y1528867D1*
X970735Y1533947D1*
X967884Y1539542D1*
X965943Y1545515D1*
X964961Y1551718D1*
Y1557997D1*
X965943Y1564200D1*
X967884Y1570172D1*
X970735Y1575768D1*
X974426Y1580848D1*
X978867Y1585289D1*
X983947Y1588980D1*
X989542Y1591831D1*
X995515Y1593772D1*
X1001718Y1594754D1*
X1007997D1*
X1014200Y1593772D1*
X1020172Y1591831D1*
X1025768Y1588980D1*
X1030848Y1585289D1*
X1035289Y1580848D1*
X1038980Y1575768D1*
X1041831Y1570172D1*
X1041997Y1569723D1*
X1083579Y1569720D1*
X1080105Y1571514D1*
X1076801Y1573914D1*
X1052320Y1598282D1*
X1015963Y1634639D1*
X1012626Y1630272D1*
X1007128Y1624774D1*
X1000838Y1620204D1*
X993910Y1616675D1*
X986516Y1614272D1*
X978837Y1613056D1*
X971062D1*
X963383Y1614272D1*
X955988Y1616675D1*
X949061Y1620204D1*
X942771Y1624774D1*
X937273Y1630272D1*
X932703Y1636562D1*
X929173Y1643490D1*
X926771Y1650884D1*
X925555Y1658563D1*
Y1666338D1*
X926771Y1674017D1*
X929173Y1681412D1*
X932703Y1688339D1*
X937273Y1694629D1*
X942771Y1700127D1*
X949061Y1704697D1*
X955988Y1708227D1*
X963383Y1710629D1*
X971062Y1711845D1*
X978837D1*
X986516Y1710629D1*
X993910Y1708227D1*
X1000838Y1704697D1*
X1007128Y1700127D1*
X1012626Y1694629D1*
X1017103Y1688478D1*
X1026991Y1688390D1*
X1031024Y1687752D1*
X1034907Y1686490D1*
X1038545Y1684636D1*
X1041848Y1682236D1*
X1066329Y1657869D1*
X1104481Y1619717D1*
X1820405Y1619720D1*
X1858052Y1657236D1*
X1861355Y1659636D1*
X1864993Y1661490D1*
X1868876Y1662752D1*
X1872909Y1663390D1*
X1907451Y1663471D1*
X2026558D1*
X2031045Y1669611D1*
X2036539Y1675106D1*
X2042826Y1679673D1*
X2049750Y1683201D1*
X2057140Y1685602D1*
X2064815Y1686818D1*
X2072585D1*
X2080260Y1685602D1*
X2087650Y1683201D1*
X2094574Y1679673D1*
X2100861Y1675106D1*
X2106355Y1669611D1*
X2110923Y1663325D1*
X2114451Y1656401D1*
X2116852Y1649011D1*
X2118067Y1641336D1*
Y1633565D1*
X2116852Y1625890D1*
X2114451Y1618500D1*
X2110923Y1611577D1*
X2106355Y1605290D1*
X2100861Y1599795D1*
X2094574Y1595228D1*
X2087650Y1591700D1*
X2080260Y1589299D1*
X2072585Y1588083D1*
X2064815D1*
X2057140Y1589299D1*
X2049750Y1591700D1*
X2042826Y1595228D1*
X2036539Y1599795D1*
X2031045Y1605290D1*
X2026570Y1611438D1*
X1885710Y1611431D1*
X1848099Y1573914D1*
X1844795Y1571514D1*
X1843006Y1570513D1*
X1842200Y1569720D1*
X1894530D1*
X1898958Y1574131D1*
X1904039Y1577823D1*
X1909634Y1580674D1*
X1915607Y1582614D1*
X1921809Y1583597D1*
X1928089D1*
X1934292Y1582614D1*
X1940264Y1580674D1*
X1945860Y1577823D1*
X1950940Y1574131D1*
X1955381Y1569691D1*
X1959072Y1564610D1*
X1961923Y1559015D1*
X1963864Y1553042D1*
X1964846Y1546840D1*
Y1540560D1*
X1963864Y1534358D1*
X1961923Y1528385D1*
X1959072Y1522790D1*
X1955381Y1517709D1*
X1950940Y1513269D1*
X1945860Y1509577D1*
X1940264Y1506726D1*
X1934292Y1504786D1*
X1928089Y1503803D1*
X1921809D1*
X1915607Y1504786D1*
X1909634Y1506726D1*
X1904039Y1509577D1*
X1898958Y1513269D1*
X1894543Y1517682D1*
X1760850Y1517680D1*
X1768095Y1739813D2*
X1766879Y1732133D1*
X1764476Y1724739D1*
X1760946Y1717811D1*
X1756376Y1711521D1*
X1750879Y1706024D1*
X1744589Y1701454D1*
X1737661Y1697924D1*
X1730267Y1695521D1*
X1722587Y1694305D1*
X1714813D1*
X1707133Y1695521D1*
X1699739Y1697924D1*
X1692811Y1701454D1*
X1686521Y1706024D1*
X1681024Y1711521D1*
X1676454Y1717811D1*
X1672924Y1724739D1*
X1670521Y1732133D1*
X1669305Y1739813D1*
Y1747587D1*
X1670521Y1755267D1*
X1672924Y1762661D1*
X1676454Y1769589D1*
X1681024Y1775879D1*
X1686521Y1781376D1*
X1692811Y1785946D1*
X1699739Y1789476D1*
X1707133Y1791879D1*
X1714813Y1793095D1*
X1722587D1*
X1730267Y1791879D1*
X1737661Y1789476D1*
X1744589Y1785946D1*
X1750879Y1781376D1*
X1756376Y1775879D1*
X1760946Y1769589D1*
X1764476Y1762661D1*
X1766879Y1755267D1*
X1768095Y1747587D1*
Y1739813D1*
Y1839813D2*
X1766879Y1832133D1*
X1764476Y1824739D1*
X1760946Y1817811D1*
X1756376Y1811521D1*
X1750879Y1806024D1*
X1744589Y1801454D1*
X1737661Y1797924D1*
X1730267Y1795521D1*
X1722587Y1794305D1*
X1714813D1*
X1707133Y1795521D1*
X1699739Y1797924D1*
X1692811Y1801454D1*
X1686521Y1806024D1*
X1681024Y1811521D1*
X1676454Y1817811D1*
X1672924Y1824739D1*
X1670521Y1832133D1*
X1669305Y1839813D1*
Y1847587D1*
X1670521Y1855267D1*
X1672924Y1862661D1*
X1676454Y1869589D1*
X1681024Y1875879D1*
X1686521Y1881376D1*
X1692811Y1885946D1*
X1699739Y1889476D1*
X1707133Y1891879D1*
X1714813Y1893095D1*
X1722587D1*
X1730267Y1891879D1*
X1737661Y1889476D1*
X1744589Y1885946D1*
X1750879Y1881376D1*
X1756376Y1875879D1*
X1760946Y1869589D1*
X1764476Y1862661D1*
X1766879Y1855267D1*
X1768095Y1847587D1*
Y1839813D1*
Y1939813D2*
X1766879Y1932133D1*
X1764476Y1924739D1*
X1760946Y1917811D1*
X1756376Y1911521D1*
X1750879Y1906024D1*
X1744589Y1901454D1*
X1737661Y1897924D1*
X1730267Y1895521D1*
X1722587Y1894305D1*
X1714813D1*
X1707133Y1895521D1*
X1699739Y1897924D1*
X1692811Y1901454D1*
X1686521Y1906024D1*
X1681024Y1911521D1*
X1676454Y1917811D1*
X1672924Y1924739D1*
X1670521Y1932133D1*
X1669305Y1939813D1*
Y1947587D1*
X1670521Y1955267D1*
X1672924Y1962661D1*
X1676454Y1969589D1*
X1681024Y1975879D1*
X1686521Y1981376D1*
X1692811Y1985946D1*
X1699739Y1989476D1*
X1707133Y1991879D1*
X1714813Y1993095D1*
X1722587D1*
X1730267Y1991879D1*
X1737661Y1989476D1*
X1744589Y1985946D1*
X1750879Y1981376D1*
X1756376Y1975879D1*
X1760946Y1969589D1*
X1764476Y1962661D1*
X1766879Y1955267D1*
X1768095Y1947587D1*
Y1939813D1*
Y2039813D2*
X1766879Y2032133D1*
X1764476Y2024739D1*
X1760946Y2017811D1*
X1756376Y2011521D1*
X1750879Y2006024D1*
X1744589Y2001454D1*
X1737661Y1997924D1*
X1730267Y1995521D1*
X1722587Y1994305D1*
X1714813D1*
X1707133Y1995521D1*
X1699739Y1997924D1*
X1692811Y2001454D1*
X1686521Y2006024D1*
X1681024Y2011521D1*
X1676454Y2017811D1*
X1672924Y2024739D1*
X1670521Y2032133D1*
X1669305Y2039813D1*
Y2047587D1*
X1670521Y2055267D1*
X1672924Y2062661D1*
X1676454Y2069589D1*
X1681024Y2075879D1*
X1686521Y2081376D1*
X1692811Y2085946D1*
X1699739Y2089476D1*
X1707133Y2091879D1*
X1714813Y2093095D1*
X1722587D1*
X1730267Y2091879D1*
X1737661Y2089476D1*
X1744589Y2085946D1*
X1750879Y2081376D1*
X1756376Y2075879D1*
X1760946Y2069589D1*
X1764476Y2062661D1*
X1766879Y2055267D1*
X1768095Y2047587D1*
Y2039813D1*
X1760853Y2117672D2*
X1756376Y2111521D1*
X1750879Y2106024D1*
X1744589Y2101454D1*
X1737661Y2097924D1*
X1730267Y2095521D1*
X1722587Y2094305D1*
X1714813D1*
X1707133Y2095521D1*
X1699739Y2097924D1*
X1692811Y2101454D1*
X1686521Y2106024D1*
X1681024Y2111521D1*
X1676454Y2117811D1*
X1672924Y2124739D1*
X1670521Y2132133D1*
X1669305Y2139813D1*
Y2147587D1*
X1670521Y2155267D1*
X1672924Y2162661D1*
X1675392Y2167692D1*
X1662582Y2167680D1*
X1664912Y2162842D1*
X1667338Y2155377D1*
X1668566Y2147625D1*
Y2139775D1*
X1667338Y2132023D1*
X1664912Y2124558D1*
X1661349Y2117565D1*
X1656736Y2111215D1*
X1651185Y2105664D1*
X1644835Y2101051D1*
X1637842Y2097488D1*
X1630377Y2095062D1*
X1622625Y2093834D1*
X1617857Y2093687D1*
X1610875Y2094296D1*
X1603243Y2096128D1*
X1595991Y2099132D1*
X1589299Y2103233D1*
X1583331Y2108331D1*
X1578233Y2114299D1*
X1574132Y2120991D1*
X1571128Y2128243D1*
X1569296Y2135875D1*
X1568680Y2143700D1*
X1569296Y2151525D1*
X1571128Y2159157D1*
X1574132Y2166409D1*
X1574844Y2167680D1*
X1554468D1*
X1129349Y1742665D1*
X1126046Y1740265D1*
X1122408Y1738411D1*
X1118525Y1737150D1*
X1114492Y1736511D1*
X1079951Y1736431D1*
X1017109D1*
X1012626Y1730272D1*
X1007128Y1724774D1*
X1000838Y1720204D1*
X993910Y1716675D1*
X986516Y1714272D1*
X978837Y1713056D1*
X971062D1*
X963383Y1714272D1*
X955988Y1716675D1*
X949061Y1720204D1*
X942771Y1724774D1*
X937273Y1730272D1*
X932703Y1736562D1*
X929173Y1743490D1*
X926771Y1750884D1*
X925555Y1758563D1*
Y1766338D1*
X926771Y1774017D1*
X929173Y1781412D1*
X932703Y1788339D1*
X937273Y1794629D1*
X942771Y1800127D1*
X949061Y1804697D1*
X955988Y1808227D1*
X963383Y1810629D1*
X971062Y1811845D1*
X978837D1*
X986516Y1810629D1*
X993910Y1808227D1*
X1000838Y1804697D1*
X1007128Y1800127D1*
X1012626Y1794629D1*
X1017103Y1788478D1*
X1101674Y1788471D1*
X1526801Y2213486D1*
X1530105Y2215886D1*
X1533743Y2217739D1*
X1537626Y2219001D1*
X1541658Y2219640D1*
X1576200Y2219720D1*
X1739182D1*
X1833052Y2313486D1*
X1836355Y2315886D1*
X1839993Y2317739D1*
X1843876Y2319001D1*
X1847909Y2319640D1*
X1882451Y2319720D1*
X2076562D1*
X2081045Y2325861D1*
X2086539Y2331355D1*
X2092826Y2335923D1*
X2099750Y2339451D1*
X2107140Y2341852D1*
X2114815Y2343067D1*
X2122585D1*
X2130260Y2341852D1*
X2137650Y2339451D1*
X2144574Y2335923D1*
X2150861Y2331355D1*
X2156355Y2325861D1*
X2160923Y2319574D1*
X2164451Y2312650D1*
X2166852Y2305260D1*
X2168067Y2297585D1*
Y2289815D1*
X2166852Y2282140D1*
X2164451Y2274750D1*
X2161984Y2269721D1*
X2268374Y2269720D1*
X2182914Y2355188D1*
X1641987Y2355180D1*
X1439844Y2153046D1*
X1439846Y2146809D1*
X1438864Y2140607D1*
X1436923Y2134634D1*
X1434072Y2129039D1*
X1430381Y2123958D1*
X1425940Y2119518D1*
X1420860Y2115827D1*
X1415264Y2112976D1*
X1409292Y2111035D1*
X1403089Y2110053D1*
X1396809D1*
X1390607Y2111035D1*
X1384634Y2112976D1*
X1379039Y2115827D1*
X1373958Y2119518D1*
X1369518Y2123958D1*
X1365827Y2129039D1*
X1362976Y2134634D1*
X1361035Y2140607D1*
X1360053Y2146809D1*
Y2153089D1*
X1361035Y2159292D1*
X1362976Y2165264D1*
X1365827Y2170860D1*
X1369518Y2175940D1*
X1373958Y2180381D1*
X1379039Y2184072D1*
X1384634Y2186923D1*
X1390607Y2188864D1*
X1396809Y2189846D1*
X1403052Y2189847D1*
X1593388Y2380186D1*
X1510746Y2380180D1*
X1389852Y2259305D1*
X1389846Y2253060D1*
X1388864Y2246858D1*
X1386923Y2240885D1*
X1384072Y2235290D1*
X1380381Y2230209D1*
X1375940Y2225769D1*
X1370860Y2222077D1*
X1365264Y2219226D1*
X1359292Y2217286D1*
X1353089Y2216303D1*
X1346809D1*
X1340607Y2217286D1*
X1334634Y2219226D1*
X1329039Y2222077D1*
X1323958Y2225769D1*
X1319518Y2230209D1*
X1315827Y2235290D1*
X1312976Y2240885D1*
X1311035Y2246858D1*
X1310053Y2253060D1*
Y2259340D1*
X1311035Y2265542D1*
X1312976Y2271515D1*
X1315827Y2277110D1*
X1319518Y2282191D1*
X1323958Y2286631D1*
X1329039Y2290323D1*
X1334634Y2293174D1*
X1340607Y2295114D1*
X1346809Y2296097D1*
X1353052Y2296098D1*
X1483051Y2425986D1*
X1486354Y2428386D1*
X1489992Y2430239D1*
X1493875Y2431501D1*
X1497908Y2432140D1*
X1532449Y2432220D1*
X2239492Y2432140D1*
X2243525Y2431501D1*
X2247408Y2430239D1*
X2251046Y2428386D1*
X2254349Y2425986D1*
X2278831Y2401618D1*
X2410738Y2269711D1*
X2720742Y2269640D1*
X2724774Y2269001D1*
X2728657Y2267739D1*
X2732295Y2265886D1*
X2735599Y2263486D1*
X2760080Y2239118D1*
X2838486Y2160599D1*
X2840886Y2157295D1*
X2842739Y2153657D1*
X2844001Y2149774D1*
X2844640Y2145742D1*
X2844720Y2135854D1*
X2850861Y2131355D1*
X2856355Y2125861D1*
X2860923Y2119574D1*
X2864451Y2112650D1*
X2866852Y2105260D1*
X2868067Y2097585D1*
Y2089815D1*
X2866852Y2082140D1*
X2864451Y2074750D1*
X2860923Y2067826D1*
X2856355Y2061539D1*
X2850861Y2056045D1*
X2844574Y2051477D1*
X2837650Y2047949D1*
X2830260Y2045548D1*
X2822585Y2044333D1*
X2814815D1*
X2807140Y2045548D1*
X2799750Y2047949D1*
X2792826Y2051477D1*
X2786539Y2056045D1*
X2781045Y2061539D1*
X2776477Y2067826D1*
X2772949Y2074750D1*
X2770548Y2082140D1*
X2769333Y2089815D1*
Y2097585D1*
X2770548Y2105260D1*
X2772949Y2112650D1*
X2776477Y2119574D1*
X2781045Y2125861D1*
X2786539Y2131355D1*
X2790944Y2134665D1*
X2707928Y2217674D1*
X2625288Y2217680D1*
X2702461Y2140488D1*
X2707140Y2141852D1*
X2714815Y2143067D1*
X2722585D1*
X2730260Y2141852D1*
X2737650Y2139451D1*
X2744574Y2135923D1*
X2750861Y2131355D1*
X2756355Y2125861D1*
X2760923Y2119574D1*
X2764451Y2112650D1*
X2766852Y2105260D1*
X2768067Y2097585D1*
Y2089815D1*
X2766852Y2082140D1*
X2764451Y2074750D1*
X2760923Y2067826D1*
X2756355Y2061539D1*
X2750861Y2056045D1*
X2744574Y2051477D1*
X2737650Y2047949D1*
X2730260Y2045548D1*
X2722585Y2044333D1*
X2714815D1*
X2707140Y2045548D1*
X2699750Y2047949D1*
X2692826Y2051477D1*
X2686539Y2056045D1*
X2681045Y2061539D1*
X2676477Y2067826D1*
X2672949Y2074750D1*
X2670548Y2082140D1*
X2669333Y2089815D1*
Y2097585D1*
X2669592Y2099772D1*
X2582935Y2186418D1*
X2369018Y2186431D1*
X2372135Y2182295D1*
X2373989Y2178657D1*
X2375252Y2174766D1*
X2375888Y2173310D1*
X2407289Y2141909D1*
X2414815Y2143067D1*
X2422585D1*
X2430260Y2141852D1*
X2437650Y2139451D1*
X2444574Y2135923D1*
X2450861Y2131355D1*
X2456355Y2125861D1*
X2460923Y2119574D1*
X2464451Y2112650D1*
X2466852Y2105260D1*
X2468067Y2097585D1*
Y2089815D1*
X2466852Y2082140D1*
X2465328Y2077129D1*
X2470517Y2082315D1*
X2469333Y2089815D1*
Y2097585D1*
X2470548Y2105260D1*
X2472949Y2112650D1*
X2476477Y2119574D1*
X2481045Y2125861D1*
X2486539Y2131355D1*
X2492826Y2135923D1*
X2499750Y2139451D1*
X2507140Y2141852D1*
X2514815Y2143067D1*
X2522585D1*
X2530260Y2141852D1*
X2537650Y2139451D1*
X2544574Y2135923D1*
X2550861Y2131355D1*
X2556355Y2125861D1*
X2560923Y2119574D1*
X2564451Y2112650D1*
X2566852Y2105260D1*
X2568067Y2097585D1*
Y2089815D1*
X2566852Y2082140D1*
X2564451Y2074750D1*
X2560923Y2067826D1*
X2556355Y2061539D1*
X2550861Y2056045D1*
X2544574Y2051477D1*
X2537650Y2047949D1*
X2530260Y2045548D1*
X2522585Y2044333D1*
X2514815D1*
X2507304Y2045516D1*
X2438478Y1976680D1*
X2442826Y1979673D1*
X2449750Y1983201D1*
X2457140Y1985602D1*
X2464815Y1986818D1*
X2472585D1*
X2480260Y1985602D1*
X2487650Y1983201D1*
X2494574Y1979673D1*
X2500861Y1975106D1*
X2506355Y1969611D1*
X2510923Y1963325D1*
X2514451Y1956401D1*
X2516852Y1949011D1*
X2517619Y1945122D1*
X2519790Y1945197D1*
X2521604Y1952753D1*
X2524577Y1959932D1*
X2528637Y1966558D1*
X2533684Y1972467D1*
X2539593Y1977513D1*
X2546218Y1981573D1*
X2553397Y1984547D1*
X2560953Y1986361D1*
X2568700Y1986971D1*
X2576447Y1986361D1*
X2584003Y1984547D1*
X2591182Y1981573D1*
X2597807Y1977513D1*
X2603716Y1972467D1*
X2608763Y1966558D1*
X2612823Y1959932D1*
X2615796Y1952753D1*
X2617619Y1945122D1*
X2619790Y1945197D1*
X2621604Y1952753D1*
X2624577Y1959932D1*
X2628637Y1966558D1*
X2633684Y1972467D1*
X2639593Y1977513D1*
X2646218Y1981573D1*
X2653397Y1984547D1*
X2660953Y1986361D1*
X2668700Y1986971D1*
X2676447Y1986361D1*
X2684003Y1984547D1*
X2691182Y1981573D1*
X2697807Y1977513D1*
X2703716Y1972467D1*
X2708763Y1966558D1*
X2712823Y1959932D1*
X2715796Y1952753D1*
X2717610Y1945197D1*
X2718220Y1937451D1*
X2717610Y1929704D1*
X2715796Y1922148D1*
X2712823Y1914969D1*
X2708763Y1908344D1*
X2703716Y1902435D1*
X2697807Y1897388D1*
X2691182Y1893328D1*
X2684003Y1890354D1*
X2676447Y1888540D1*
X2674441Y1888303D1*
X2679030Y1883718D1*
X3014577Y1883785D1*
X3021206Y1887847D1*
X3028389Y1890823D1*
X3035949Y1892638D1*
X3043700Y1893248D1*
X3051451Y1892638D1*
X3059011Y1890823D1*
X3066194Y1887847D1*
X3072823Y1883785D1*
X3078735Y1878735D1*
X3083785Y1872823D1*
X3087847Y1866194D1*
X3090823Y1859011D1*
X3092638Y1851451D1*
X3093248Y1843700D1*
X3092638Y1835949D1*
X3090823Y1828389D1*
X3087847Y1821206D1*
X3083785Y1814577D1*
X3078735Y1808665D1*
X3072823Y1803615D1*
X3066194Y1799553D1*
X3059011Y1796577D1*
X3051451Y1794762D1*
X3043700Y1794152D1*
X3035949Y1794762D1*
X3028389Y1796577D1*
X3021206Y1799553D1*
X3014577Y1803615D1*
X2991700Y1803680D1*
X2659299Y1803805D1*
X2667058Y1795690D1*
X2679033Y1783715D1*
X3014577Y1783785D1*
X3021206Y1787847D1*
X3028389Y1790823D1*
X3035949Y1792638D1*
X3043700Y1793248D1*
X3051451Y1792638D1*
X3059011Y1790823D1*
X3066194Y1787847D1*
X3072823Y1783785D1*
X3078735Y1778735D1*
X3083785Y1772823D1*
X3087847Y1766194D1*
X3090823Y1759011D1*
X3092638Y1751451D1*
X3093248Y1743700D1*
X3092638Y1735949D1*
X3090823Y1728389D1*
X3087847Y1721206D1*
X3083785Y1714577D1*
X3078735Y1708665D1*
X3072823Y1703615D1*
X3066194Y1699553D1*
X3059011Y1696577D1*
X3051451Y1694762D1*
X3043700Y1694152D1*
X3035949Y1694762D1*
X3028389Y1696577D1*
X3021206Y1699553D1*
X3014577Y1703615D1*
X2991700Y1703680D1*
X2659311Y1703803D1*
X2653108Y1704786D1*
X2647136Y1706726D1*
X2641540Y1709577D1*
X2638918Y1711331D1*
X2666540Y1683706D1*
X3014577Y1683785D1*
X3021206Y1687847D1*
X3028389Y1690823D1*
X3035949Y1692638D1*
X3043700Y1693248D1*
X3051451Y1692638D1*
X3059011Y1690823D1*
X3066194Y1687847D1*
X3072823Y1683785D1*
X3078735Y1678735D1*
X3083785Y1672823D1*
X3087847Y1666194D1*
X3090823Y1659011D1*
X3092638Y1651451D1*
X3093248Y1643700D1*
X3092638Y1635949D1*
X3090823Y1628389D1*
X3087847Y1621206D1*
X3083785Y1614577D1*
X3078735Y1608665D1*
X3072823Y1603615D1*
X3066194Y1599553D1*
X3059011Y1596577D1*
X3051451Y1594762D1*
X3043700Y1594152D1*
X3035949Y1594762D1*
X3028389Y1596577D1*
X3021206Y1599553D1*
X3014577Y1603615D1*
X2991700Y1603680D1*
X2646809Y1603803D1*
X2640607Y1604786D1*
X2634634Y1606726D1*
X2629039Y1609577D1*
X2623958Y1613268D1*
X2612458Y1624594D1*
X2389956Y1847096D1*
X2389969Y1722772D1*
X2529042Y1583704D1*
X2994135Y1583720D1*
X2994153Y1593247D1*
X3093248D1*
Y1494152D1*
X2994153D1*
Y1503674D1*
X2509309Y1503803D1*
X2503107Y1504786D1*
X2497134Y1506726D1*
X2491539Y1509577D1*
X2486458Y1513268D1*
X2474958Y1524594D1*
X2319518Y1680209D1*
X2315827Y1685290D1*
X2312976Y1690885D1*
X2311035Y1696857D1*
X2310053Y1703060D1*
X2309929Y1719200D1*
Y1839628D1*
X2260953Y1888540D1*
X2253397Y1890354D1*
X2246218Y1893328D1*
X2239593Y1897388D1*
X2233684Y1902435D1*
X2228637Y1908344D1*
X2224577Y1914969D1*
X2221604Y1922148D1*
X2219790Y1929704D1*
X2219180Y1937451D1*
X2219790Y1945197D1*
X2221604Y1952753D1*
X2224577Y1959932D1*
X2225416Y1961430D1*
X2112003Y1961431D1*
X2114451Y1956401D1*
X2116852Y1949011D1*
X2118067Y1941336D1*
Y1933565D1*
X2116852Y1925890D1*
X2114451Y1918500D1*
X2110923Y1911577D1*
X2106355Y1905290D1*
X2100861Y1899795D1*
X2094574Y1895228D1*
X2087650Y1891700D1*
X2080260Y1889299D1*
X2072585Y1888083D1*
X2064815D1*
X2057140Y1889299D1*
X2049750Y1891700D1*
X2042826Y1895228D1*
X2036539Y1899795D1*
X2031045Y1905290D1*
X2026477Y1911577D1*
X2022949Y1918500D1*
X2020548Y1925890D1*
X2019333Y1933565D1*
Y1941336D1*
X2020548Y1949011D1*
X2022949Y1956401D1*
X2025416Y1961430D1*
X1955343Y1961431D1*
X1950940Y1957019D1*
X1945860Y1953328D1*
X1940264Y1950477D1*
X1934292Y1948536D1*
X1928089Y1947554D1*
X1921809D1*
X1915607Y1948536D1*
X1909634Y1950477D1*
X1904039Y1953328D1*
X1898958Y1957019D1*
X1894518Y1961460D1*
X1890827Y1966540D1*
X1887976Y1972136D1*
X1886035Y1978108D1*
X1885053Y1984311D1*
Y1990591D1*
X1886035Y1996793D1*
X1887976Y2002766D1*
X1890827Y2008361D1*
X1892930Y2011427D1*
X1861609Y2011431D1*
X1857191Y2007019D1*
X1852110Y2003328D1*
X1846515Y2000477D1*
X1840542Y1998536D1*
X1834340Y1997554D1*
X1828060D1*
X1821858Y1998536D1*
X1815885Y2000477D1*
X1810290Y2003328D1*
X1805209Y2007019D1*
X1800769Y2011460D1*
X1797077Y2016540D1*
X1794226Y2022136D1*
X1792286Y2028108D1*
X1791303Y2034311D1*
Y2040591D1*
X1792286Y2046793D1*
X1794226Y2052766D1*
X1797077Y2058361D1*
X1800769Y2063442D1*
X1805209Y2067882D1*
X1810290Y2071573D1*
X1815885Y2074424D1*
X1821858Y2076365D1*
X1828060Y2077347D1*
X1834340D1*
X1840542Y2076365D1*
X1846515Y2074424D1*
X1852110Y2071573D1*
X1857191Y2067882D1*
X1861606Y2063469D1*
X2069186Y2063471D1*
X2069180Y2117686D1*
X1760850Y2117680D1*
X750652Y2618248D2*
X843248D1*
Y2519152D1*
X744152D1*
Y2618248D1*
X750652D1*
X943095Y2564813D2*
X941879Y2557133D1*
X939476Y2549739D1*
X935946Y2542811D1*
X931376Y2536521D1*
X925879Y2531024D1*
X919589Y2526454D1*
X912661Y2522924D1*
X905267Y2520521D1*
X897587Y2519305D1*
X889813D1*
X882133Y2520521D1*
X874739Y2522924D1*
X867811Y2526454D1*
X861521Y2531024D1*
X856024Y2536521D1*
X851454Y2542811D1*
X847924Y2549739D1*
X845521Y2557133D1*
X844305Y2564813D1*
Y2572587D1*
X845521Y2580267D1*
X847924Y2587661D1*
X851454Y2594589D1*
X856024Y2600879D1*
X861521Y2606376D1*
X867811Y2610946D1*
X874739Y2614476D1*
X882133Y2616879D1*
X889813Y2618095D1*
X897587D1*
X905267Y2616879D1*
X912661Y2614476D1*
X919589Y2610946D1*
X925879Y2606376D1*
X931376Y2600879D1*
X935946Y2594589D1*
X939476Y2587661D1*
X941879Y2580267D1*
X943095Y2572587D1*
Y2564813D1*
X1043095D2*
X1041879Y2557133D1*
X1039476Y2549739D1*
X1035946Y2542811D1*
X1031376Y2536521D1*
X1025879Y2531024D1*
X1019589Y2526454D1*
X1012661Y2522924D1*
X1005267Y2520521D1*
X997587Y2519305D1*
X989813D1*
X982133Y2520521D1*
X974739Y2522924D1*
X967811Y2526454D1*
X961521Y2531024D1*
X956024Y2536521D1*
X951454Y2542811D1*
X947924Y2549739D1*
X945521Y2557133D1*
X944305Y2564813D1*
Y2572587D1*
X945521Y2580267D1*
X947924Y2587661D1*
X951454Y2594589D1*
X956024Y2600879D1*
X961521Y2606376D1*
X967811Y2610946D1*
X974739Y2614476D1*
X982133Y2616879D1*
X989813Y2618095D1*
X997587D1*
X1005267Y2616879D1*
X1012661Y2614476D1*
X1019589Y2610946D1*
X1025879Y2606376D1*
X1031376Y2600879D1*
X1035946Y2594589D1*
X1039476Y2587661D1*
X1041879Y2580267D1*
X1043095Y2572587D1*
Y2564813D1*
X1974033Y884311D2*
X1969355Y884493D1*
X1964724Y885041D1*
X1960151Y885951D1*
X1955662Y887217D1*
X1951287Y888831D1*
X1947052Y890783D1*
X1942984Y893062D1*
X1939106Y895652D1*
X1935444Y898539D1*
X1932020Y901705D1*
X1928854Y905129D1*
X1925967Y908791D1*
X1923377Y912669D1*
X1921098Y916737D1*
X1919146Y920972D1*
X1917532Y925347D1*
X1916266Y929836D1*
X1915356Y934409D1*
X1914808Y939040D1*
X1914625Y943700D1*
X1914808Y948360D1*
X1915356Y952991D1*
X1916266Y957564D1*
X1917532Y962053D1*
X1919146Y966428D1*
X1921098Y970663D1*
X1923377Y974731D1*
X1925967Y978609D1*
X1928854Y982271D1*
X1932020Y985695D1*
X1935444Y988861D1*
X1939106Y991748D1*
X1942984Y994338D1*
X1947052Y996617D1*
X1951287Y998569D1*
X1955662Y1000183D1*
X1960151Y1001449D1*
X1964724Y1002359D1*
X1969355Y1002907D1*
X1980515Y1003090D1*
X2018045Y1002907D1*
X2022676Y1002359D1*
X2027249Y1001449D1*
X2031738Y1000183D1*
X2036113Y998569D1*
X2040348Y996617D1*
X2044416Y994338D1*
X2048294Y991748D1*
X2051956Y988861D1*
X2055380Y985695D1*
X2058546Y982271D1*
X2061433Y978609D1*
X2064023Y974731D1*
X2066302Y970663D1*
X2068254Y966428D1*
X2069868Y962053D1*
X2071134Y957564D1*
X2072044Y952991D1*
X2072592Y948360D1*
X2072775Y943700D1*
X2072592Y939040D1*
X2072044Y934409D1*
X2071134Y929836D1*
X2069868Y925347D1*
X2068254Y920972D1*
X2066302Y916737D1*
X2064023Y912669D1*
X2061433Y908791D1*
X2058546Y905129D1*
X2055380Y901705D1*
X2051956Y898539D1*
X2048294Y895652D1*
X2044416Y893062D1*
X2040348Y890783D1*
X2036113Y888831D1*
X2031738Y887217D1*
X2027249Y885951D1*
X2022676Y885041D1*
X2018045Y884493D1*
X2006885Y884310D1*
X1974015Y884335D1*
X2119350Y845257D2*
X2119532Y849934D1*
X2120080Y854565D1*
X2120990Y859139D1*
X2122256Y863627D1*
X2123870Y868002D1*
X2125822Y872237D1*
X2128101Y876306D1*
X2130692Y880183D1*
X2133579Y883846D1*
X2136744Y887270D1*
X2140169Y890435D1*
X2143831Y893322D1*
X2147708Y895913D1*
X2151777Y898192D1*
X2156012Y900144D1*
X2160387Y901758D1*
X2164875Y903024D1*
X2169449Y903934D1*
X2174080Y904482D1*
X2178739Y904665D1*
X2183399Y904482D1*
X2188030Y903934D1*
X2192604Y903024D1*
X2197092Y901758D1*
X2201467Y900144D1*
X2205702Y898192D1*
X2209771Y895913D1*
X2213648Y893322D1*
X2217310Y890435D1*
X2220734Y887270D1*
X2223900Y883846D1*
X2226787Y880183D1*
X2229378Y876306D1*
X2231656Y872237D1*
X2233609Y868002D1*
X2235223Y863627D1*
X2236488Y859139D1*
X2237398Y854565D1*
X2237946Y849934D1*
X2238130Y838775D1*
X2237946Y801245D1*
X2237398Y796614D1*
X2236488Y792040D1*
X2235223Y787552D1*
X2233609Y783177D1*
X2231656Y778942D1*
X2229378Y774873D1*
X2226787Y770996D1*
X2223900Y767334D1*
X2220734Y763910D1*
X2217310Y760744D1*
X2213648Y757857D1*
X2209771Y755266D1*
X2205702Y752988D1*
X2201467Y751035D1*
X2197092Y749421D1*
X2192604Y748156D1*
X2188030Y747246D1*
X2183399Y746698D1*
X2178739Y746515D1*
X2174080Y746698D1*
X2169449Y747246D1*
X2164875Y748156D1*
X2160387Y749421D1*
X2156012Y751035D1*
X2151777Y752988D1*
X2147708Y755266D1*
X2143831Y757857D1*
X2140169Y760744D1*
X2136744Y763910D1*
X2133579Y767334D1*
X2130692Y770996D1*
X2128101Y774873D1*
X2125822Y778942D1*
X2123870Y783177D1*
X2122256Y787552D1*
X2120990Y792040D1*
X2120080Y796614D1*
X2119532Y801245D1*
X2119349Y812405D1*
Y845146D1*
X1031426Y505988D2*
X1030296Y498859D1*
X1028066Y491994D1*
X1024789Y485562D1*
X1020546Y479722D1*
X1015442Y474618D1*
X1009602Y470375D1*
X1003170Y467098D1*
X996305Y464867D1*
X989175Y463738D1*
X981957D1*
X974827Y464867D1*
X967962Y467098D1*
X961531Y470375D1*
X955691Y474618D1*
X950586Y479722D1*
X946344Y485562D1*
X943066Y491994D1*
X940836Y498859D1*
X939707Y505988D1*
Y513207D1*
X940836Y520336D1*
X943066Y527202D1*
X946344Y533633D1*
X950586Y539473D1*
X955691Y544577D1*
X961531Y548820D1*
X967962Y552097D1*
X974827Y554328D1*
X981957Y555457D1*
X989175D1*
X996305Y554328D1*
X1003170Y552097D1*
X1009602Y548820D1*
X1015442Y544577D1*
X1020546Y539473D1*
X1024789Y533633D1*
X1028066Y527202D1*
X1030296Y520336D1*
X1031426Y513207D1*
Y505988D1*
X1346386D2*
X1345257Y498859D1*
X1343026Y491994D1*
X1339749Y485562D1*
X1335506Y479722D1*
X1330402Y474618D1*
X1324562Y470375D1*
X1318131Y467098D1*
X1311266Y464867D1*
X1304136Y463738D1*
X1296918D1*
X1289788Y464867D1*
X1282923Y467098D1*
X1276491Y470375D1*
X1270651Y474618D1*
X1265547Y479722D1*
X1261304Y485562D1*
X1258027Y491994D1*
X1255796Y498859D1*
X1254667Y505988D1*
Y513207D1*
X1255796Y520336D1*
X1258027Y527202D1*
X1261304Y533633D1*
X1265547Y539473D1*
X1270651Y544577D1*
X1276491Y548820D1*
X1282923Y552097D1*
X1289788Y554328D1*
X1296918Y555457D1*
X1304136D1*
X1311266Y554328D1*
X1318131Y552097D1*
X1324562Y548820D1*
X1330402Y544577D1*
X1335506Y539473D1*
X1339749Y533633D1*
X1343026Y527202D1*
X1345257Y520336D1*
X1346386Y513207D1*
Y505988D1*
X831902Y1811998D2*
X924497D1*
Y1712903D1*
X825402D1*
Y1811998D1*
X831902D1*
Y1711998D2*
X924497D1*
Y1612903D1*
X825402D1*
Y1711998D1*
X831902D1*
X2418067Y1433565D2*
X2416852Y1425890D1*
X2414451Y1418500D1*
X2410923Y1411577D1*
X2406355Y1405290D1*
X2400861Y1399795D1*
X2394574Y1395228D1*
X2387650Y1391700D1*
X2380260Y1389299D1*
X2372585Y1388083D1*
X2364815D1*
X2357140Y1389299D1*
X2349750Y1391700D1*
X2342826Y1395228D1*
X2336539Y1399795D1*
X2331045Y1405290D1*
X2326477Y1411577D1*
X2322949Y1418500D1*
X2320548Y1425890D1*
X2319333Y1433565D1*
Y1441336D1*
X2320548Y1449011D1*
X2322949Y1456401D1*
X2326477Y1463325D1*
X2331045Y1469611D1*
X2336539Y1475106D1*
X2342826Y1479673D1*
X2349750Y1483201D1*
X2357140Y1485602D1*
X2364815Y1486818D1*
X2372585D1*
X2380260Y1485602D1*
X2387650Y1483201D1*
X2394574Y1479673D1*
X2400861Y1475106D1*
X2406355Y1469611D1*
X2410923Y1463325D1*
X2414451Y1456401D1*
X2416852Y1449011D1*
X2418067Y1441336D1*
Y1433565D1*
X2518067D2*
X2516852Y1425890D1*
X2514451Y1418500D1*
X2510923Y1411577D1*
X2506355Y1405290D1*
X2500861Y1399795D1*
X2494574Y1395228D1*
X2487650Y1391700D1*
X2480260Y1389299D1*
X2472585Y1388083D1*
X2464815D1*
X2457140Y1389299D1*
X2449750Y1391700D1*
X2442826Y1395228D1*
X2436539Y1399795D1*
X2431045Y1405290D1*
X2426477Y1411577D1*
X2422949Y1418500D1*
X2420548Y1425890D1*
X2419333Y1433565D1*
Y1441336D1*
X2420548Y1449011D1*
X2422949Y1456401D1*
X2426477Y1463325D1*
X2431045Y1469611D1*
X2436539Y1475106D1*
X2442826Y1479673D1*
X2449750Y1483201D1*
X2457140Y1485602D1*
X2464815Y1486818D1*
X2472585D1*
X2480260Y1485602D1*
X2487650Y1483201D1*
X2494574Y1479673D1*
X2500861Y1475106D1*
X2506355Y1469611D1*
X2510923Y1463325D1*
X2514451Y1456401D1*
X2516852Y1449011D1*
X2518067Y1441336D1*
Y1433565D1*
X2419688Y1930564D2*
X2419180Y1937451D1*
X2419790Y1945197D1*
X2421604Y1952753D1*
X2424577Y1959932D1*
X2428637Y1966558D1*
X2429869Y1968120D1*
X2426046Y1965265D1*
X2422408Y1963411D1*
X2418525Y1962149D1*
X2414492Y1961511D1*
X2412443Y1961431D1*
X2412823Y1959932D1*
X2415796Y1952753D1*
X2417610Y1945197D1*
X2418220Y1937451D1*
X2417919Y1932313D1*
X2118067Y1533565D2*
X2116852Y1525890D1*
X2114451Y1518500D1*
X2110923Y1511577D1*
X2106355Y1505290D1*
X2100861Y1499795D1*
X2094574Y1495228D1*
X2087650Y1491700D1*
X2080260Y1489299D1*
X2072585Y1488083D1*
X2064815D1*
X2057140Y1489299D1*
X2049750Y1491700D1*
X2042826Y1495228D1*
X2036539Y1499795D1*
X2031045Y1505290D1*
X2026477Y1511577D1*
X2022949Y1518500D1*
X2020548Y1525890D1*
X2019333Y1533565D1*
Y1541336D1*
X2020548Y1549011D1*
X2022949Y1556401D1*
X2026477Y1563325D1*
X2031045Y1569611D1*
X2036539Y1575106D1*
X2042826Y1579673D1*
X2049750Y1583201D1*
X2057140Y1585602D1*
X2064815Y1586818D1*
X2072585D1*
X2080260Y1585602D1*
X2087650Y1583201D1*
X2094574Y1579673D1*
X2100861Y1575106D1*
X2106355Y1569611D1*
X2110923Y1563325D1*
X2114451Y1556401D1*
X2116852Y1549011D1*
X2118067Y1541336D1*
Y1533565D1*
X2168067Y2589815D2*
X2166852Y2582140D1*
X2164451Y2574750D1*
X2160923Y2567826D1*
X2156355Y2561539D1*
X2150861Y2556045D1*
X2144574Y2551477D1*
X2137650Y2547949D1*
X2130260Y2545548D1*
X2122585Y2544333D1*
X2114815D1*
X2107140Y2545548D1*
X2099750Y2547949D1*
X2092826Y2551477D1*
X2086539Y2556045D1*
X2081045Y2561539D1*
X2076477Y2567826D1*
X2072949Y2574750D1*
X2070548Y2582140D1*
X2069333Y2589815D1*
Y2597585D1*
X2070548Y2605260D1*
X2072949Y2612650D1*
X2076477Y2619574D1*
X2081045Y2625861D1*
X2086539Y2631355D1*
X2092826Y2635923D1*
X2099750Y2639451D1*
X2107140Y2641852D1*
X2114815Y2643067D1*
X2122585D1*
X2130260Y2641852D1*
X2137650Y2639451D1*
X2144574Y2635923D1*
X2150861Y2631355D1*
X2156355Y2625861D1*
X2160923Y2619574D1*
X2164451Y2612650D1*
X2166852Y2605260D1*
X2168067Y2597585D1*
Y2589815D1*
X768566Y539775D2*
X767338Y532023D1*
X764912Y524558D1*
X761349Y517565D1*
X756736Y511215D1*
X751185Y505664D1*
X744835Y501051D1*
X737842Y497488D1*
X730377Y495062D1*
X722625Y493834D1*
X714775D1*
X707023Y495062D1*
X699558Y497488D1*
X692565Y501051D1*
X686215Y505664D1*
X680664Y511215D1*
X676051Y517565D1*
X672488Y524558D1*
X670062Y532023D1*
X668834Y539775D1*
Y547625D1*
X670062Y555377D1*
X672488Y562842D1*
X676051Y569835D1*
X680664Y576185D1*
X686215Y581736D1*
X692565Y586349D1*
X699558Y589912D1*
X707023Y592338D1*
X714775Y593566D1*
X719543Y593713D1*
X726525Y593104D1*
X734157Y591272D1*
X741409Y588268D1*
X748101Y584167D1*
X754069Y579069D1*
X759167Y573101D1*
X763268Y566409D1*
X766272Y559157D1*
X768104Y551525D1*
X768720Y543700D1*
X768566Y539775D1*
Y639775D2*
X767338Y632023D1*
X764912Y624558D1*
X761349Y617565D1*
X756736Y611215D1*
X751185Y605664D1*
X744835Y601051D1*
X737842Y597488D1*
X730377Y595062D1*
X722625Y593834D1*
X714775D1*
X707023Y595062D1*
X699558Y597488D1*
X692565Y601051D1*
X686215Y605664D1*
X680664Y611215D1*
X676051Y617565D1*
X672488Y624558D1*
X670062Y632023D1*
X668834Y639775D1*
Y647625D1*
X670062Y655377D1*
X672488Y662842D1*
X676051Y669835D1*
X680664Y676185D1*
X686215Y681736D1*
X692565Y686349D1*
X699558Y689912D1*
X707023Y692338D1*
X714775Y693566D1*
X719543Y693713D1*
X726525Y693104D1*
X734157Y691272D1*
X741409Y688268D1*
X748101Y684167D1*
X754069Y679069D1*
X759167Y673101D1*
X763268Y666409D1*
X766272Y659157D1*
X768104Y651525D1*
X768720Y643700D1*
X768566Y639775D1*
Y739775D2*
X767338Y732023D1*
X764912Y724558D1*
X761349Y717565D1*
X756736Y711215D1*
X751185Y705664D1*
X744835Y701051D1*
X737842Y697488D1*
X730377Y695062D1*
X722625Y693834D1*
X714775D1*
X707023Y695062D1*
X699558Y697488D1*
X692565Y701051D1*
X686215Y705664D1*
X680664Y711215D1*
X676051Y717565D1*
X672488Y724558D1*
X670062Y732023D1*
X668834Y739775D1*
Y747625D1*
X670062Y755377D1*
X672488Y762842D1*
X676051Y769835D1*
X680664Y776185D1*
X686215Y781736D1*
X692565Y786349D1*
X699558Y789912D1*
X707023Y792338D1*
X714775Y793566D1*
X719543Y793713D1*
X726525Y793104D1*
X734157Y791272D1*
X741409Y788268D1*
X748101Y784167D1*
X754069Y779069D1*
X759167Y773101D1*
X763268Y766409D1*
X766272Y759157D1*
X768104Y751525D1*
X768720Y743700D1*
X768566Y739775D1*
Y839775D2*
X767338Y832023D1*
X764912Y824558D1*
X761349Y817565D1*
X756736Y811215D1*
X751185Y805664D1*
X744835Y801051D1*
X737842Y797488D1*
X730377Y795062D1*
X722625Y793834D1*
X714775D1*
X707023Y795062D1*
X699558Y797488D1*
X692565Y801051D1*
X686215Y805664D1*
X680664Y811215D1*
X676051Y817565D1*
X672488Y824558D1*
X670062Y832023D1*
X668834Y839775D1*
Y847625D1*
X670062Y855377D1*
X672488Y862842D1*
X676051Y869835D1*
X680664Y876185D1*
X686215Y881736D1*
X692565Y886349D1*
X699558Y889912D1*
X707023Y892338D1*
X714775Y893566D1*
X719543Y893713D1*
X726525Y893104D1*
X734157Y891272D1*
X741409Y888268D1*
X748101Y884167D1*
X754069Y879069D1*
X759167Y873101D1*
X763268Y866409D1*
X766272Y859157D1*
X768104Y851525D1*
X768720Y843700D1*
X768566Y839775D1*
Y939775D2*
X767338Y932023D1*
X764912Y924558D1*
X761349Y917565D1*
X756736Y911215D1*
X751185Y905664D1*
X744835Y901051D1*
X737842Y897488D1*
X730377Y895062D1*
X722625Y893834D1*
X714775D1*
X707023Y895062D1*
X699558Y897488D1*
X692565Y901051D1*
X686215Y905664D1*
X680664Y911215D1*
X676051Y917565D1*
X672488Y924558D1*
X670062Y932023D1*
X668834Y939775D1*
Y947625D1*
X670062Y955377D1*
X672488Y962842D1*
X676051Y969835D1*
X680664Y976185D1*
X686215Y981736D1*
X692565Y986349D1*
X699558Y989912D1*
X707023Y992338D1*
X714775Y993566D1*
X719543Y993713D1*
X726525Y993104D1*
X734157Y991272D1*
X741409Y988268D1*
X748101Y984167D1*
X754069Y979069D1*
X759167Y973101D1*
X763268Y966409D1*
X766272Y959157D1*
X768104Y951525D1*
X768720Y943700D1*
X768566Y939775D1*
X717857Y1293713D2*
X710875Y1294296D1*
X703243Y1296128D1*
X695991Y1299132D1*
X689299Y1303233D1*
X683331Y1308331D1*
X678233Y1314299D1*
X674132Y1320991D1*
X671128Y1328243D1*
X669296Y1335875D1*
X668680Y1343700D1*
X669296Y1351525D1*
X671128Y1359157D1*
X674132Y1366409D1*
X678233Y1373101D1*
X683331Y1379069D1*
X689299Y1384167D1*
X695991Y1388268D1*
X703243Y1391272D1*
X710875Y1393104D1*
X717857Y1393687D1*
X722625Y1393566D1*
X730377Y1392338D1*
X737842Y1389912D1*
X744835Y1386349D1*
X751185Y1381736D1*
X756736Y1376185D1*
X761349Y1369835D1*
X763701Y1369720D1*
X789491Y1369640D1*
X793524Y1369001D1*
X797407Y1367739D1*
X801045Y1365886D1*
X804348Y1363486D1*
X828829Y1339118D1*
X873229Y1294718D1*
X893401Y1294720D1*
X770438Y1417664D1*
X761349Y1417565D1*
X756736Y1411215D1*
X751185Y1405664D1*
X744835Y1401051D1*
X737842Y1397488D1*
X730377Y1395062D1*
X722625Y1393834D1*
X714775D1*
X707023Y1395062D1*
X699558Y1397488D1*
X692565Y1401051D1*
X686215Y1405664D1*
X680664Y1411215D1*
X676051Y1417565D1*
X672488Y1424558D1*
X670062Y1432023D1*
X668834Y1439775D1*
Y1447625D1*
X670062Y1455377D1*
X672488Y1462842D1*
X676051Y1469835D1*
X680664Y1476185D1*
X686215Y1481736D1*
X692565Y1486349D1*
X699558Y1489912D1*
X707023Y1492338D1*
X714775Y1493566D1*
X719543Y1493713D1*
X726525Y1493104D1*
X734157Y1491272D1*
X741409Y1488268D1*
X748101Y1484167D1*
X754069Y1479069D1*
X759167Y1473101D1*
X761417Y1469715D1*
X783242Y1469640D1*
X787274Y1469001D1*
X791157Y1467739D1*
X794795Y1465886D1*
X798099Y1463486D1*
X822580Y1439118D1*
X860624Y1401074D1*
X861889Y1406067D1*
X864293Y1411869D1*
X867574Y1417223D1*
X871652Y1421998D1*
X876427Y1426077D1*
X881782Y1429358D1*
X887584Y1431761D1*
X893690Y1433227D1*
X899951Y1433720D1*
X906211Y1433227D1*
X912318Y1431761D1*
X918119Y1429358D1*
X923474Y1426077D1*
X928249Y1421998D1*
X930357Y1419718D1*
X1061664Y1419720D1*
X1059577Y1422790D1*
X1056726Y1428385D1*
X1054786Y1434358D1*
X1053803Y1440560D1*
Y1446840D1*
X1054786Y1453042D1*
X1056726Y1459015D1*
X1059577Y1464610D1*
X1063269Y1469691D1*
X1067709Y1474131D1*
X1072790Y1477823D1*
X1078385Y1480674D1*
X1084358Y1482614D1*
X1090560Y1483597D1*
X1096840D1*
X1103042Y1482614D1*
X1109015Y1480674D1*
X1114610Y1477823D1*
X1119691Y1474131D1*
X1124106Y1469718D1*
X1576051Y1469835D1*
X1580664Y1476185D1*
X1586215Y1481736D1*
X1592565Y1486349D1*
X1599558Y1489912D1*
X1607023Y1492338D1*
X1614775Y1493566D1*
X1622625D1*
X1630377Y1492338D1*
X1637842Y1489912D1*
X1644835Y1486349D1*
X1651185Y1481736D1*
X1656736Y1476185D1*
X1661349Y1469835D1*
X1664912Y1462842D1*
X1667338Y1455377D1*
X1668566Y1447625D1*
Y1439775D1*
X1667338Y1432023D1*
X1664912Y1424558D1*
X1662556Y1419720D1*
X1675392Y1419708D1*
X1672924Y1424739D1*
X1670521Y1432133D1*
X1669305Y1439813D1*
Y1447587D1*
X1670521Y1455267D1*
X1672924Y1462661D1*
X1676454Y1469589D1*
X1681024Y1475879D1*
X1686521Y1481376D1*
X1692811Y1485946D1*
X1699739Y1489476D1*
X1707133Y1491879D1*
X1714813Y1493095D1*
X1722587D1*
X1730267Y1491879D1*
X1737661Y1489476D1*
X1744589Y1485946D1*
X1750879Y1481376D1*
X1756376Y1475879D1*
X1760853Y1469728D1*
X1800788Y1469720D1*
X1805209Y1474131D1*
X1810290Y1477823D1*
X1815885Y1480674D1*
X1821858Y1482614D1*
X1828060Y1483597D1*
X1834340D1*
X1840542Y1482614D1*
X1846515Y1480674D1*
X1852110Y1477823D1*
X1857191Y1474131D1*
X1861631Y1469691D1*
X1865323Y1464610D1*
X1868174Y1459015D1*
X1869704Y1454496D1*
X1910736Y1413462D1*
X2019160Y1413469D1*
X2019180Y1486970D1*
X2118220D1*
Y1413465D1*
X2125394Y1413469D1*
X2122949Y1418500D1*
X2120548Y1425890D1*
X2119333Y1433565D1*
Y1441336D1*
X2120548Y1449011D1*
X2122949Y1456401D1*
X2126477Y1463325D1*
X2131045Y1469611D1*
X2136539Y1475106D1*
X2142826Y1479673D1*
X2149750Y1483201D1*
X2157140Y1485602D1*
X2164815Y1486818D1*
X2172585D1*
X2180260Y1485602D1*
X2187650Y1483201D1*
X2194574Y1479673D1*
X2200861Y1475106D1*
X2206355Y1469611D1*
X2210923Y1463325D1*
X2214451Y1456401D1*
X2216852Y1449011D1*
X2218067Y1441336D1*
Y1433565D1*
X2216852Y1425890D1*
X2214451Y1418500D1*
X2211984Y1413472D1*
X2225382Y1413469D1*
X2222949Y1418500D1*
X2220548Y1425890D1*
X2219333Y1433565D1*
Y1441336D1*
X2220548Y1449011D1*
X2222949Y1456401D1*
X2226477Y1463325D1*
X2231045Y1469611D1*
X2236539Y1475106D1*
X2242826Y1479673D1*
X2249750Y1483201D1*
X2257140Y1485602D1*
X2264815Y1486818D1*
X2272585D1*
X2280260Y1485602D1*
X2287650Y1483201D1*
X2294574Y1479673D1*
X2300861Y1475106D1*
X2306355Y1469611D1*
X2310923Y1463325D1*
X2314451Y1456401D1*
X2316852Y1449011D1*
X2318067Y1441336D1*
Y1433565D1*
X2316852Y1425890D1*
X2314451Y1418500D1*
X2310923Y1411577D1*
X2306355Y1405290D1*
X2300861Y1399795D1*
X2294574Y1395228D1*
X2287650Y1391700D1*
X2280260Y1389299D1*
X2275195Y1388392D1*
X2269019Y1382220D1*
X2632940D1*
X2642662Y1391960D1*
X2642680Y1395343D1*
X2636539Y1399795D1*
X2631045Y1405290D1*
X2626477Y1411577D1*
X2622949Y1418500D1*
X2620548Y1425890D1*
X2619333Y1433565D1*
Y1441336D1*
X2620548Y1449011D1*
X2622949Y1456401D1*
X2626477Y1463325D1*
X2631045Y1469611D1*
X2636539Y1475106D1*
X2642826Y1479673D1*
X2649750Y1483201D1*
X2657140Y1485602D1*
X2664815Y1486818D1*
X2672585D1*
X2680260Y1485602D1*
X2687650Y1483201D1*
X2694574Y1479673D1*
X2700861Y1475106D1*
X2706355Y1469611D1*
X2710923Y1463325D1*
X2714451Y1456401D1*
X2716852Y1449011D1*
X2718067Y1441336D1*
Y1433565D1*
X2716852Y1425890D1*
X2714451Y1418500D1*
X2710923Y1411577D1*
X2706355Y1405290D1*
X2700861Y1399795D1*
X2694713Y1395321D1*
X2694640Y1379158D1*
X2694001Y1375126D1*
X2692739Y1371243D1*
X2690886Y1367605D1*
X2688486Y1364301D1*
X2675267Y1350969D1*
X2720432D1*
X2742694Y1373242D1*
X2742680Y1395330D1*
X2736539Y1399795D1*
X2731045Y1405290D1*
X2726477Y1411577D1*
X2722949Y1418500D1*
X2720548Y1425890D1*
X2719333Y1433565D1*
Y1441336D1*
X2720548Y1449011D1*
X2722949Y1456401D1*
X2726477Y1463325D1*
X2731045Y1469611D1*
X2736539Y1475106D1*
X2742826Y1479673D1*
X2749750Y1483201D1*
X2757140Y1485602D1*
X2764815Y1486818D1*
X2772585D1*
X2780260Y1485602D1*
X2787650Y1483201D1*
X2794574Y1479673D1*
X2800861Y1475106D1*
X2806355Y1469611D1*
X2810923Y1463325D1*
X2814451Y1456401D1*
X2816852Y1449011D1*
X2818067Y1441336D1*
Y1433565D1*
X2816852Y1425890D1*
X2814451Y1418500D1*
X2810923Y1411577D1*
X2806355Y1405290D1*
X2800861Y1399795D1*
X2794713Y1395321D1*
X2794640Y1360408D1*
X2794001Y1356375D1*
X2792739Y1352492D1*
X2790886Y1348854D1*
X2788486Y1345551D1*
X2764118Y1321069D1*
X2748099Y1305164D1*
X2744795Y1302764D1*
X2741157Y1300910D1*
X2737274Y1299648D1*
X2733242Y1299009D1*
X2698700Y1298929D1*
X1804468D1*
X1785599Y1280164D1*
X1782295Y1277764D1*
X1778657Y1275910D1*
X1774774Y1274648D1*
X1770742Y1274009D1*
X1757910Y1273933D1*
X1760946Y1269589D1*
X1764476Y1262661D1*
X1766879Y1255267D1*
X1768095Y1247587D1*
Y1239813D1*
X1766879Y1232133D1*
X1764476Y1224739D1*
X1762008Y1219708D1*
X2038315Y1219720D1*
X2042709Y1224131D1*
X2047790Y1227823D1*
X2053385Y1230674D1*
X2059358Y1232614D1*
X2065560Y1233597D1*
X2071840D1*
X2078042Y1232614D1*
X2084015Y1230674D1*
X2089610Y1227823D1*
X2094691Y1224131D1*
X2099131Y1219691D1*
X2102823Y1214610D1*
X2105674Y1209015D1*
X2107614Y1203042D1*
X2108597Y1196840D1*
Y1190560D1*
X2107614Y1184358D1*
X2105674Y1178385D1*
X2102823Y1172790D1*
X2100720Y1169724D1*
X2219530Y1169720D1*
X2223958Y1174131D1*
X2229039Y1177823D1*
X2234634Y1180674D1*
X2240607Y1182614D1*
X2246809Y1183597D1*
X2253089D1*
X2259292Y1182614D1*
X2265264Y1180674D1*
X2270860Y1177823D1*
X2275940Y1174131D1*
X2280381Y1169691D1*
X2284072Y1164610D1*
X2286923Y1159015D1*
X2288864Y1153042D1*
X2289846Y1146840D1*
Y1140560D1*
X2288864Y1134358D1*
X2286923Y1128385D1*
X2284072Y1122790D1*
X2280381Y1117709D1*
X2275940Y1113269D1*
X2270860Y1109577D1*
X2265264Y1106726D1*
X2259292Y1104786D1*
X2253089Y1103803D1*
X2246809D1*
X2240607Y1104786D1*
X2234634Y1106726D1*
X2229039Y1109577D1*
X2223958Y1113269D1*
X2219543Y1117682D1*
X1760853Y1117672D1*
X1756376Y1111521D1*
X1750879Y1106024D1*
X1744589Y1101454D1*
X1737661Y1097924D1*
X1730267Y1095521D1*
X1722587Y1094305D1*
X1714813D1*
X1707133Y1095521D1*
X1699739Y1097924D1*
X1692811Y1101454D1*
X1686521Y1106024D1*
X1681024Y1111521D1*
X1676454Y1117811D1*
X1672924Y1124739D1*
X1670521Y1132133D1*
X1669305Y1139813D1*
Y1147587D1*
X1670521Y1155267D1*
X1672924Y1162661D1*
X1675392Y1167692D1*
X1662577Y1167680D1*
X1664912Y1162842D1*
X1667338Y1155377D1*
X1668566Y1147625D1*
Y1139775D1*
X1667338Y1132023D1*
X1664912Y1124558D1*
X1661349Y1117565D1*
X1656736Y1111215D1*
X1651185Y1105664D1*
X1644835Y1101051D1*
X1637842Y1097488D1*
X1630377Y1095062D1*
X1622625Y1093834D1*
X1617857Y1093687D1*
X1610875Y1094296D1*
X1603243Y1096128D1*
X1595991Y1099132D1*
X1589299Y1103233D1*
X1583331Y1108331D1*
X1578233Y1114299D1*
X1574132Y1120991D1*
X1571128Y1128243D1*
X1569296Y1135875D1*
X1568680Y1143700D1*
X1569296Y1151525D1*
X1571128Y1159157D1*
X1574132Y1166409D1*
X1574700Y1167680D1*
X931987D1*
X934073Y1164610D1*
X936924Y1159015D1*
X938865Y1153042D1*
X939847Y1146840D1*
Y1140560D1*
X938865Y1134358D1*
X937082Y1128811D1*
X939992Y1130239D1*
X943875Y1131501D1*
X947908Y1132140D1*
X982449Y1132220D1*
X1369529D1*
X1373958Y1136631D1*
X1379039Y1140323D1*
X1384634Y1143174D1*
X1390607Y1145114D1*
X1396809Y1146097D1*
X1403089D1*
X1409292Y1145114D1*
X1415264Y1143174D1*
X1420860Y1140323D1*
X1425940Y1136631D1*
X1430381Y1132191D1*
X1434072Y1127110D1*
X1436923Y1121515D1*
X1438864Y1115542D1*
X1439846Y1109340D1*
Y1103060D1*
X1438864Y1096858D1*
X1436923Y1090885D1*
X1434072Y1085290D1*
X1430381Y1080209D1*
X1425940Y1075769D1*
X1420860Y1072077D1*
X1416346Y1069725D1*
X1576051Y1069835D1*
X1580664Y1076185D1*
X1586215Y1081736D1*
X1592565Y1086349D1*
X1599558Y1089912D1*
X1607023Y1092338D1*
X1614775Y1093566D1*
X1622625D1*
X1630377Y1092338D1*
X1637842Y1089912D1*
X1644835Y1086349D1*
X1651185Y1081736D1*
X1656736Y1076185D1*
X1661349Y1069835D1*
X1664912Y1062842D1*
X1667338Y1055377D1*
X1668566Y1047625D1*
Y1039775D1*
X1667338Y1032023D1*
X1664912Y1024558D1*
X1661349Y1017565D1*
X1656736Y1011215D1*
X1651185Y1005664D1*
X1644835Y1001051D1*
X1637842Y997488D1*
X1630377Y995062D1*
X1622625Y993834D1*
X1614775D1*
X1607023Y995062D1*
X1599558Y997488D1*
X1592565Y1001051D1*
X1586215Y1005664D1*
X1580664Y1011215D1*
X1576051Y1017565D1*
X1573200Y1017680D1*
X1299096D1*
X1294691Y1013269D1*
X1289610Y1009577D1*
X1284015Y1006726D1*
X1278042Y1004786D1*
X1271840Y1003803D1*
X1265560D1*
X1259358Y1004786D1*
X1253385Y1006726D1*
X1247790Y1009577D1*
X1242709Y1013269D1*
X1238269Y1017709D1*
X1234577Y1022790D1*
X1231726Y1028385D1*
X1229786Y1034358D1*
X1228803Y1040560D1*
Y1046840D1*
X1229786Y1053042D1*
X1231726Y1059015D1*
X1234577Y1064610D1*
X1238269Y1069691D1*
X1242709Y1074131D1*
X1247790Y1077823D1*
X1252304Y1080175D1*
X960717Y1080180D1*
X904348Y1023914D1*
X901045Y1021514D1*
X897407Y1019661D1*
X893524Y1018399D1*
X889491Y1017760D1*
X854949Y1017680D1*
X761349Y1017565D1*
X756736Y1011215D1*
X751185Y1005664D1*
X744835Y1001051D1*
X737842Y997488D1*
X730377Y995062D1*
X722625Y993834D1*
X714775D1*
X707023Y995062D1*
X699558Y997488D1*
X692565Y1001051D1*
X686215Y1005664D1*
X680664Y1011215D1*
X676051Y1017565D1*
X672488Y1024558D1*
X670062Y1032023D1*
X668834Y1039775D1*
Y1047625D1*
X670062Y1055377D1*
X672488Y1062842D1*
X676051Y1069835D1*
X680664Y1076185D1*
X686215Y1081736D1*
X692565Y1086349D1*
X699558Y1089912D1*
X707023Y1092338D1*
X714775Y1093566D1*
X719543Y1093713D1*
X726525Y1093104D1*
X734157Y1091272D1*
X741409Y1088268D1*
X748101Y1084167D1*
X754069Y1079069D1*
X759167Y1073101D1*
X761417Y1069715D1*
X876655Y1069720D1*
X912732Y1105781D1*
X909293Y1104786D1*
X903091Y1103803D1*
X896811D1*
X890608Y1104786D1*
X884636Y1106726D1*
X879040Y1109577D1*
X873960Y1113269D1*
X869544Y1117682D1*
X761349Y1117565D1*
X756736Y1111215D1*
X751185Y1105664D1*
X744835Y1101051D1*
X737842Y1097488D1*
X730377Y1095062D1*
X722625Y1093834D1*
X714775D1*
X707023Y1095062D1*
X699558Y1097488D1*
X692565Y1101051D1*
X686215Y1105664D1*
X680664Y1111215D1*
X676051Y1117565D1*
X672488Y1124558D1*
X670062Y1132023D1*
X668834Y1139775D1*
Y1147625D1*
X670062Y1155377D1*
X672488Y1162842D1*
X676051Y1169835D1*
X680664Y1176185D1*
X686215Y1181736D1*
X692565Y1186349D1*
X699558Y1189912D1*
X707023Y1192338D1*
X714775Y1193566D1*
X719543Y1193713D1*
X726525Y1193104D1*
X734157Y1191272D1*
X741409Y1188268D1*
X741180Y1193700D1*
X741585Y1199217D1*
X737842Y1197488D1*
X730377Y1195062D1*
X722625Y1193834D1*
X714775D1*
X707023Y1195062D1*
X699558Y1197488D1*
X692565Y1201051D1*
X686215Y1205664D1*
X680664Y1211215D1*
X676051Y1217565D1*
X672488Y1224558D1*
X670062Y1232023D1*
X668834Y1239775D1*
Y1247625D1*
X670062Y1255377D1*
X672488Y1262842D1*
X676051Y1269835D1*
X680664Y1276185D1*
X686215Y1281736D1*
X692565Y1286349D1*
X699558Y1289912D1*
X707023Y1292338D1*
X714775Y1293566D1*
X719543Y1293713D1*
X726525Y1293104D1*
X734157Y1291272D1*
X741409Y1288268D1*
X748101Y1284167D1*
X754069Y1279069D1*
X759167Y1273101D1*
X761417Y1269715D1*
X808242Y1269640D1*
X812274Y1269001D1*
X816157Y1267739D1*
X819795Y1265886D1*
X823099Y1263486D1*
X829464Y1257233D1*
X837108Y1257220D1*
X776669Y1317682D1*
X761349Y1317565D1*
X756736Y1311215D1*
X751185Y1305664D1*
X744835Y1301051D1*
X737842Y1297488D1*
X730377Y1295062D1*
X722625Y1293834D1*
X768566Y1539775D2*
X767338Y1532023D1*
X764912Y1524558D1*
X761349Y1517565D1*
X756736Y1511215D1*
X751185Y1505664D1*
X744835Y1501051D1*
X737842Y1497488D1*
X730377Y1495062D1*
X722625Y1493834D1*
X714775D1*
X707023Y1495062D1*
X699558Y1497488D1*
X692565Y1501051D1*
X686215Y1505664D1*
X680664Y1511215D1*
X676051Y1517565D1*
X672488Y1524558D1*
X670062Y1532023D1*
X668834Y1539775D1*
Y1547625D1*
X670062Y1555377D1*
X672488Y1562842D1*
X676051Y1569835D1*
X680664Y1576185D1*
X686215Y1581736D1*
X692565Y1586349D1*
X699558Y1589912D1*
X707023Y1592338D1*
X714775Y1593566D1*
X719543Y1593713D1*
X726525Y1593104D1*
X734157Y1591272D1*
X741409Y1588268D1*
X748101Y1584167D1*
X754069Y1579069D1*
X759167Y1573101D1*
X763268Y1566409D1*
X766272Y1559157D1*
X768104Y1551525D1*
X768720Y1543700D1*
X768566Y1539775D1*
Y1639775D2*
X767338Y1632023D1*
X764912Y1624558D1*
X761349Y1617565D1*
X756736Y1611215D1*
X751185Y1605664D1*
X744835Y1601051D1*
X737842Y1597488D1*
X730377Y1595062D1*
X722625Y1593834D1*
X714775D1*
X707023Y1595062D1*
X699558Y1597488D1*
X692565Y1601051D1*
X686215Y1605664D1*
X680664Y1611215D1*
X676051Y1617565D1*
X672488Y1624558D1*
X670062Y1632023D1*
X668834Y1639775D1*
Y1647625D1*
X670062Y1655377D1*
X672488Y1662842D1*
X676051Y1669835D1*
X680664Y1676185D1*
X686215Y1681736D1*
X692565Y1686349D1*
X699558Y1689912D1*
X707023Y1692338D1*
X714775Y1693566D1*
X719543Y1693713D1*
X726525Y1693104D1*
X734157Y1691272D1*
X741409Y1688268D1*
X748101Y1684167D1*
X754069Y1679069D1*
X759167Y1673101D1*
X763268Y1666409D1*
X766272Y1659157D1*
X768104Y1651525D1*
X768720Y1643700D1*
X768566Y1639775D1*
Y1739775D2*
X767338Y1732023D1*
X764912Y1724558D1*
X761349Y1717565D1*
X756736Y1711215D1*
X751185Y1705664D1*
X744835Y1701051D1*
X737842Y1697488D1*
X730377Y1695062D1*
X722625Y1693834D1*
X714775D1*
X707023Y1695062D1*
X699558Y1697488D1*
X692565Y1701051D1*
X686215Y1705664D1*
X680664Y1711215D1*
X676051Y1717565D1*
X672488Y1724558D1*
X670062Y1732023D1*
X668834Y1739775D1*
Y1747625D1*
X670062Y1755377D1*
X672488Y1762842D1*
X676051Y1769835D1*
X680664Y1776185D1*
X686215Y1781736D1*
X692565Y1786349D1*
X699558Y1789912D1*
X707023Y1792338D1*
X714775Y1793566D1*
X719543Y1793713D1*
X726525Y1793104D1*
X734157Y1791272D1*
X741409Y1788268D1*
X748101Y1784167D1*
X754069Y1779069D1*
X759167Y1773101D1*
X763268Y1766409D1*
X766272Y1759157D1*
X768104Y1751525D1*
X768720Y1743700D1*
X768566Y1739775D1*
Y1839775D2*
X767338Y1832023D1*
X764912Y1824558D1*
X761349Y1817565D1*
X756736Y1811215D1*
X751185Y1805664D1*
X744835Y1801051D1*
X737842Y1797488D1*
X730377Y1795062D1*
X722625Y1793834D1*
X714775D1*
X707023Y1795062D1*
X699558Y1797488D1*
X692565Y1801051D1*
X686215Y1805664D1*
X680664Y1811215D1*
X676051Y1817565D1*
X672488Y1824558D1*
X670062Y1832023D1*
X668834Y1839775D1*
Y1847625D1*
X670062Y1855377D1*
X672488Y1862842D1*
X676051Y1869835D1*
X680664Y1876185D1*
X686215Y1881736D1*
X692565Y1886349D1*
X699558Y1889912D1*
X707023Y1892338D1*
X714775Y1893566D1*
X719543Y1893713D1*
X726525Y1893104D1*
X734157Y1891272D1*
X741409Y1888268D1*
X748101Y1884167D1*
X754069Y1879069D1*
X759167Y1873101D1*
X763268Y1866409D1*
X766272Y1859157D1*
X768104Y1851525D1*
X768720Y1843700D1*
X768566Y1839775D1*
Y1939775D2*
X767338Y1932023D1*
X764912Y1924558D1*
X761349Y1917565D1*
X756736Y1911215D1*
X751185Y1905664D1*
X744835Y1901051D1*
X737842Y1897488D1*
X730377Y1895062D1*
X722625Y1893834D1*
X714775D1*
X707023Y1895062D1*
X699558Y1897488D1*
X692565Y1901051D1*
X686215Y1905664D1*
X680664Y1911215D1*
X676051Y1917565D1*
X672488Y1924558D1*
X670062Y1932023D1*
X668834Y1939775D1*
Y1947625D1*
X670062Y1955377D1*
X672488Y1962842D1*
X676051Y1969835D1*
X680664Y1976185D1*
X686215Y1981736D1*
X692565Y1986349D1*
X699558Y1989912D1*
X707023Y1992338D1*
X714775Y1993566D1*
X719543Y1993713D1*
X726525Y1993104D1*
X734157Y1991272D1*
X741409Y1988268D1*
X748101Y1984167D1*
X754069Y1979069D1*
X759167Y1973101D1*
X763268Y1966409D1*
X766272Y1959157D1*
X768104Y1951525D1*
X768720Y1943700D1*
X768566Y1939775D1*
Y2039775D2*
X767338Y2032023D1*
X764912Y2024558D1*
X761349Y2017565D1*
X756736Y2011215D1*
X751185Y2005664D1*
X744835Y2001051D1*
X737842Y1997488D1*
X730377Y1995062D1*
X722625Y1993834D1*
X714775D1*
X707023Y1995062D1*
X699558Y1997488D1*
X692565Y2001051D1*
X686215Y2005664D1*
X680664Y2011215D1*
X676051Y2017565D1*
X672488Y2024558D1*
X670062Y2032023D1*
X668834Y2039775D1*
Y2047625D1*
X670062Y2055377D1*
X672488Y2062842D1*
X676051Y2069835D1*
X680664Y2076185D1*
X686215Y2081736D1*
X692565Y2086349D1*
X699558Y2089912D1*
X707023Y2092338D1*
X714775Y2093566D1*
X719543Y2093713D1*
X726525Y2093104D1*
X734157Y2091272D1*
X741409Y2088268D1*
X748101Y2084167D1*
X754069Y2079069D1*
X759167Y2073101D1*
X763268Y2066409D1*
X766272Y2059157D1*
X768104Y2051525D1*
X768720Y2043700D1*
X768566Y2039775D1*
X719543Y2193687D2*
X726525Y2193104D1*
X734157Y2191272D1*
X741409Y2188268D1*
X748101Y2184167D1*
X754069Y2179069D1*
X759167Y2173101D1*
X763268Y2166409D1*
X766272Y2159157D1*
X768104Y2151525D1*
X768720Y2143700D1*
X768104Y2135875D1*
X766272Y2128243D1*
X763268Y2120991D1*
X759167Y2114299D1*
X754069Y2108331D1*
X748101Y2103233D1*
X741409Y2099132D1*
X734157Y2096128D1*
X726525Y2094296D1*
X722625Y2093834D1*
X714775D1*
X707023Y2095062D1*
X699558Y2097488D1*
X692565Y2101051D1*
X686215Y2105664D1*
X680664Y2111215D1*
X676051Y2117565D1*
X672488Y2124558D1*
X670062Y2132023D1*
X668834Y2139775D1*
Y2147625D1*
X670062Y2155377D1*
X672488Y2162842D1*
X676051Y2169835D1*
X680664Y2176185D1*
X686215Y2181736D1*
X692565Y2186349D1*
X699558Y2189912D1*
X707023Y2192338D1*
X714775Y2193566D1*
X1668566Y539775D2*
X1667338Y532023D1*
X1664912Y524558D1*
X1661349Y517565D1*
X1656736Y511215D1*
X1651185Y505664D1*
X1644835Y501051D1*
X1637842Y497488D1*
X1630377Y495062D1*
X1622625Y493834D1*
X1614775D1*
X1607023Y495062D1*
X1599558Y497488D1*
X1592565Y501051D1*
X1586215Y505664D1*
X1580664Y511215D1*
X1576051Y517565D1*
X1572488Y524558D1*
X1570062Y532023D1*
X1568834Y539775D1*
Y547625D1*
X1570062Y555377D1*
X1572488Y562842D1*
X1576051Y569835D1*
X1580664Y576185D1*
X1586215Y581736D1*
X1592565Y586349D1*
X1599558Y589912D1*
X1607023Y592338D1*
X1614775Y593566D1*
X1619543Y593713D1*
X1626525Y593104D1*
X1634157Y591272D1*
X1641409Y588268D1*
X1648101Y584167D1*
X1654069Y579069D1*
X1659167Y573101D1*
X1663268Y566409D1*
X1666272Y559157D1*
X1668104Y551525D1*
X1668720Y543700D1*
X1668566Y539775D1*
Y639775D2*
X1667338Y632023D1*
X1664912Y624558D1*
X1661349Y617565D1*
X1656736Y611215D1*
X1651185Y605664D1*
X1644835Y601051D1*
X1637842Y597488D1*
X1630377Y595062D1*
X1622625Y593834D1*
X1614775D1*
X1607023Y595062D1*
X1599558Y597488D1*
X1592565Y601051D1*
X1586215Y605664D1*
X1580664Y611215D1*
X1576051Y617565D1*
X1572488Y624558D1*
X1570062Y632023D1*
X1568834Y639775D1*
Y647625D1*
X1570062Y655377D1*
X1572488Y662842D1*
X1576051Y669835D1*
X1580664Y676185D1*
X1586215Y681736D1*
X1592565Y686349D1*
X1599558Y689912D1*
X1607023Y692338D1*
X1614775Y693566D1*
X1619543Y693713D1*
X1626525Y693104D1*
X1634157Y691272D1*
X1641409Y688268D1*
X1648101Y684167D1*
X1654069Y679069D1*
X1659167Y673101D1*
X1663268Y666409D1*
X1666272Y659157D1*
X1668104Y651525D1*
X1668720Y643700D1*
X1668566Y639775D1*
Y739775D2*
X1667338Y732023D1*
X1664912Y724558D1*
X1661349Y717565D1*
X1656736Y711215D1*
X1651185Y705664D1*
X1644835Y701051D1*
X1637842Y697488D1*
X1630377Y695062D1*
X1622625Y693834D1*
X1614775D1*
X1607023Y695062D1*
X1599558Y697488D1*
X1592565Y701051D1*
X1586215Y705664D1*
X1580664Y711215D1*
X1576051Y717565D1*
X1572488Y724558D1*
X1570062Y732023D1*
X1568834Y739775D1*
Y747625D1*
X1570062Y755377D1*
X1572488Y762842D1*
X1576051Y769835D1*
X1580664Y776185D1*
X1586215Y781736D1*
X1592565Y786349D1*
X1599558Y789912D1*
X1607023Y792338D1*
X1614775Y793566D1*
X1619543Y793713D1*
X1626525Y793104D1*
X1634157Y791272D1*
X1641409Y788268D1*
X1648101Y784167D1*
X1654069Y779069D1*
X1659167Y773101D1*
X1663268Y766409D1*
X1666272Y759157D1*
X1668104Y751525D1*
X1668720Y743700D1*
X1668566Y739775D1*
Y839775D2*
X1667338Y832023D1*
X1664912Y824558D1*
X1661349Y817565D1*
X1656736Y811215D1*
X1651185Y805664D1*
X1644835Y801051D1*
X1637842Y797488D1*
X1630377Y795062D1*
X1622625Y793834D1*
X1614775D1*
X1607023Y795062D1*
X1599558Y797488D1*
X1592565Y801051D1*
X1586215Y805664D1*
X1580664Y811215D1*
X1576051Y817565D1*
X1572488Y824558D1*
X1570062Y832023D1*
X1568834Y839775D1*
Y847625D1*
X1570062Y855377D1*
X1572488Y862842D1*
X1576051Y869835D1*
X1580664Y876185D1*
X1586215Y881736D1*
X1592565Y886349D1*
X1599558Y889912D1*
X1607023Y892338D1*
X1614775Y893566D1*
X1619543Y893713D1*
X1626525Y893104D1*
X1634157Y891272D1*
X1641409Y888268D1*
X1648101Y884167D1*
X1654069Y879069D1*
X1659167Y873101D1*
X1663268Y866409D1*
X1666272Y859157D1*
X1668104Y851525D1*
X1668720Y843700D1*
X1668566Y839775D1*
Y939775D2*
X1667338Y932023D1*
X1664912Y924558D1*
X1661349Y917565D1*
X1656736Y911215D1*
X1651185Y905664D1*
X1644835Y901051D1*
X1637842Y897488D1*
X1630377Y895062D1*
X1622625Y893834D1*
X1614775D1*
X1607023Y895062D1*
X1599558Y897488D1*
X1592565Y901051D1*
X1586215Y905664D1*
X1580664Y911215D1*
X1576051Y917565D1*
X1572488Y924558D1*
X1570062Y932023D1*
X1568834Y939775D1*
Y947625D1*
X1570062Y955377D1*
X1572488Y962842D1*
X1576051Y969835D1*
X1580664Y976185D1*
X1586215Y981736D1*
X1592565Y986349D1*
X1599558Y989912D1*
X1607023Y992338D1*
X1614775Y993566D1*
X1619543Y993713D1*
X1626525Y993104D1*
X1634157Y991272D1*
X1641409Y988268D1*
X1648101Y984167D1*
X1654069Y979069D1*
X1659167Y973101D1*
X1663268Y966409D1*
X1666272Y959157D1*
X1668104Y951525D1*
X1668720Y943700D1*
X1668566Y939775D1*
Y1739775D2*
X1667338Y1732023D1*
X1664912Y1724558D1*
X1661349Y1717565D1*
X1656736Y1711215D1*
X1651185Y1705664D1*
X1644835Y1701051D1*
X1637842Y1697488D1*
X1630377Y1695062D1*
X1622625Y1693834D1*
X1614775D1*
X1607023Y1695062D1*
X1599558Y1697488D1*
X1592565Y1701051D1*
X1586215Y1705664D1*
X1580664Y1711215D1*
X1576051Y1717565D1*
X1572488Y1724558D1*
X1570062Y1732023D1*
X1568834Y1739775D1*
Y1747625D1*
X1570062Y1755377D1*
X1572488Y1762842D1*
X1576051Y1769835D1*
X1580664Y1776185D1*
X1586215Y1781736D1*
X1592565Y1786349D1*
X1599558Y1789912D1*
X1607023Y1792338D1*
X1614775Y1793566D1*
X1619543Y1793713D1*
X1626525Y1793104D1*
X1634157Y1791272D1*
X1641409Y1788268D1*
X1648101Y1784167D1*
X1654069Y1779069D1*
X1659167Y1773101D1*
X1663268Y1766409D1*
X1666272Y1759157D1*
X1668104Y1751525D1*
X1668720Y1743700D1*
X1668566Y1739775D1*
Y1839775D2*
X1667338Y1832023D1*
X1664912Y1824558D1*
X1661349Y1817565D1*
X1656736Y1811215D1*
X1651185Y1805664D1*
X1644835Y1801051D1*
X1637842Y1797488D1*
X1630377Y1795062D1*
X1622625Y1793834D1*
X1614775D1*
X1607023Y1795062D1*
X1599558Y1797488D1*
X1592565Y1801051D1*
X1586215Y1805664D1*
X1580664Y1811215D1*
X1576051Y1817565D1*
X1572488Y1824558D1*
X1570062Y1832023D1*
X1568834Y1839775D1*
Y1847625D1*
X1570062Y1855377D1*
X1572488Y1862842D1*
X1576051Y1869835D1*
X1580664Y1876185D1*
X1586215Y1881736D1*
X1592565Y1886349D1*
X1599558Y1889912D1*
X1607023Y1892338D1*
X1614775Y1893566D1*
X1619543Y1893713D1*
X1626525Y1893104D1*
X1634157Y1891272D1*
X1641409Y1888268D1*
X1648101Y1884167D1*
X1654069Y1879069D1*
X1659167Y1873101D1*
X1663268Y1866409D1*
X1666272Y1859157D1*
X1668104Y1851525D1*
X1668720Y1843700D1*
X1668566Y1839775D1*
Y1939775D2*
X1667338Y1932023D1*
X1664912Y1924558D1*
X1661349Y1917565D1*
X1656736Y1911215D1*
X1651185Y1905664D1*
X1644835Y1901051D1*
X1637842Y1897488D1*
X1630377Y1895062D1*
X1622625Y1893834D1*
X1614775D1*
X1607023Y1895062D1*
X1599558Y1897488D1*
X1592565Y1901051D1*
X1586215Y1905664D1*
X1580664Y1911215D1*
X1576051Y1917565D1*
X1572488Y1924558D1*
X1570062Y1932023D1*
X1568834Y1939775D1*
Y1947625D1*
X1570062Y1955377D1*
X1572488Y1962842D1*
X1576051Y1969835D1*
X1580664Y1976185D1*
X1586215Y1981736D1*
X1592565Y1986349D1*
X1599558Y1989912D1*
X1607023Y1992338D1*
X1614775Y1993566D1*
X1619543Y1993713D1*
X1626525Y1993104D1*
X1634157Y1991272D1*
X1641409Y1988268D1*
X1648101Y1984167D1*
X1654069Y1979069D1*
X1659167Y1973101D1*
X1663268Y1966409D1*
X1666272Y1959157D1*
X1668104Y1951525D1*
X1668720Y1943700D1*
X1668566Y1939775D1*
X1619543Y2093687D2*
X1626525Y2093104D1*
X1634157Y2091272D1*
X1641409Y2088268D1*
X1648101Y2084167D1*
X1654069Y2079069D1*
X1659167Y2073101D1*
X1663268Y2066409D1*
X1666272Y2059157D1*
X1668104Y2051525D1*
X1668720Y2043700D1*
X1668104Y2035875D1*
X1666272Y2028243D1*
X1663268Y2020991D1*
X1659167Y2014299D1*
X1654069Y2008331D1*
X1648101Y2003233D1*
X1641409Y1999132D1*
X1634157Y1996128D1*
X1626525Y1994296D1*
X1622625Y1993834D1*
X1614775D1*
X1607023Y1995062D1*
X1599558Y1997488D1*
X1592565Y2001051D1*
X1586215Y2005664D1*
X1580664Y2011215D1*
X1576051Y2017565D1*
X1572488Y2024558D1*
X1570062Y2032023D1*
X1568834Y2039775D1*
Y2047625D1*
X1570062Y2055377D1*
X1572488Y2062842D1*
X1576051Y2069835D1*
X1580664Y2076185D1*
X1586215Y2081736D1*
X1592565Y2086349D1*
X1599558Y2089912D1*
X1607023Y2092338D1*
X1614775Y2093566D1*
X3000653Y993247D2*
X3093248D1*
Y894152D1*
X2994153D1*
Y993247D1*
X3000653D1*
X2629151Y1210574D2*
X2624939Y1212018D1*
X2619343Y1214869D1*
X2614263Y1218560D1*
X2609822Y1223000D1*
X2606131Y1228081D1*
X2603280Y1233676D1*
X2601340Y1239649D1*
X2600357Y1245851D1*
Y1252131D1*
X2601340Y1258334D1*
X2603280Y1264306D1*
X2606131Y1269902D1*
X2609822Y1274982D1*
X2614263Y1279423D1*
X2619343Y1283114D1*
X2624939Y1285965D1*
X2630911Y1287906D1*
X2637114Y1288888D1*
X2643394D1*
X2649596Y1287906D1*
X2655569Y1285965D1*
X2661164Y1283114D1*
X2666245Y1279423D1*
X2670685Y1274982D1*
X2674376Y1269902D1*
X2677227Y1264306D1*
X2678805Y1259966D1*
X2783883Y1154735D1*
X2787113Y1150289D1*
X2789608Y1145393D1*
X2791306Y1140167D1*
X2792166Y1134739D1*
X2792274Y1112491D1*
Y527771D1*
X2795691Y525131D1*
X2800131Y520691D1*
X2803823Y515610D1*
X2806674Y510015D1*
X2808614Y504042D1*
X2809597Y497840D1*
Y491560D1*
X2808614Y485358D1*
X2806674Y479385D1*
X2803823Y473790D1*
X2800131Y468709D1*
X2795691Y464269D1*
X2790610Y460577D1*
X2785015Y457726D1*
X2779042Y455786D1*
X2772840Y454803D1*
X2766560D1*
X2760358Y455786D1*
X2754385Y457726D1*
X2748790Y460577D1*
X2743709Y464269D1*
X2739269Y468709D1*
X2735577Y473790D1*
X2732726Y479385D1*
X2731262Y483668D1*
X2728922Y486562D1*
X2726051Y491247D1*
X2723948Y496324D1*
X2722665Y501668D1*
X2722234Y507146D1*
Y1117461D1*
X2629202Y1210517D1*
X2333597Y490560D2*
X2332614Y484358D1*
X2330674Y478385D1*
X2327823Y472790D1*
X2324131Y467709D1*
X2319691Y463269D1*
X2314610Y459577D1*
X2309015Y456726D1*
X2303042Y454786D1*
X2296840Y453803D1*
X2290560D1*
X2284358Y454786D1*
X2278385Y456726D1*
X2274200Y458680D1*
X2263054D1*
X2259015Y456726D1*
X2253042Y454786D1*
X2246840Y453803D1*
X2240560D1*
X2234358Y454786D1*
X2228385Y456726D1*
X2222790Y459577D1*
X2217709Y463269D1*
X2213269Y467709D1*
X2209577Y472790D1*
X2206726Y478385D1*
X2204786Y484358D1*
X2203803Y490560D1*
Y496840D1*
X2204786Y503042D1*
X2206726Y509015D1*
X2209577Y514610D1*
X2213269Y519691D1*
X2217709Y524131D1*
X2222790Y527823D1*
X2228385Y530674D1*
X2234358Y532614D1*
X2240560Y533597D1*
X2246840D1*
X2253042Y532614D1*
X2259015Y530674D1*
X2263200Y528720D1*
X2274346D1*
X2278385Y530674D1*
X2284358Y532614D1*
X2290560Y533597D1*
X2296840D1*
X2303042Y532614D1*
X2309015Y530674D1*
X2314610Y527823D1*
X2319691Y524131D1*
X2324131Y519691D1*
X2327823Y514610D1*
X2330674Y509015D1*
X2332614Y503042D1*
X2333597Y496840D1*
Y490560D1*
X1050807Y2042680D2*
X849104D1*
X844691Y2038269D1*
X839610Y2034577D1*
X834015Y2031726D1*
X828042Y2029786D1*
X821840Y2028803D1*
X815560D1*
X809358Y2029786D1*
X803385Y2031726D1*
X797790Y2034577D1*
X792709Y2038269D1*
X788269Y2042709D1*
X784577Y2047790D1*
X781726Y2053385D1*
X779786Y2059358D1*
X778803Y2065560D1*
Y2071840D1*
X779786Y2078042D1*
X781726Y2084015D1*
X784577Y2089610D1*
X788269Y2094691D1*
X792709Y2099131D1*
X797790Y2102823D1*
X803385Y2105674D1*
X809358Y2107614D1*
X815560Y2108597D1*
X821840D1*
X828042Y2107614D1*
X834015Y2105674D1*
X839610Y2102823D1*
X844691Y2099131D1*
X849106Y2094718D1*
X1050796Y2094720D1*
X1055209Y2099131D1*
X1060290Y2102823D1*
X1065885Y2105674D1*
X1071858Y2107614D1*
X1078060Y2108597D1*
X1084340D1*
X1090542Y2107614D1*
X1096515Y2105674D1*
X1102110Y2102823D1*
X1107191Y2099131D1*
X1111631Y2094691D1*
X1115323Y2089610D1*
X1118174Y2084015D1*
X1120114Y2078042D1*
X1121097Y2071840D1*
Y2065560D1*
X1120114Y2059358D1*
X1118174Y2053385D1*
X1115323Y2047790D1*
X1111631Y2042709D1*
X1107191Y2038269D1*
X1102110Y2034577D1*
X1096515Y2031726D1*
X1090542Y2029786D1*
X1084340Y2028803D1*
X1078060D1*
X1071858Y2029786D1*
X1065885Y2031726D1*
X1060290Y2034577D1*
X1055209Y2038269D1*
X1050794Y2042682D1*
X1199093Y1719720D2*
X1513276D1*
X1517709Y1724131D1*
X1522790Y1727823D1*
X1528385Y1730674D1*
X1534358Y1732614D1*
X1540560Y1733597D1*
X1546840D1*
X1553042Y1732614D1*
X1559015Y1730674D1*
X1564610Y1727823D1*
X1569691Y1724131D1*
X1574131Y1719691D1*
X1577823Y1714610D1*
X1580674Y1709015D1*
X1582614Y1703042D1*
X1583597Y1696840D1*
Y1690560D1*
X1582614Y1684358D1*
X1580674Y1678385D1*
X1577823Y1672790D1*
X1574131Y1667709D1*
X1569691Y1663269D1*
X1564610Y1659577D1*
X1559015Y1656726D1*
X1553042Y1654786D1*
X1546840Y1653803D1*
X1540560D1*
X1534358Y1654786D1*
X1528385Y1656726D1*
X1522790Y1659577D1*
X1517709Y1663269D1*
X1513294Y1667682D1*
X1199124Y1667680D1*
X1194691Y1663269D1*
X1189610Y1659577D1*
X1184015Y1656726D1*
X1178042Y1654786D1*
X1171840Y1653803D1*
X1165560D1*
X1159358Y1654786D1*
X1153385Y1656726D1*
X1147790Y1659577D1*
X1142709Y1663269D1*
X1138269Y1667709D1*
X1134577Y1672790D1*
X1131726Y1678385D1*
X1129786Y1684358D1*
X1128803Y1690560D1*
Y1696840D1*
X1129786Y1703042D1*
X1131726Y1709015D1*
X1134577Y1714610D1*
X1138269Y1719691D1*
X1142709Y1724131D1*
X1147790Y1727823D1*
X1153385Y1730674D1*
X1159358Y1732614D1*
X1165560Y1733597D1*
X1171840D1*
X1178042Y1732614D1*
X1184015Y1730674D1*
X1189610Y1727823D1*
X1194691Y1724131D1*
X1199106Y1719718D1*
D32*
X1718700Y443700D3*
D33*
Y543700D3*
Y643700D3*
Y743700D3*
Y843700D3*
Y943700D3*
Y1043700D3*
Y1143700D3*
Y1243700D3*
Y1343700D3*
Y1443700D3*
Y1543700D3*
Y1643700D3*
Y1743700D3*
Y1843700D3*
Y1943700D3*
Y2043700D3*
Y2143700D3*
Y2243700D3*
D32*
X3043700Y2081200D3*
D33*
Y2181200D3*
Y2281200D3*
Y2381200D3*
D32*
X793700Y2568700D3*
D33*
Y2668700D3*
X893700Y2568700D3*
Y2668700D3*
X993700Y2568700D3*
Y2668700D3*
D32*
X3043700Y1543700D3*
D33*
Y1643700D3*
Y1743700D3*
Y1843700D3*
D34*
X1168700Y2668700D3*
D35*
X1268700D3*
X1368700D3*
D36*
X1993700Y943700D3*
Y707480D3*
D37*
X2178739Y825590D3*
D32*
X874949Y1762451D3*
D33*
X974949D3*
D32*
X874949Y1662451D3*
D33*
X974949D3*
D43*
X531495Y531495D3*
X531501Y2603700D3*
X3019700Y523700D3*
Y2603700D3*
D44*
X2068700Y1437451D3*
D45*
X2168700D3*
X2268700D3*
X2368700D3*
X2468700D3*
X2568700D3*
X2668700D3*
X2768700D3*
Y1937451D3*
X2668700D3*
X2568700D3*
X2468700D3*
X2368700D3*
X2268700D3*
X2168700D3*
X2068700D3*
Y1537451D3*
Y1637451D3*
D44*
X2118700Y2093700D3*
D45*
X2218700D3*
X2318700D3*
X2418700D3*
X2518700D3*
X2618700D3*
X2718700D3*
X2818700D3*
Y2593700D3*
X2718700D3*
X2618700D3*
X2518700D3*
X2418700D3*
X2318700D3*
X2218700D3*
X2118700D3*
Y2193700D3*
Y2293700D3*
D49*
X718700Y443700D3*
Y543700D3*
Y643700D3*
Y743700D3*
Y843700D3*
Y943700D3*
Y1043700D3*
Y1143700D3*
Y1243700D3*
Y1343700D3*
Y1443700D3*
Y1543700D3*
Y1643700D3*
Y1743700D3*
Y1843700D3*
Y1943700D3*
Y2043700D3*
Y2143700D3*
Y2243700D3*
X1618700Y443700D3*
Y543700D3*
Y643700D3*
Y743700D3*
Y843700D3*
Y943700D3*
Y1043700D3*
Y1143700D3*
Y1243700D3*
Y1343700D3*
Y1443700D3*
Y1543700D3*
Y1643700D3*
Y1743700D3*
Y1843700D3*
Y1943700D3*
Y2043700D3*
Y2143700D3*
Y2243700D3*
D32*
X3043700Y943700D3*
D33*
Y1043700D3*
M02*
