G04 DipTrace 3.3.1.3*
G04 BottomSilk.gbr*
%MOIN*%
G04 #@! TF.FileFunction,Legend,Bot*
G04 #@! TF.Part,Single*
%ADD108C,0.00772*%
%ADD109C,0.009264*%
%FSLAX26Y26*%
G04*
G70*
G90*
G75*
G01*
G04 BotSilk*
%LPD*%
X772083Y2490069D2*
D108*
Y2463816D1*
X791206Y2478131D1*
Y2470946D1*
X793583Y2466193D1*
X795959Y2463816D1*
X803144Y2461384D1*
X807897D1*
X815082Y2463816D1*
X819891Y2468569D1*
X822267Y2475754D1*
Y2482939D1*
X819891Y2490069D1*
X817459Y2492446D1*
X812706Y2494878D1*
X788774Y2445945D2*
X822267Y2431575D1*
X788774Y2417260D1*
X772083Y2397013D2*
Y2370760D1*
X791206Y2385074D1*
Y2377889D1*
X793583Y2373136D1*
X795959Y2370760D1*
X803144Y2368328D1*
X807897D1*
X815082Y2370760D1*
X819891Y2375513D1*
X822268Y2382698D1*
Y2389883D1*
X819891Y2397012D1*
X817459Y2399389D1*
X812706Y2401821D1*
X859527Y2514878D2*
X909767Y2481384D1*
X859528Y2481385D2*
X909767Y2514878D1*
X884675Y2465945D2*
Y2438310D1*
X859528Y2422871D2*
X909767D1*
Y2394186D1*
X859528Y2378747D2*
X861904Y2376371D1*
X859528Y2373939D1*
X857096Y2376371D1*
X859528Y2378747D1*
X876274Y2376371D2*
X909767D1*
X876274Y2358499D2*
X909768D1*
X885836D2*
X878651Y2351314D1*
X876274Y2346506D1*
Y2339376D1*
X878651Y2334568D1*
X885836Y2332191D1*
X909768D1*
X885836D2*
X878651Y2325006D1*
X876274Y2320198D1*
Y2313068D1*
X878651Y2308260D1*
X885836Y2305828D1*
X909767D1*
X959527Y2519631D2*
X983459Y2500508D1*
X1009767D1*
X959528Y2481385D2*
X983459Y2500508D1*
X984675Y2465945D2*
Y2438310D1*
X959528Y2422871D2*
X1009767D1*
Y2394186D1*
X959528Y2378747D2*
X961904Y2376371D1*
X959528Y2373939D1*
X957096Y2376371D1*
X959528Y2378747D1*
X976274Y2376371D2*
X1009767D1*
X976274Y2358499D2*
X1009768D1*
X985836D2*
X978651Y2351314D1*
X976274Y2346506D1*
Y2339376D1*
X978651Y2334568D1*
X985836Y2332191D1*
X1009768D1*
X985836D2*
X978651Y2325006D1*
X976274Y2320198D1*
Y2313068D1*
X978651Y2308260D1*
X985836Y2305828D1*
X1009767D1*
X1173336Y2593809D2*
Y2572254D1*
X1170959Y2565124D1*
X1168527Y2562693D1*
X1163774Y2560316D1*
X1156589D1*
X1151836Y2562693D1*
X1149404Y2565124D1*
X1147028Y2572254D1*
Y2593809D1*
X1197267D1*
X1147028Y2544877D2*
X1197267Y2532883D1*
X1147028Y2520945D1*
X1197267Y2509007D1*
X1147028Y2497013D1*
X1197267Y2443328D2*
X1147027D1*
X1197268Y2462451D1*
X1147028Y2481574D1*
X1197268D1*
X1234583Y2567260D2*
Y2591137D1*
X1256083Y2593513D1*
X1253706Y2591137D1*
X1251274Y2583952D1*
Y2576822D1*
X1253706Y2569637D1*
X1258459Y2564828D1*
X1265644Y2562452D1*
X1270397D1*
X1277582Y2564828D1*
X1282391Y2569637D1*
X1284768Y2576822D1*
X1284767Y2583952D1*
X1282391Y2591137D1*
X1279959Y2593513D1*
X1275206Y2595945D1*
X1251274Y2547013D2*
X1284768Y2532642D1*
X1251274Y2518328D1*
X1346466Y2554199D2*
X1341713Y2556576D1*
X1336904Y2561384D1*
X1334528Y2566137D1*
Y2575699D1*
X1336904Y2580508D1*
X1341713Y2585261D1*
X1346466Y2587693D1*
X1353651Y2590069D1*
X1365644D1*
X1372774Y2587693D1*
X1377582Y2585261D1*
X1382336Y2580508D1*
X1384767Y2575699D1*
Y2566137D1*
X1382336Y2561384D1*
X1377582Y2556576D1*
X1372774Y2554199D1*
X1365644D1*
Y2566137D1*
X1351274Y2538760D2*
X1384767D1*
X1360836D2*
X1353651Y2531575D1*
X1351274Y2526767D1*
Y2519637D1*
X1353651Y2514828D1*
X1360836Y2512452D1*
X1384768D1*
X1334527Y2468328D2*
X1384767D1*
X1358459D2*
X1353651Y2473081D1*
X1351274Y2477889D1*
Y2485074D1*
X1353651Y2489827D1*
X1358459Y2494636D1*
X1365644Y2497013D1*
X1370397Y2497012D1*
X1377582Y2494636D1*
X1382336Y2489827D1*
X1384768Y2485074D1*
Y2477889D1*
X1382336Y2473081D1*
X1377582Y2468328D1*
X1336874Y2403232D2*
X1341627Y2408041D1*
X1348812Y2410417D1*
X1358374D1*
X1365559Y2408041D1*
X1370368Y2403232D1*
Y2398479D1*
X1367936Y2393670D1*
X1365559Y2391294D1*
X1360806Y2388917D1*
X1346436Y2384109D1*
X1341627Y2381732D1*
X1339251Y2379300D1*
X1336874Y2374547D1*
Y2367362D1*
X1341627Y2362609D1*
X1348812Y2360177D1*
X1358374D1*
X1365559Y2362609D1*
X1370368Y2367362D1*
X1321435Y2379300D2*
X1292750D1*
Y2384109D1*
X1295127Y2388917D1*
X1297503Y2391294D1*
X1302312Y2393670D1*
X1309497D1*
X1314250Y2391294D1*
X1319058Y2386485D1*
X1321435Y2379300D1*
Y2374547D1*
X1319058Y2367362D1*
X1314250Y2362609D1*
X1309497Y2360177D1*
X1302312D1*
X1297503Y2362609D1*
X1292750Y2367362D1*
X1277311Y2393670D2*
Y2360177D1*
Y2379300D2*
X1274879Y2386485D1*
X1270126Y2391294D1*
X1265317Y2393670D1*
X1258132D1*
X1242693D2*
X1228323Y2360177D1*
X1214008Y2393670D1*
X1186631D2*
X1191384Y2391294D1*
X1196192Y2386485D1*
X1198569Y2379300D1*
Y2374547D1*
X1196192Y2367362D1*
X1191384Y2362609D1*
X1186631Y2360177D1*
X1179446D1*
X1174637Y2362609D1*
X1169884Y2367362D1*
X1167452Y2374547D1*
Y2379300D1*
X1169884Y2386485D1*
X1174637Y2391294D1*
X1179446Y2393670D1*
X1186631D1*
X2947027Y1809452D2*
X2970959Y1790329D1*
X2997267D1*
X2947028Y1771206D2*
X2970959Y1790329D1*
X2972175Y1755767D2*
Y1728132D1*
X2997267Y1674446D2*
X2947028D1*
X2997267Y1693569D1*
X2947028Y1712693D1*
X2997267D1*
X2963774Y1647069D2*
X2966151Y1651822D1*
X2970959Y1656630D1*
X2978144Y1659007D1*
X2982897D1*
X2990082Y1656630D1*
X2994836Y1651822D1*
X2997268Y1647069D1*
Y1639884D1*
X2994836Y1635075D1*
X2990082Y1630322D1*
X2982897Y1627890D1*
X2978144D1*
X2970959Y1630322D1*
X2966151Y1635075D1*
X2963774Y1639884D1*
Y1647069D1*
X2947027Y1605266D2*
X2987706D1*
X2994836Y1602889D1*
X2997267Y1598081D1*
Y1593328D1*
X2963774Y1612451D2*
Y1595704D1*
X2934527Y2329699D2*
X2984767Y2296206D1*
X2934528D2*
X2984767Y2329699D1*
X2959675Y2280767D2*
Y2253132D1*
X2984767Y2199446D2*
X2934528D1*
X2984767Y2218569D1*
X2934528Y2237693D1*
X2984767D1*
X2951274Y2172069D2*
X2953651Y2176822D1*
X2958459Y2181630D1*
X2965644Y2184007D1*
X2970397D1*
X2977582Y2181630D1*
X2982336Y2176822D1*
X2984768Y2172069D1*
Y2164884D1*
X2982336Y2160075D1*
X2977582Y2155322D1*
X2970397Y2152890D1*
X2965644D1*
X2958459Y2155322D1*
X2953651Y2160075D1*
X2951274Y2164884D1*
Y2172069D1*
X2934527Y2130266D2*
X2975206D1*
X2982336Y2127889D1*
X2984767Y2123081D1*
Y2118328D1*
X2951274Y2137451D2*
Y2120704D1*
X2098324Y628214D2*
X2076769D1*
X2069639Y630590D1*
X2067207Y633022D1*
X2064831Y637775D1*
Y644961D1*
X2067207Y649714D1*
X2069639Y652146D1*
X2076769Y654522D1*
X2098324D1*
Y604282D1*
X2037453Y637775D2*
X2042207Y635399D1*
X2047015Y630590D1*
X2049392Y623405D1*
Y618652D1*
X2047015Y611467D1*
X2042207Y606714D1*
X2037453Y604282D1*
X2030268D1*
X2025460Y606714D1*
X2020707Y611467D1*
X2018275Y618652D1*
Y623405D1*
X2020707Y630590D1*
X2025460Y635399D1*
X2030268Y637775D1*
X2037453D1*
X2002836D2*
X1993274Y604282D1*
X1983712Y637775D1*
X1974151Y604282D1*
X1964589Y637775D1*
X1949150Y623405D2*
X1920465D1*
Y628214D1*
X1922842Y633022D1*
X1925218Y635399D1*
X1930027Y637775D1*
X1937212D1*
X1941965Y635399D1*
X1946773Y630590D1*
X1949150Y623405D1*
Y618652D1*
X1946773Y611467D1*
X1941965Y606714D1*
X1937212Y604282D1*
X1930027D1*
X1925218Y606714D1*
X1920465Y611467D1*
X1905026Y637775D2*
Y604282D1*
Y623405D2*
X1902594Y630590D1*
X1897841Y635399D1*
X1893032Y637775D1*
X1885847D1*
X2130660Y550275D2*
X2133092Y543090D1*
X2137845Y538282D1*
X2145030Y535905D1*
X2147407D1*
X2154592Y538282D1*
X2159345Y543090D1*
X2161777Y550275D1*
Y552652D1*
X2159345Y559837D1*
X2154592Y564590D1*
X2147407Y566967D1*
X2145030D1*
X2137845Y564590D1*
X2133092Y559837D1*
X2130660Y550275D1*
Y538282D1*
X2133092Y526344D1*
X2137845Y519159D1*
X2145030Y516782D1*
X2149783D1*
X2156968Y519159D1*
X2159345Y523967D1*
X2115221Y541875D2*
X2087586D1*
X2069715Y555029D2*
Y557405D1*
X2067338Y562214D1*
X2064962Y564590D1*
X2060153Y566967D1*
X2050592D1*
X2045838Y564590D1*
X2043462Y562214D1*
X2041030Y557405D1*
Y552652D1*
X2043462Y547844D1*
X2048215Y540714D1*
X2072147Y516782D1*
X2038653D1*
X2011276Y566967D2*
X2018406Y564590D1*
X2020838Y559837D1*
Y555029D1*
X2018406Y550275D1*
X2013652Y547844D1*
X2004091Y545467D1*
X1996906Y543090D1*
X1992153Y538282D1*
X1989776Y533529D1*
Y526344D1*
X1992153Y521591D1*
X1994529Y519159D1*
X2001714Y516782D1*
X2011276D1*
X2018406Y519159D1*
X2020838Y521591D1*
X2023214Y526344D1*
Y533529D1*
X2020838Y538282D1*
X2016029Y543090D1*
X2008899Y545467D1*
X1999338Y547844D1*
X1994529Y550275D1*
X1992153Y555029D1*
Y559837D1*
X1994529Y564590D1*
X2001714Y566967D1*
X2011276D1*
X1974337Y567022D2*
X1955214Y516782D1*
X1936090Y567022D1*
X1920651D2*
Y516782D1*
X1903904D1*
X1896719Y519214D1*
X1891911Y523967D1*
X1889534Y528776D1*
X1887158Y535905D1*
Y547899D1*
X1889534Y555084D1*
X1891911Y559837D1*
X1896719Y564646D1*
X1903904Y567022D1*
X1920651D1*
X1835849Y555084D2*
X1838225Y559837D1*
X1843034Y564646D1*
X1847787Y567022D1*
X1857348D1*
X1862157Y564646D1*
X1866910Y559837D1*
X1869342Y555084D1*
X1871718Y547899D1*
Y535905D1*
X1869342Y528776D1*
X1866910Y523967D1*
X1862157Y519214D1*
X1857348Y516782D1*
X1847787D1*
X1843034Y519214D1*
X1838225Y523967D1*
X1835849Y528776D1*
X2087268Y480084D2*
X2089645Y484837D1*
X2094453Y489646D1*
X2099206Y492022D1*
X2108768D1*
X2113576Y489646D1*
X2118330Y484837D1*
X2120762Y480084D1*
X2123138Y472899D1*
Y460905D1*
X2120762Y453776D1*
X2118330Y448967D1*
X2113576Y444214D1*
X2108768Y441782D1*
X2099206D1*
X2094453Y444214D1*
X2089645Y448967D1*
X2087268Y453776D1*
X2071829Y460905D2*
X2043144D1*
Y465714D1*
X2045521Y470522D1*
X2047897Y472899D1*
X2052706Y475275D1*
X2059891D1*
X2064644Y472899D1*
X2069452Y468090D1*
X2071829Y460905D1*
Y456152D1*
X2069452Y448967D1*
X2064644Y444214D1*
X2059891Y441782D1*
X2052706D1*
X2047897Y444214D1*
X2043144Y448967D1*
X2027705Y475275D2*
Y441782D1*
Y465714D2*
X2020520Y472899D1*
X2015711Y475275D1*
X2008582D1*
X2003773Y472899D1*
X2001396Y465714D1*
Y441782D1*
X1978772Y492022D2*
Y451344D1*
X1976396Y444214D1*
X1971587Y441782D1*
X1966834D1*
X1985957Y475275D2*
X1969211D1*
X1951395Y460905D2*
X1922710D1*
Y465714D1*
X1925086Y470522D1*
X1927463Y472899D1*
X1932271Y475275D1*
X1939457D1*
X1944210Y472899D1*
X1949018Y468090D1*
X1951395Y460905D1*
Y456152D1*
X1949018Y448967D1*
X1944210Y444214D1*
X1939457Y441782D1*
X1932271D1*
X1927463Y444214D1*
X1922710Y448967D1*
X1907271Y475275D2*
Y441782D1*
Y460905D2*
X1904839Y468090D1*
X1900086Y472899D1*
X1895277Y475275D1*
X1888092D1*
X1851153Y488402D2*
Y445347D1*
X1872653Y466847D2*
X1829598D1*
X431670Y2098091D2*
D109*
Y2135365D1*
X491958D1*
Y2098091D1*
X460388Y2135365D2*
Y2112417D1*
X440292Y2039372D2*
X434522Y2045076D1*
X431670Y2053698D1*
Y2065172D1*
X434522Y2073794D1*
X440292Y2079564D1*
X445996D1*
X451766Y2076646D1*
X454618Y2073794D1*
X457470Y2068090D1*
X463240Y2050846D1*
X466092Y2045076D1*
X469010Y2042224D1*
X474714Y2039372D1*
X483336D1*
X489040Y2045076D1*
X491958Y2053698D1*
Y2065172D1*
X489040Y2073794D1*
X483336Y2079564D1*
X463240Y2020845D2*
Y1994979D1*
X460388Y1986423D1*
X457470Y1983505D1*
X451766Y1980653D1*
X443144D1*
X437440Y1983505D1*
X434522Y1986423D1*
X431670Y1994979D1*
Y2020845D1*
X491958D1*
X431736Y1956356D2*
Y1924852D1*
X454684Y1942030D1*
Y1933408D1*
X457536Y1927704D1*
X460388Y1924852D1*
X469010Y1921934D1*
X474714D1*
X483336Y1924852D1*
X489106Y1930556D1*
X491958Y1939178D1*
Y1947800D1*
X489106Y1956356D1*
X486188Y1959208D1*
X480484Y1962126D1*
X446062Y1900489D2*
X443210D1*
X437440Y1897637D1*
X434588Y1894785D1*
X431736Y1889015D1*
Y1877541D1*
X434588Y1871837D1*
X437440Y1868985D1*
X443210Y1866067D1*
X448914D1*
X454684Y1868985D1*
X463240Y1874689D1*
X491958Y1903407D1*
Y1863215D1*
X463240Y1786366D2*
Y1760500D1*
X460388Y1751945D1*
X457470Y1749026D1*
X451766Y1746174D1*
X443144D1*
X437440Y1749026D1*
X434522Y1751945D1*
X431670Y1760500D1*
Y1786366D1*
X491958D1*
X469010Y1727647D2*
Y1693226D1*
X463240D1*
X457470Y1696077D1*
X454618Y1698929D1*
X451766Y1704699D1*
Y1713322D1*
X454618Y1719025D1*
X460388Y1724795D1*
X469010Y1727647D1*
X474714D1*
X483336Y1724795D1*
X489040Y1719025D1*
X491958Y1713322D1*
Y1704699D1*
X489040Y1698929D1*
X483336Y1693226D1*
X451766Y1674698D2*
X491958D1*
X463240D2*
X454618Y1666076D1*
X451766Y1660306D1*
Y1651751D1*
X454618Y1645980D1*
X463240Y1643128D1*
X491958D1*
Y1624601D2*
X431736Y1584409D1*
X431670Y1565882D2*
X491958D1*
Y1531460D1*
X451766Y1478511D2*
X491958D1*
X460388D2*
X454618Y1484215D1*
X451766Y1489985D1*
Y1498541D1*
X454618Y1504311D1*
X460388Y1510015D1*
X469010Y1512933D1*
X474714D1*
X483336Y1510015D1*
X489040Y1504311D1*
X491958Y1498541D1*
Y1489985D1*
X489040Y1484215D1*
X483336Y1478511D1*
X460388Y1428414D2*
X454618Y1431266D1*
X451766Y1439888D1*
Y1448510D1*
X454618Y1457132D1*
X460388Y1459984D1*
X466092Y1457132D1*
X469010Y1451362D1*
X471862Y1437036D1*
X474714Y1431266D1*
X480484Y1428414D1*
X483336D1*
X489040Y1431266D1*
X491958Y1439888D1*
Y1448510D1*
X489040Y1457132D1*
X483336Y1459984D1*
X469010Y1409887D2*
Y1375465D1*
X463240D1*
X457470Y1378317D1*
X454618Y1381169D1*
X451766Y1386939D1*
Y1395561D1*
X454618Y1401265D1*
X460388Y1407035D1*
X469010Y1409887D1*
X474714D1*
X483336Y1407035D1*
X489040Y1401265D1*
X491958Y1395561D1*
Y1386939D1*
X489040Y1381169D1*
X483336Y1375465D1*
X451766Y1356938D2*
X491958D1*
X469010D2*
X460388Y1354020D1*
X454618Y1348316D1*
X451766Y1342546D1*
Y1333924D1*
X431670Y1236980D2*
X491958D1*
X431670Y1257076D2*
Y1216884D1*
X491958Y1152461D2*
X431670D1*
X491958Y1175409D1*
X431670Y1198357D1*
X491958D1*
X445996Y1090890D2*
X440292Y1093742D1*
X434522Y1099512D1*
X431670Y1105216D1*
Y1116690D1*
X434522Y1122460D1*
X440292Y1128164D1*
X445996Y1131082D1*
X454618Y1133934D1*
X469010D1*
X477566Y1131082D1*
X483336Y1128164D1*
X489040Y1122460D1*
X491958Y1116690D1*
Y1105216D1*
X489040Y1099512D1*
X483336Y1093742D1*
X477566Y1090890D1*
X446062Y1069445D2*
X443210D1*
X437440Y1066593D1*
X434588Y1063741D1*
X431736Y1057971D1*
Y1046497D1*
X434588Y1040793D1*
X437440Y1037941D1*
X443210Y1035023D1*
X448914D1*
X454684Y1037941D1*
X463240Y1043645D1*
X491958Y1072363D1*
Y1032171D1*
X443210Y1013644D2*
X440292Y1007874D1*
X431736Y999252D1*
X491958D1*
X431736Y974954D2*
Y943451D1*
X454684Y960628D1*
Y952006D1*
X457536Y946303D1*
X460388Y943451D1*
X469010Y940532D1*
X474714D1*
X483336Y943451D1*
X489106Y949154D1*
X491958Y957777D1*
Y966399D1*
X489106Y974954D1*
X486188Y977806D1*
X480484Y980724D1*
X431736Y904761D2*
X434588Y913383D1*
X443210Y919153D1*
X457536Y922005D1*
X466158D1*
X480484Y919153D1*
X489106Y913383D1*
X491958Y904761D1*
Y899057D1*
X489106Y890435D1*
X480484Y884732D1*
X466158Y881813D1*
X457536D1*
X443210Y884732D1*
X434588Y890435D1*
X431736Y899057D1*
Y904761D1*
X443210Y884732D2*
X480484Y919153D1*
X431670Y804965D2*
X491958Y782017D1*
X431670Y759069D1*
X446062Y737624D2*
X443210D1*
X437440Y734772D1*
X434588Y731920D1*
X431736Y726150D1*
Y714676D1*
X434588Y708972D1*
X437440Y706120D1*
X443210Y703202D1*
X448914D1*
X454684Y706120D1*
X463240Y711824D1*
X491958Y740542D1*
Y700350D1*
X575419Y1170553D2*
X635707D1*
X604137D2*
X598367Y1164783D1*
X595515Y1159079D1*
Y1150457D1*
X598367Y1144753D1*
X604137Y1138983D1*
X612759Y1136131D1*
X618463D1*
X627085Y1138983D1*
X632789Y1144753D1*
X635707Y1150457D1*
Y1159079D1*
X632789Y1164783D1*
X627085Y1170553D1*
X595515Y1117604D2*
X624233D1*
X632789Y1114752D1*
X635707Y1108982D1*
Y1100360D1*
X632789Y1094656D1*
X624233Y1086034D1*
X595515D2*
X635707D1*
X575419Y1067507D2*
X578271Y1064655D1*
X575419Y1061737D1*
X572501Y1064655D1*
X575419Y1067507D1*
X595515Y1064655D2*
X635707D1*
X575419Y1043210D2*
X635707D1*
X575419Y990261D2*
X635707D1*
X604137D2*
X598367Y995965D1*
X595515Y1001735D1*
Y1010357D1*
X598367Y1016061D1*
X604137Y1021831D1*
X612759Y1024683D1*
X618463D1*
X627085Y1021831D1*
X632789Y1016061D1*
X635707Y1010357D1*
Y1001735D1*
X632789Y995965D1*
X627085Y990261D1*
X575419Y971734D2*
X635707D1*
X595515Y938881D2*
X598367Y944585D1*
X604137Y950355D1*
X612759Y953207D1*
X618463D1*
X627085Y950355D1*
X632789Y944585D1*
X635707Y938881D1*
Y930259D1*
X632789Y924489D1*
X627085Y918785D1*
X618463Y915867D1*
X612759D1*
X604137Y918785D1*
X598367Y924489D1*
X595515Y930259D1*
Y938881D1*
X598367Y862918D2*
X644329D1*
X652885Y865770D1*
X655803Y868622D1*
X658655Y874392D1*
Y883014D1*
X655803Y888718D1*
X606989Y862918D2*
X601285Y868622D1*
X598367Y874392D1*
Y883014D1*
X601285Y888718D1*
X606989Y894488D1*
X615611Y897340D1*
X621381D1*
X629937Y894488D1*
X635707Y888718D1*
X638559Y883014D1*
Y874392D1*
X635707Y868622D1*
X629937Y862918D1*
Y841539D2*
X632855Y844391D1*
X635707Y841539D1*
X632855Y838621D1*
X629937Y841539D1*
X595515Y820093D2*
X635707D1*
X606989D2*
X598367Y811471D1*
X595515Y805701D1*
Y797146D1*
X598367Y791375D1*
X606989Y788523D1*
X635707D1*
X612759Y769996D2*
Y735575D1*
X606989D1*
X601219Y738426D1*
X598367Y741278D1*
X595515Y747049D1*
Y755671D1*
X598367Y761374D1*
X604137Y767145D1*
X612759Y769996D1*
X618463D1*
X627085Y767144D1*
X632789Y761374D1*
X635707Y755671D1*
Y747048D1*
X632789Y741278D1*
X627085Y735575D1*
X575419Y708425D2*
X624233D1*
X632789Y705574D1*
X635707Y699803D1*
Y694100D1*
X595515Y717048D2*
Y696952D1*
X589811Y1959588D2*
Y1968210D1*
X592663Y1973914D1*
X595515Y1976832D1*
X601285Y1979684D1*
X612759D1*
X615611Y1976832D1*
Y1971062D1*
X612759Y1959588D1*
X618463Y1956736D1*
Y1953884D1*
X612759Y1948114D1*
X598433Y1945262D1*
X589811Y1948114D1*
X584041Y1950966D1*
X578337Y1956736D1*
X575486Y1962440D1*
Y1973914D1*
X578337Y1979684D1*
X584041Y1985388D1*
X589811Y1988306D1*
X598433Y1991158D1*
X612759D1*
X621381Y1988306D1*
X627085Y1985388D1*
X632855Y1979684D1*
X635707Y1973914D1*
Y1962440D1*
X632855Y1956736D1*
X627085Y1950966D1*
X586960Y1959588D2*
X612759D1*
X575419Y1926735D2*
X635707D1*
X604137D2*
X598367Y1920965D1*
X595515Y1915261D1*
Y1906639D1*
X598367Y1900935D1*
X604137Y1895165D1*
X612759Y1892313D1*
X618463D1*
X627085Y1895165D1*
X632789Y1900935D1*
X635707Y1906639D1*
Y1915261D1*
X632789Y1920965D1*
X627085Y1926735D1*
X595515Y1873786D2*
X624233D1*
X632789Y1870934D1*
X635707Y1865164D1*
Y1856542D1*
X632789Y1850838D1*
X624233Y1842216D1*
X595515D2*
X635707D1*
X575419Y1823689D2*
X578271Y1820837D1*
X575419Y1817919D1*
X572501Y1820837D1*
X575419Y1823689D1*
X595515Y1820837D2*
X635707D1*
X575419Y1799392D2*
X635707D1*
X575419Y1746443D2*
X635707D1*
X604137D2*
X598367Y1752147D1*
X595515Y1757917D1*
Y1766539D1*
X598367Y1772243D1*
X604137Y1778013D1*
X612759Y1780865D1*
X618463D1*
X627085Y1778013D1*
X632789Y1772243D1*
X635707Y1766539D1*
Y1757917D1*
X632789Y1752147D1*
X627085Y1746443D1*
X575419Y1727916D2*
X635707D1*
X595515Y1695063D2*
X598367Y1700767D1*
X604137Y1706537D1*
X612759Y1709389D1*
X618463D1*
X627085Y1706537D1*
X632789Y1700767D1*
X635707Y1695063D1*
Y1686441D1*
X632789Y1680671D1*
X627085Y1674967D1*
X618463Y1672048D1*
X612759Y1672049D1*
X604137Y1674967D1*
X598367Y1680671D1*
X595515Y1686441D1*
Y1695063D1*
X598367Y1619100D2*
X644329D1*
X652885Y1621952D1*
X655803Y1624803D1*
X658655Y1630573D1*
Y1639195D1*
X655803Y1644899D1*
X606989Y1619100D2*
X601285Y1624803D1*
X598367Y1630574D1*
Y1639196D1*
X601285Y1644899D1*
X606989Y1650670D1*
X615611Y1653521D1*
X621381D1*
X629937Y1650670D1*
X635707Y1644899D1*
X638559Y1639196D1*
Y1630574D1*
X635707Y1624803D1*
X629937Y1619100D1*
M02*
