M48
INCH
T01C0.013
T02C0.0191
T03C0.035
T04C0.0354
T05C0.0394
T06C0.0433
T07C0.14
%
T01
X+025623Y+009500
X+025363Y+009500
X+025103Y+009500
X+025103Y+009890
X+025363Y+009890
X+025623Y+009890
X+025623Y+010280
X+025363Y+010280
X+025103Y+010280
X+023147Y+006377
X+023147Y+005987
T02
X+008812Y+022937
X+008187Y+020687
X+010812Y+020687
X+011562Y+022937
X+013499Y+022562
X+013999Y+021499
X+018312Y+020375
X+019249Y+019875
X+018687Y+022437
X+024499Y+022937
X+025125Y+022937
X+025687Y+022937
X+024625Y+017375
X+024125Y+017375
X+025312Y+016437
X+026403Y+012490
X+022499Y+011437
X+020687Y+011937
X+018312Y+014437
X+019249Y+015437
X+015437Y+016937
X+011687Y+016937
X+010049Y+015549
X+010937Y+014437
X+012249Y+013562
X+013062Y+012312
X+013499Y+012687
X+013999Y+011062
X+012687Y+010437
X+014437Y+008437
X+014437Y+006187
X+010437Y+008687
X+008687Y+008437
X+008687Y+006187
X+009000Y+011437
X+007812Y+011937
X+009000Y+013937
X+005562Y+024437
X+022437Y+004937
X+022937Y+004937
X+027697Y+004947
T03
X+020687Y+014375
X+021687Y+014375
X+022687Y+014375
X+023687Y+014375
X+024687Y+014375
X+025687Y+014375
X+026687Y+014375
X+027687Y+014375
X+027687Y+019375
X+026687Y+019375
X+025687Y+019375
X+024687Y+019375
X+023687Y+019375
X+022687Y+019375
X+021687Y+019375
X+020687Y+019375
X+021187Y+020937
X+022187Y+020937
X+023187Y+020937
X+024187Y+020937
X+025187Y+020937
X+026187Y+020937
X+027187Y+020937
X+028187Y+020937
X+028187Y+025937
X+027187Y+025937
X+026187Y+025937
X+025187Y+025937
X+024187Y+025937
X+023187Y+025937
X+022187Y+025937
X+021187Y+025937
X+021187Y+022937
X+021187Y+021937
X+016187Y+021437
X+016187Y+022437
X+016187Y+020437
X+016187Y+019437
X+016187Y+018437
X+016187Y+017437
X+016187Y+016437
X+016187Y+015437
X+016187Y+014437
X+016187Y+013437
X+016187Y+012437
X+016187Y+011437
X+016187Y+010437
X+016187Y+009437
X+016187Y+008437
X+016187Y+007437
X+016187Y+006437
X+016187Y+005437
X+016187Y+004437
X+007187Y+004437
X+007187Y+005437
X+007187Y+006437
X+007187Y+007437
X+007187Y+008437
X+007187Y+009437
X+007187Y+010437
X+007187Y+011437
X+007187Y+012437
X+007187Y+013437
X+007187Y+014437
X+007187Y+015437
X+007187Y+016437
X+007187Y+017437
X+007187Y+018437
X+007187Y+019437
X+007187Y+020437
X+007187Y+021437
X+007187Y+022437
X+020687Y+016375
X+020687Y+015375
T04
X+017187Y+004437
X+017187Y+005437
X+017187Y+006437
X+017187Y+007437
X+017187Y+008437
X+017187Y+009437
X+017187Y+010437
X+017187Y+011437
X+017187Y+012437
X+017187Y+013437
X+017187Y+014437
X+017187Y+015437
X+017187Y+016437
X+017187Y+017437
X+017187Y+018437
X+017187Y+019437
X+017187Y+020437
X+017187Y+021437
X+017187Y+022437
X+009937Y+025687
X+008937Y+025687
X+007937Y+025687
X+007937Y+026687
X+008937Y+026687
X+009937Y+026687
X+009749Y+017625
X+008749Y+017625
X+008749Y+016625
X+009749Y+016625
X+030437Y+016437
X+030437Y+015437
X+030437Y+017437
X+030437Y+018437
X+030437Y+020812
X+030437Y+021812
X+030437Y+022812
X+030437Y+023812
X+030437Y+010437
X+030437Y+009437
T05
X+020134Y+009437G85X+019740Y+009437
X+021787Y+008059G85X+021787Y+008453
X+020134Y+007075G85X+019740Y+007075
X+013005Y+005096
X+009856Y+005096
T06
X+011687Y+026687
X+012687Y+026687
X+013687Y+026687
T07
X+005315Y+005315
X+005315Y+026037
X+030197Y+026037
X+030197Y+005237
T00
M30
