G04 DipTrace 3.3.1.3*
G04 Top.gbr*
%MOIN*%
G04 #@! TF.FileFunction,Copper,L1,Top*
G04 #@! TF.Part,Single*
G04 #@! TA.AperFunction,Conductor*
%ADD14C,0.012*%
%ADD15C,0.014*%
G04 #@! TA.AperFunction,ViaPad*
%ADD17C,0.03*%
G04 #@! TA.AperFunction,CopperBalancing*
%ADD18C,0.025*%
G04 #@! TA.AperFunction,ViaPad*
%ADD19C,0.04*%
G04 #@! TA.AperFunction,Conductor*
%ADD20C,0.05*%
G04 #@! TA.AperFunction,CopperBalancing*
%ADD21C,0.013*%
%ADD24R,0.163386X0.062992*%
%ADD25R,0.059055X0.051181*%
%ADD26R,0.051181X0.059055*%
%ADD27R,0.070866X0.062992*%
%ADD29R,0.066929X0.098425*%
%ADD31R,0.098425X0.066929*%
G04 #@! TA.AperFunction,ComponentPad*
%ADD32R,0.059055X0.059055*%
%ADD33C,0.059055*%
%ADD34R,0.066929X0.066929*%
%ADD35C,0.066929*%
%ADD36O,0.11811X0.07874*%
%ADD37O,0.07874X0.11811*%
%ADD38R,0.027559X0.051181*%
%ADD39R,0.047244X0.07874*%
%ADD40R,0.047244X0.055118*%
%ADD41R,0.031496X0.055118*%
%ADD42R,0.137795X0.09252*%
G04 #@! TA.AperFunction,ComponentPad*
%ADD43C,0.2*%
%ADD44R,0.059X0.059*%
%ADD45C,0.059*%
%ADD47R,0.062992X0.024016*%
%ADD48R,0.10315X0.138189*%
G04 #@! TA.AperFunction,ComponentPad*
%ADD49C,0.06*%
%FSLAX26Y26*%
G04*
G70*
G90*
G75*
G01*
G04 Top*
%LPD*%
X793700Y2668700D2*
D14*
Y2568700D1*
X718700Y2243700D2*
Y2343700D1*
X793700Y2418700D1*
Y2568700D1*
X1134779Y940700D2*
Y1652621D1*
X1081200Y1706200D1*
Y2068700D1*
X818700D2*
Y2206200D1*
X781200Y2243700D1*
X718700D1*
X2718700Y2593700D2*
D15*
Y2218700D1*
X2668700Y2168700D1*
Y1937451D1*
X2640254Y1248991D2*
D17*
Y1196991D1*
X2374487Y502734D2*
X2302734D1*
X2293700Y493700D1*
X2243700D1*
X1268700Y2668700D2*
Y2418700D1*
X1481200Y2206200D1*
Y1081200D1*
X1531200Y1031200D1*
Y818700D1*
X1568700Y781200D1*
X2243700Y493700D2*
Y481200D1*
X1831200D1*
X1793700Y518700D1*
X556200Y2443700D2*
D18*
Y2376180D1*
X3043700Y943700D2*
D17*
Y843700D1*
X2768511Y568511D1*
X2730700D1*
X2796254Y1196991D2*
D14*
Y1183991D1*
X2718254Y1105991D1*
X2374487Y612970D2*
X2328970D1*
X2314700Y598700D1*
X2374487Y612970D2*
X2339430D1*
X2314700Y637700D1*
X1048165Y940700D2*
Y951735D1*
X1043700Y956200D1*
X881200Y2218503D2*
Y2293700D1*
X1156200Y2218503D2*
Y2293700D1*
X874936Y525346D2*
Y612464D1*
X868700Y618700D1*
X874936Y907235D2*
Y849936D1*
X868700Y843700D1*
X1452889Y907235D2*
Y852889D1*
X1443700Y843700D1*
X1452889Y525346D2*
Y609511D1*
X1443700Y618700D1*
X1048165Y940700D2*
Y873165D1*
X1043700Y868700D1*
X2449949Y2293700D2*
X2462451D1*
X2512451Y2343700D1*
Y2293700D2*
Y2343700D1*
X2518700D1*
X2568700Y2293700D1*
X1618700Y2243700D2*
X1718700D1*
X1618700Y1643700D2*
X1718700D1*
X1399949Y2149949D2*
Y1106200D1*
X1349949Y2256200D2*
Y1268700D1*
X1618700Y2143700D2*
X1718700D1*
X1178086Y940700D2*
X1168700D1*
Y1693700D1*
X1543700D2*
Y2068700D1*
X1618700Y2143700D1*
X2168700Y1437451D2*
X2243700Y1512451D1*
X2287451D1*
X2362449Y1587449D1*
Y1799949D1*
X2287449Y1874949D1*
X2243701D1*
X2218700Y1899951D1*
Y2093700D1*
X968700Y2218503D2*
Y2418700D1*
X893700Y2493700D1*
Y2568700D1*
X993700D2*
Y2518700D1*
X1068700Y2443700D1*
Y2218503D1*
X1618700Y1943700D2*
X1718700D1*
X1618700Y1743700D2*
X1718700D1*
Y1343700D2*
X1618700D1*
X1221393Y940700D2*
X1224949D1*
Y1356200D1*
X1618700Y1143700D2*
X1718700D1*
X2368700Y1437451D2*
X2249949Y1318700D1*
Y1143700D1*
X1718700Y1443700D2*
X1618700D1*
X1091472Y940700D2*
X1093700D1*
Y1443700D1*
X1831200Y2037451D2*
Y1443700D1*
X1718700Y1243700D2*
X1618700D1*
X1868700Y2243700D2*
Y1393700D1*
X1718700Y1243700D1*
X1618700Y1543700D2*
X1718700D1*
X1004857Y940700D2*
Y1554857D1*
X2468700Y1437451D2*
X2587451Y1556201D1*
Y1799949D1*
X2518700Y1868700D1*
Y2093700D1*
X1924949Y1543700D2*
Y1987451D1*
X899951Y1393700D2*
Y1143700D1*
X1618700Y743700D2*
X1718700D1*
X556200Y2218700D2*
D18*
Y731200D1*
X656200Y631200D1*
Y506200D1*
X718700Y443700D1*
X1168700Y2668700D2*
D14*
Y2593700D1*
X1218700Y2543700D1*
Y1868700D1*
X1306200Y1781200D1*
Y1231200D1*
X968700Y2143700D2*
X881200D1*
X718700Y1643700D2*
X743700D1*
X806200Y1706200D1*
X818699D1*
X874949Y1762451D1*
Y2137449D1*
X881200Y2143700D1*
X1618700Y2043700D2*
X1718700D1*
X1618700Y1843700D2*
X1718700D1*
X1068700Y2143700D2*
X1156200D1*
X1718700Y1043700D2*
X1618700D1*
X1156200Y2143700D2*
Y1781200D1*
X1268700Y1668700D1*
Y1043700D1*
X874949Y1662451D2*
X887451D1*
X931200Y1706200D1*
Y1931200D1*
X1037451Y2037451D1*
Y2112451D1*
X1068700Y2143700D1*
X1618700Y943700D2*
X1718700D1*
Y843700D2*
X1618700D1*
X1718700Y643700D2*
X1618700D1*
X1718700Y543700D2*
X1618700D1*
Y443700D2*
X1718700D1*
X2430611Y1012939D2*
X2395306D1*
X2380254Y1027991D1*
X2344451D1*
X2341254Y1031188D1*
X2718254Y1014991D2*
X2645262D1*
X2643209Y1012939D1*
X2793057Y1105991D2*
Y1014991D1*
X2643209Y1062939D2*
Y1119233D1*
X2640254Y1122188D1*
X2646648D1*
X2721451Y1196991D1*
X2068700Y1437451D2*
Y1193700D1*
X781200D2*
Y906200D1*
X718700Y843700D1*
X2068700Y1437451D2*
X2081200D1*
X2199949Y1556200D1*
X2243700D1*
X2331200Y1643700D1*
Y1762449D1*
X2243700Y1849949D1*
X2143700D1*
X2118700Y1874949D1*
Y2093700D1*
X2430611Y962939D2*
X2347965D1*
X2341254Y956228D1*
X1993700Y943700D2*
D20*
X2018700D1*
X2031228Y956228D1*
X2341254D1*
X2264419Y2343700D2*
Y2372981D1*
X2187449Y2449949D1*
X1993700D1*
Y1937451D1*
Y1774949D1*
Y943700D1*
X2220669Y1687451D2*
Y1710482D1*
X2156200Y1774949D1*
X1993700D1*
X2118700Y2593700D2*
X2037451D1*
X1993700Y2549949D1*
Y2449949D1*
X2068700Y1937451D2*
X1993700D1*
D19*
X1081200Y2068700D3*
X818700D3*
X556200Y2443700D3*
X1399949Y2149949D3*
Y1106200D3*
X1349949Y2256200D3*
Y1268700D3*
X1168700Y1693700D3*
X1543700D3*
X1224949Y1356200D3*
X2249949Y1143700D3*
X1093700Y1443700D3*
X1831200Y2037451D3*
Y1443700D3*
X1868700Y2243700D3*
X1004857Y1554857D3*
X1924949Y1543700D3*
Y1987451D3*
X899951Y1393700D3*
Y1143700D3*
X1306200Y1231200D3*
X1268700Y1043700D3*
X2068700Y1193700D3*
X781200D3*
X881200Y2293700D3*
X1156200D3*
X868700Y618700D3*
X1443700D3*
X868700Y843700D3*
X1443700D3*
X1043700Y868700D3*
D17*
X2562254Y949991D3*
X2536254D3*
X2510254D3*
X2562254Y988991D3*
X2536254D3*
X2510254D3*
X2562254Y1027991D3*
X2536254D3*
X2510254D3*
X2314700Y598700D3*
Y637700D3*
D19*
X2640254Y1248991D3*
X2769700Y494700D3*
X2293700Y493700D3*
X2243700D3*
X2568700Y2293700D3*
X2412451Y1737451D3*
X2449949Y2293700D3*
X2512451D3*
X2462451Y1737451D3*
X2531200Y1643700D3*
X2574566Y600599D2*
D18*
X2793699D1*
X2553357Y575730D2*
X2793699D1*
X2532150Y550861D2*
X2793699D1*
X2342718Y525993D2*
X2793699D1*
X2342718Y501124D2*
X2793699D1*
X2796200Y481224D2*
Y625191D1*
X2593200Y625461D1*
X2517829Y537204D1*
X2515388Y535569D1*
X2512632Y534549D1*
X2509710Y534200D1*
X2340218D1*
X2340200Y481212D1*
X2796169Y481200D1*
X2628129Y888069D2*
X2671968D1*
X2501961Y863200D2*
X2672758D1*
X2501961Y838331D2*
X2809440D1*
X2501961Y813462D2*
X2809440D1*
X2489043Y788594D2*
X2809440D1*
X2464498Y763725D2*
X2809440D1*
X2464498Y738856D2*
X2609780D1*
X2464498Y713987D2*
X2579924D1*
X2464498Y689119D2*
X2550069D1*
X2630746Y750457D2*
X2811961D1*
X2811940Y844210D1*
X2697498Y844348D1*
X2694670Y845146D1*
X2692106Y846582D1*
X2685615Y852855D1*
X2676842Y861846D1*
X2675406Y864410D1*
X2674608Y867238D1*
X2674455Y878380D1*
Y912936D1*
X2643427Y912938D1*
X2614623Y872924D1*
X2612330Y871087D1*
X2609671Y869835D1*
X2606794Y869239D1*
X2499460Y869192D1*
X2499322Y804745D1*
X2498524Y801917D1*
X2497088Y799352D1*
X2489318Y791365D1*
X2461983Y764031D1*
X2461980Y687998D1*
X2551199Y687964D1*
X2624309Y748693D1*
X2626993Y749892D1*
X2629885Y750430D1*
X2303718Y834331D2*
X2365283D1*
X2303718Y809462D2*
X2365678D1*
X2303718Y784594D2*
X2373859D1*
X2303718Y759725D2*
X2402028D1*
X2303718Y734856D2*
X2403321D1*
X2303718Y709987D2*
X2403356D1*
X2303718Y685119D2*
X2403428D1*
X2303718Y660250D2*
X2403499D1*
X2303718Y635381D2*
X2403571D1*
X2303718Y610512D2*
X2403644D1*
X2384623Y782964D2*
X2376360D1*
Y792616D1*
X2370184Y799999D1*
X2368911Y802649D1*
X2368292Y805520D1*
X2367398Y859208D1*
X2301221Y859200D1*
X2301200Y598226D1*
X2406149Y598200D1*
X2405745Y758305D1*
X2384619Y782964D1*
X2330272Y1276623D2*
X2600360D1*
X2680142D2*
X2807268D1*
X2330272Y1251754D2*
X2572048D1*
X2795617D2*
X2807268D1*
X2330272Y1226885D2*
X2571508D1*
X2795690D2*
X2807268D1*
X2330272Y1202016D2*
X2571043D1*
X2795690D2*
X2807268D1*
X2330272Y1177148D2*
X2570540D1*
X2330272Y1152279D2*
X2570074D1*
X2330272Y1127410D2*
X2569607D1*
X2330272Y1102541D2*
X2569104D1*
X2400426Y1077672D2*
X2568638D1*
X2508221Y1052804D2*
X2568172D1*
X2508221Y1027935D2*
X2567670D1*
X2508221Y1003066D2*
X2567203D1*
X2508221Y978197D2*
X2566737D1*
X2508221Y953329D2*
X2566234D1*
X2386743Y1083279D2*
X2397281D1*
Y1078003D1*
X2408671Y1075423D1*
X2495180Y1075270D1*
X2498008Y1074472D1*
X2500573Y1073036D1*
X2502730Y1071041D1*
X2504363Y1068598D1*
X2505380Y1065842D1*
X2505725Y1062923D1*
Y937939D1*
X2568474Y937938D1*
X2574619Y1252359D1*
X2575417Y1255187D1*
X2576852Y1257751D1*
X2578847Y1259909D1*
X2581291Y1261541D1*
X2584046Y1262558D1*
X2586965Y1262903D1*
X2595901D1*
X2598822Y1270102D1*
X2602634Y1276323D1*
X2607373Y1281872D1*
X2612922Y1286611D1*
X2619144Y1290423D1*
X2625885Y1293216D1*
X2632980Y1294919D1*
X2640254Y1295491D1*
X2647528Y1294919D1*
X2654623Y1293216D1*
X2661364Y1290423D1*
X2667586Y1286611D1*
X2673134Y1281872D1*
X2677873Y1276323D1*
X2681686Y1270102D1*
X2684606Y1262907D1*
X2782650Y1262750D1*
X2785478Y1261952D1*
X2788043Y1260516D1*
X2790200Y1258522D1*
X2791833Y1256078D1*
X2792850Y1253322D1*
X2793195Y1250403D1*
Y1182259D1*
X2809721Y1182952D1*
X2809754Y1301502D1*
X2327734Y1301491D1*
X2327754Y1091545D1*
X2377386Y1087581D1*
X2379256Y1086976D1*
X2419527Y888069D2*
X2441941D1*
X2420746Y863200D2*
X2440722D1*
X2420746Y838331D2*
X2440722D1*
X2449478Y893145D2*
Y912953D1*
X2411991Y912938D1*
X2412073Y893031D1*
X2415847Y889040D1*
X2417283Y886476D1*
X2418081Y883648D1*
X2418234Y874193D1*
Y819207D1*
X2443233Y819200D1*
X2443382Y883648D1*
X2444180Y886476D1*
X2445616Y889040D1*
X2449482Y893124D1*
X1551512Y786831D2*
D21*
X1592077D1*
X1645331D2*
X1693004D1*
X1744380D2*
X1810893D1*
X1551512Y773962D2*
X1577579D1*
X1659829D2*
X1678176D1*
X1759233D2*
X1810893D1*
X1551512Y761094D2*
X1570495D1*
X1766393D2*
X1810893D1*
X1551512Y748225D2*
X1567575D1*
X1769339D2*
X1810893D1*
X1551512Y735356D2*
X1568083D1*
X1768831D2*
X1810893D1*
X1551512Y722487D2*
X1572094D1*
X1764768D2*
X1810893D1*
X1551512Y709619D2*
X1580777D1*
X1656604D2*
X1681426D1*
X1755959D2*
X1810893D1*
X1551512Y696750D2*
X1600151D1*
X1637256D2*
X1701561D1*
X1735823D2*
X1810893D1*
X1551512Y683881D2*
X1587608D1*
X1649800D2*
X1688409D1*
X1749001D2*
X1810893D1*
X1551512Y671012D2*
X1575497D1*
X1661911D2*
X1676069D1*
X1761340D2*
X1810893D1*
X1551512Y658144D2*
X1569504D1*
X1767384D2*
X1810893D1*
X1551512Y645275D2*
X1567397D1*
X1769516D2*
X1810893D1*
X1551512Y632406D2*
X1568667D1*
X1768247D2*
X1810893D1*
X1551512Y619537D2*
X1573592D1*
X1763245D2*
X1810893D1*
X1551512Y606669D2*
X1583773D1*
X1653634D2*
X1684473D1*
X1752911D2*
X1810893D1*
X1551512Y593800D2*
X1613938D1*
X1623449D2*
X1810893D1*
X1551512Y580931D2*
X1584003D1*
X1653405D2*
X1684701D1*
X1752683D2*
X1810893D1*
X1551512Y568062D2*
X1573720D1*
X1763144D2*
X1810893D1*
X1551512Y555193D2*
X1568717D1*
X1768196D2*
X1810893D1*
X1551512Y542325D2*
X1567397D1*
X1769516D2*
X1810893D1*
X1551512Y529456D2*
X1569453D1*
X1767460D2*
X1810893D1*
X1551512Y516587D2*
X1575369D1*
X1662039D2*
X1675917D1*
X1761468D2*
X1810893D1*
X1551512Y503718D2*
X1587354D1*
X1650054D2*
X1688129D1*
X1749255D2*
X1810893D1*
X1551512Y490850D2*
X1600709D1*
X1636699D2*
X1667842D1*
X1769543D2*
X1810893D1*
X1675653Y493247D2*
X1768247D1*
Y487687D1*
X1812205Y487700D1*
X1812200Y799675D1*
X1741487Y799700D1*
X1737661Y797924D1*
X1730267Y795522D1*
X1722587Y794305D1*
X1714813D1*
X1707133Y795522D1*
X1699739Y797924D1*
X1695955Y799693D1*
X1642515Y799700D1*
X1637842Y797487D1*
X1630377Y795062D1*
X1622624Y793834D1*
X1617857Y793687D1*
X1610875Y794296D1*
X1603243Y796128D1*
X1595991Y799132D1*
X1594987Y799693D1*
X1550195Y799700D1*
X1550200Y487725D1*
X1594913Y487700D1*
X1599558Y489913D1*
X1607023Y492338D1*
X1614776Y493566D1*
X1619543Y493713D1*
X1626525Y493104D1*
X1634157Y491272D1*
X1641409Y488268D1*
X1642413Y487707D1*
X1669155Y487700D1*
X1669153Y493247D1*
X1675653D1*
X1768095Y639813D2*
X1766878Y632133D1*
X1764476Y624739D1*
X1760947Y617812D1*
X1756376Y611522D1*
X1750878Y606024D1*
X1744588Y601453D1*
X1737661Y597924D1*
X1730267Y595522D1*
X1722587Y594305D1*
X1714813D1*
X1707133Y595522D1*
X1699739Y597924D1*
X1692812Y601453D1*
X1686522Y606024D1*
X1681024Y611522D1*
X1676546Y617672D1*
X1661350Y617565D1*
X1656735Y611214D1*
X1651186Y605665D1*
X1644835Y601050D1*
X1637842Y597487D1*
X1630377Y595062D1*
X1622624Y593834D1*
X1617857Y593687D1*
X1610875Y594296D1*
X1603243Y596128D1*
X1595991Y599132D1*
X1589298Y603233D1*
X1583330Y608330D1*
X1578233Y614298D1*
X1574132Y620991D1*
X1571128Y628243D1*
X1569296Y635875D1*
X1568680Y643700D1*
X1569296Y651525D1*
X1571128Y659157D1*
X1574132Y666409D1*
X1578233Y673102D1*
X1583330Y679070D1*
X1589298Y684167D1*
X1595991Y688268D1*
X1603243Y691272D1*
X1610875Y693104D1*
X1617857Y693687D1*
X1622624Y693566D1*
X1630377Y692338D1*
X1637842Y689913D1*
X1644835Y686350D1*
X1651186Y681735D1*
X1656735Y676186D1*
X1661350Y669835D1*
X1664200Y669720D1*
X1676515D1*
X1681024Y675878D1*
X1686522Y681376D1*
X1692812Y685947D1*
X1699739Y689476D1*
X1707133Y691878D1*
X1714813Y693095D1*
X1722587D1*
X1730267Y691878D1*
X1737661Y689476D1*
X1744588Y685947D1*
X1750878Y681376D1*
X1756376Y675878D1*
X1760947Y669588D1*
X1764476Y662661D1*
X1766878Y655267D1*
X1768095Y647587D1*
Y639813D1*
X1619543Y593687D2*
X1626525Y593104D1*
X1634157Y591272D1*
X1641409Y588268D1*
X1648102Y584167D1*
X1654070Y579070D1*
X1659167Y573102D1*
X1661417Y569714D1*
X1676546Y569728D1*
X1681024Y575878D1*
X1686522Y581376D1*
X1692812Y585947D1*
X1699739Y589476D1*
X1707133Y591878D1*
X1714813Y593095D1*
X1722587D1*
X1730267Y591878D1*
X1737661Y589476D1*
X1744588Y585947D1*
X1750878Y581376D1*
X1756376Y575878D1*
X1760947Y569588D1*
X1764476Y562661D1*
X1766878Y555267D1*
X1768095Y547587D1*
Y539813D1*
X1766878Y532133D1*
X1764476Y524739D1*
X1760947Y517812D1*
X1756376Y511522D1*
X1750878Y506024D1*
X1744588Y501453D1*
X1737661Y497924D1*
X1730267Y495522D1*
X1722587Y494305D1*
X1714813D1*
X1707133Y495522D1*
X1699739Y497924D1*
X1692812Y501453D1*
X1686522Y506024D1*
X1681024Y511522D1*
X1676546Y517672D1*
X1661350Y517565D1*
X1656735Y511214D1*
X1651186Y505665D1*
X1644835Y501050D1*
X1637842Y497487D1*
X1630377Y495062D1*
X1622624Y493834D1*
X1614776D1*
X1607023Y495062D1*
X1599558Y497487D1*
X1592565Y501050D1*
X1586214Y505665D1*
X1580665Y511214D1*
X1576050Y517565D1*
X1572487Y524558D1*
X1570062Y532023D1*
X1568834Y539776D1*
Y547624D1*
X1570062Y555377D1*
X1572487Y562842D1*
X1576050Y569835D1*
X1580665Y576186D1*
X1586214Y581735D1*
X1592565Y586350D1*
X1599558Y589913D1*
X1607023Y592338D1*
X1614776Y593566D1*
X1619543Y793687D2*
X1626525Y793104D1*
X1634157Y791272D1*
X1641409Y788268D1*
X1648102Y784167D1*
X1654070Y779070D1*
X1659167Y773102D1*
X1661417Y769714D1*
X1676546Y769728D1*
X1681024Y775878D1*
X1686522Y781376D1*
X1692812Y785947D1*
X1699739Y789476D1*
X1707133Y791878D1*
X1714813Y793095D1*
X1722587D1*
X1730267Y791878D1*
X1737661Y789476D1*
X1744588Y785947D1*
X1750878Y781376D1*
X1756376Y775878D1*
X1760947Y769588D1*
X1764476Y762661D1*
X1766878Y755267D1*
X1768095Y747587D1*
Y739813D1*
X1766878Y732133D1*
X1764476Y724739D1*
X1760947Y717812D1*
X1756376Y711522D1*
X1750878Y706024D1*
X1744588Y701453D1*
X1737661Y697924D1*
X1730267Y695522D1*
X1722587Y694305D1*
X1714813D1*
X1707133Y695522D1*
X1699739Y697924D1*
X1692812Y701453D1*
X1686522Y706024D1*
X1681024Y711522D1*
X1676546Y717672D1*
X1661350Y717565D1*
X1656735Y711214D1*
X1651186Y705665D1*
X1644835Y701050D1*
X1637842Y697487D1*
X1630377Y695062D1*
X1622624Y693834D1*
X1614776D1*
X1607023Y695062D1*
X1599558Y697487D1*
X1592565Y701050D1*
X1586214Y705665D1*
X1580665Y711214D1*
X1576050Y717565D1*
X1572487Y724558D1*
X1570062Y732023D1*
X1568834Y739776D1*
Y747624D1*
X1570062Y755377D1*
X1572487Y762842D1*
X1576050Y769835D1*
X1580665Y776186D1*
X1586214Y781735D1*
X1592565Y786350D1*
X1599558Y789913D1*
X1607023Y792338D1*
X1614776Y793566D1*
D24*
X2468700Y1687451D3*
X2220669D3*
X2512451Y2343700D3*
X2264419D3*
D25*
X881200Y2143700D3*
Y2218503D3*
X1156200Y2143700D3*
Y2218503D3*
D26*
X2503254Y838991D3*
X2428451D3*
D27*
X2341254Y845991D3*
Y956228D3*
X2374487Y612970D3*
Y502734D3*
D26*
X2718254Y1014991D3*
X2793057D3*
D29*
X556200Y2218700D3*
Y2376180D3*
D31*
X2503254Y721991D3*
X2345773D3*
D32*
X1718700Y443700D3*
D33*
Y543700D3*
Y643700D3*
Y743700D3*
Y843700D3*
Y943700D3*
Y1043700D3*
Y1143700D3*
Y1243700D3*
Y1343700D3*
Y1443700D3*
Y1543700D3*
Y1643700D3*
Y1743700D3*
Y1843700D3*
Y1943700D3*
Y2043700D3*
Y2143700D3*
Y2243700D3*
D32*
X3043700Y2081200D3*
D33*
Y2181200D3*
Y2281200D3*
Y2381200D3*
D32*
X793700Y2568700D3*
D33*
Y2668700D3*
X893700Y2568700D3*
Y2668700D3*
X993700Y2568700D3*
Y2668700D3*
D32*
X3043700Y1543700D3*
D33*
Y1643700D3*
Y1743700D3*
Y1843700D3*
D34*
X1168700Y2668700D3*
D35*
X1268700D3*
X1368700D3*
D36*
X1993700Y943700D3*
Y707480D3*
D37*
X2178739Y825590D3*
D38*
X1264700Y940700D3*
X1221393D3*
X1178086D3*
X1134779D3*
X1091472D3*
X1048165D3*
X1004857D3*
X961550D3*
X918243D3*
D39*
X1452889Y525346D3*
D40*
Y907235D3*
D41*
X874936D3*
D39*
Y525346D3*
D32*
X874949Y1762451D3*
D33*
X974949D3*
D32*
X874949Y1662451D3*
D33*
X974949D3*
D42*
X2730700Y806700D3*
Y568511D3*
D43*
X531495Y531495D3*
X531501Y2603700D3*
X3019700Y523700D3*
Y2603700D3*
D25*
X968700Y2218503D3*
Y2143700D3*
X1068700Y2218503D3*
Y2143700D3*
X2640254Y1196991D3*
Y1122188D3*
D26*
X2796254Y1196991D3*
X2721451D3*
D25*
X2341254Y1105991D3*
Y1031188D3*
D26*
X2718254Y1105991D3*
X2793057D3*
D44*
X2068700Y1437451D3*
D45*
X2168700D3*
X2268700D3*
X2368700D3*
X2468700D3*
X2568700D3*
X2668700D3*
X2768700D3*
Y1937451D3*
X2668700D3*
X2568700D3*
X2468700D3*
X2368700D3*
X2268700D3*
X2168700D3*
X2068700D3*
Y1537451D3*
Y1637451D3*
D44*
X2118700Y2093700D3*
D45*
X2218700D3*
X2318700D3*
X2418700D3*
X2518700D3*
X2618700D3*
X2718700D3*
X2818700D3*
Y2593700D3*
X2718700D3*
X2618700D3*
X2518700D3*
X2418700D3*
X2318700D3*
X2218700D3*
X2118700D3*
Y2193700D3*
Y2293700D3*
D47*
X2643209Y912939D3*
Y962939D3*
Y1012939D3*
Y1062939D3*
X2430611D3*
Y1012939D3*
Y962939D3*
Y912939D3*
D48*
X2536910Y987939D3*
D49*
X718700Y443700D3*
Y543700D3*
Y643700D3*
Y743700D3*
Y843700D3*
Y943700D3*
Y1043700D3*
Y1143700D3*
Y1243700D3*
Y1343700D3*
Y1443700D3*
Y1543700D3*
Y1643700D3*
Y1743700D3*
Y1843700D3*
Y1943700D3*
Y2043700D3*
Y2143700D3*
Y2243700D3*
X1618700Y443700D3*
Y543700D3*
Y643700D3*
Y743700D3*
Y843700D3*
Y943700D3*
Y1043700D3*
Y1143700D3*
Y1243700D3*
Y1343700D3*
Y1443700D3*
Y1543700D3*
Y1643700D3*
Y1743700D3*
Y1843700D3*
Y1943700D3*
Y2043700D3*
Y2143700D3*
Y2243700D3*
D32*
X3043700Y943700D3*
D33*
Y1043700D3*
M02*
