G04 DipTrace 3.3.1.3*
G04 TopMask.gbr*
%MOIN*%
G04 #@! TF.FileFunction,Soldermask,Top*
G04 #@! TF.Part,Single*
%ADD51C,0.03937*%
%ADD61C,0.068*%
%ADD63R,0.11115X0.146189*%
%ADD65R,0.070992X0.032016*%
%ADD67C,0.067*%
%ADD69R,0.067X0.067*%
%ADD71C,0.208*%
%ADD73R,0.145795X0.10052*%
%ADD75R,0.039496X0.063118*%
%ADD77R,0.055244X0.063118*%
%ADD79R,0.055244X0.08674*%
%ADD81R,0.035559X0.059181*%
%ADD83O,0.08674X0.12611*%
%ADD85O,0.12611X0.08674*%
%ADD87C,0.074929*%
%ADD89R,0.074929X0.074929*%
%ADD91C,0.067055*%
%ADD93R,0.067055X0.067055*%
%ADD95R,0.106425X0.074929*%
%ADD97R,0.074929X0.106425*%
%ADD99R,0.078866X0.070992*%
%ADD101R,0.059181X0.067055*%
%ADD103R,0.067055X0.059181*%
%ADD105R,0.171386X0.070992*%
%FSLAX26Y26*%
G04*
G70*
G90*
G75*
G01*
G04 TopMask*
%LPD*%
D105*
X2468700Y1687451D3*
X2220669D3*
X2512451Y2343700D3*
X2264419D3*
D103*
X881200Y2143700D3*
Y2218503D3*
X1156200Y2143700D3*
Y2218503D3*
D101*
X2503254Y838991D3*
X2428451D3*
D99*
X2341254Y845991D3*
Y956228D3*
X2374487Y612970D3*
Y502734D3*
D101*
X2718254Y1014991D3*
X2793057D3*
D97*
X556200Y2218700D3*
Y2376180D3*
D95*
X2503254Y721991D3*
X2345773D3*
D93*
X1718700Y443700D3*
D91*
Y543700D3*
Y643700D3*
Y743700D3*
Y843700D3*
Y943700D3*
Y1043700D3*
Y1143700D3*
Y1243700D3*
Y1343700D3*
Y1443700D3*
Y1543700D3*
Y1643700D3*
Y1743700D3*
Y1843700D3*
Y1943700D3*
Y2043700D3*
Y2143700D3*
Y2243700D3*
D93*
X3043700Y2081200D3*
D91*
Y2181200D3*
Y2281200D3*
Y2381200D3*
D93*
X793700Y2568700D3*
D91*
Y2668700D3*
X893700Y2568700D3*
Y2668700D3*
X993700Y2568700D3*
Y2668700D3*
D93*
X3043700Y1543700D3*
D91*
Y1643700D3*
Y1743700D3*
Y1843700D3*
D89*
X1168700Y2668700D3*
D87*
X1268700D3*
X1368700D3*
D85*
X1993700Y943700D3*
Y707480D3*
D83*
X2178739Y825590D3*
D81*
X1264700Y940700D3*
X1221393D3*
X1178086D3*
X1134779D3*
X1091472D3*
X1048165D3*
X1004857D3*
X961550D3*
X918243D3*
D79*
X1452889Y525346D3*
D77*
Y907235D3*
D75*
X874936D3*
D79*
Y525346D3*
D51*
X985566Y509598D3*
X1300527D3*
D93*
X874949Y1762451D3*
D91*
X974949D3*
D93*
X874949Y1662451D3*
D91*
X974949D3*
D73*
X2730700Y806700D3*
Y568511D3*
D71*
X531495Y531495D3*
X531501Y2603700D3*
X3019700Y523700D3*
Y2603700D3*
D103*
X968700Y2218503D3*
Y2143700D3*
X1068700Y2218503D3*
Y2143700D3*
X2640254Y1196991D3*
Y1122188D3*
D101*
X2796254Y1196991D3*
X2721451D3*
D103*
X2341254Y1105991D3*
Y1031188D3*
D101*
X2718254Y1105991D3*
X2793057D3*
D69*
X2068700Y1437451D3*
D67*
X2168700D3*
X2268700D3*
X2368700D3*
X2468700D3*
X2568700D3*
X2668700D3*
X2768700D3*
Y1937451D3*
X2668700D3*
X2568700D3*
X2468700D3*
X2368700D3*
X2268700D3*
X2168700D3*
X2068700D3*
Y1537451D3*
Y1637451D3*
D69*
X2118700Y2093700D3*
D67*
X2218700D3*
X2318700D3*
X2418700D3*
X2518700D3*
X2618700D3*
X2718700D3*
X2818700D3*
Y2593700D3*
X2718700D3*
X2618700D3*
X2518700D3*
X2418700D3*
X2318700D3*
X2218700D3*
X2118700D3*
Y2193700D3*
Y2293700D3*
D65*
X2643209Y912939D3*
Y962939D3*
Y1012939D3*
Y1062939D3*
X2430611D3*
Y1012939D3*
Y962939D3*
Y912939D3*
D63*
X2536910Y987939D3*
D61*
X718700Y443700D3*
Y543700D3*
Y643700D3*
Y743700D3*
Y843700D3*
Y943700D3*
Y1043700D3*
Y1143700D3*
Y1243700D3*
Y1343700D3*
Y1443700D3*
Y1543700D3*
Y1643700D3*
Y1743700D3*
Y1843700D3*
Y1943700D3*
Y2043700D3*
Y2143700D3*
Y2243700D3*
X1618700Y443700D3*
Y543700D3*
Y643700D3*
Y743700D3*
Y843700D3*
Y943700D3*
Y1043700D3*
Y1143700D3*
Y1243700D3*
Y1343700D3*
Y1443700D3*
Y1543700D3*
Y1643700D3*
Y1743700D3*
Y1843700D3*
Y1943700D3*
Y2043700D3*
Y2143700D3*
Y2243700D3*
D93*
X3043700Y943700D3*
D91*
Y1043700D3*
M02*
