G04 DipTrace 3.3.1.3*
G04 TopSilk.gbr*
%MOIN*%
G04 #@! TF.FileFunction,Legend,Top*
G04 #@! TF.Part,Single*
%ADD10C,0.009843*%
%ADD22C,0.008*%
%ADD23C,0.031499*%
%ADD28C,0.019677*%
%ADD30C,0.019695*%
%ADD46C,0.019705*%
%ADD107C,0.006176*%
%ADD108C,0.00772*%
%ADD109C,0.009264*%
%ADD111C,0.004632*%
%ADD112C,0.010807*%
%FSLAX26Y26*%
G04*
G70*
G90*
G75*
G01*
G04 TopSilk*
%LPD*%
X2224532Y1852451D2*
D10*
X2509775D1*
X2179606Y1807571D2*
X2224532Y1852451D1*
Y1522451D2*
X2509775D1*
X2179606Y1567331D2*
X2224532Y1522451D1*
X2179606Y1734707D2*
Y1807571D1*
Y1567331D2*
Y1640195D1*
X2509775Y1734707D2*
Y1852451D1*
Y1522451D2*
Y1640195D1*
D23*
X2147835Y1746488D3*
X2268282Y2508700D2*
D10*
X2553526D1*
X2223356Y2463820D2*
X2268282Y2508700D1*
Y2178700D2*
X2553526D1*
X2223356Y2223580D2*
X2268282Y2178700D1*
X2223356Y2390956D2*
Y2463820D1*
Y2223580D2*
Y2296444D1*
X2553526Y2390956D2*
Y2508700D1*
Y2178700D2*
Y2296444D1*
D23*
X2191586Y2402737D3*
X906771Y2102340D2*
D10*
X855629D1*
X1181771D2*
X1130629D1*
X2544613Y864562D2*
Y813420D1*
X2372718Y896779D2*
X2309789D1*
X2372718Y889330D2*
X2309789D1*
X2372718D2*
Y912889D1*
X2309789Y889330D2*
Y912889D1*
X2343023Y562183D2*
X2405952D1*
X2343023Y569632D2*
X2405952D1*
X2343023D2*
Y546073D1*
X2405952Y569632D2*
Y546073D1*
X2676894Y989420D2*
Y1040562D1*
X516834Y2179321D2*
X497145D1*
Y2415545D1*
X516834D1*
X595566Y2179321D2*
X615255D1*
Y2415545D1*
X595566D1*
X516834Y2277767D2*
X595566D1*
D28*
X556200Y2149807D3*
X2542633Y682625D2*
D10*
Y662936D1*
X2306408D1*
Y682625D1*
X2542633Y761357D2*
Y781046D1*
X2306408D1*
Y761357D1*
X2444187Y682625D2*
Y761357D1*
D30*
X2572147Y721991D3*
X1668700Y1919400D2*
D10*
Y1927000D1*
Y467800D2*
Y2293700D1*
Y393700D2*
Y467800D1*
X1768700Y393700D2*
X1668700D1*
X1768700D2*
Y2293700D1*
X1668700D1*
X3093700Y2431200D2*
X2993700D1*
X3093700Y2031200D2*
Y2431200D1*
X2993700Y2031200D2*
Y2431200D1*
X3093700Y2031200D2*
X2993700D1*
X852000Y2518700D2*
X1043700D1*
X743700D2*
X1043700D1*
X743700Y2718700D2*
X1043700D1*
X743700Y2518700D2*
Y2718700D1*
X1043700Y2518700D2*
Y2718700D1*
X3093700Y1893700D2*
X2993700D1*
X3093700Y1493700D2*
Y1893700D1*
X2993700Y1493700D2*
Y1893700D1*
X3093700Y1493700D2*
X2993700D1*
X1118719Y2718705D2*
X1418681D1*
Y2618700D1*
X1118719D1*
Y2718705D1*
X2170885Y748796D2*
Y404330D1*
X1816543D1*
Y408265D1*
Y404330D2*
Y971264D1*
X1922837D1*
X2064550D2*
X2170885D1*
Y902336D1*
X874954Y391291D2*
X899929Y416311D1*
X824936Y391291D2*
X1499936D1*
Y991291D1*
X824936D1*
Y391291D1*
X899929Y416311D2*
X1424944D1*
X1449919Y391291D1*
X1149949Y416311D2*
Y591271D1*
X1099931Y566311D1*
X1149949Y591271D2*
X1199966Y566311D1*
X1024949Y1712451D2*
Y1812451D1*
X824949Y1712451D2*
X1024949D1*
X824949D2*
Y1812451D1*
X1024949D1*
Y1612451D2*
Y1712451D1*
X824949Y1612451D2*
X1024949D1*
X824949D2*
Y1712451D1*
X1024949D1*
X2809436Y846081D2*
X2868495D1*
Y531114D1*
X2809436D1*
X2651964D2*
X2592905D1*
Y846081D1*
X2651964D1*
X2018700Y1387451D2*
X2818700D1*
Y1487471D1*
X2018700D1*
Y1387451D1*
Y1887431D2*
X2818700D1*
Y1987451D1*
X2018700D1*
Y1887431D1*
Y1487471D2*
X2818700D1*
Y1887431D1*
X2018700D1*
Y1487471D1*
X2068700Y2043700D2*
X2868700D1*
Y2143720D1*
X2068700D1*
Y2043700D1*
Y2543680D2*
X2868700D1*
Y2643700D1*
X2068700D1*
Y2543680D1*
Y2143720D2*
X2868700D1*
Y2543680D1*
X2068700D1*
Y2143720D1*
X2475894Y893254D2*
X2603851D1*
Y1080262D1*
X2475894D1*
Y893254D1*
D46*
X2593999Y903100D3*
G36*
X2515249Y893254D2*
X2564469D1*
Y912946D1*
X2515249D1*
Y893254D1*
G37*
X668700Y2293717D2*
D10*
X1668700D1*
Y393700D1*
X668700D1*
Y2293717D1*
X768700D2*
Y393700D1*
X1568700Y2293717D2*
Y393700D1*
X852600Y2294145D2*
D3*
X1018700Y543600D2*
X1318700D1*
Y393700D1*
X1018700D1*
Y543600D1*
X3093700Y1093700D2*
X2993700D1*
X3093700Y893700D2*
Y1093700D1*
Y893700D2*
X2993700D1*
Y1093700D1*
X843700Y2518700D2*
D22*
X1043700D1*
Y2343700D1*
X843700D1*
Y2518700D1*
Y2443700D2*
X1043700D1*
X1118700Y2618700D2*
X1418700D1*
Y2424949D1*
X1118700D1*
Y2618700D1*
Y2424949D2*
X1418700D1*
Y2337451D1*
X1118700D1*
Y2424949D1*
X2344614Y1901479D2*
D107*
X2342713Y1905281D1*
X2338866Y1909128D1*
X2335064Y1911029D1*
X2327414D1*
X2323568Y1909128D1*
X2319765Y1905281D1*
X2317820Y1901479D1*
X2315918Y1895731D1*
Y1886136D1*
X2317820Y1880432D1*
X2319765Y1876585D1*
X2323568Y1872783D1*
X2327414Y1870837D1*
X2335064D1*
X2338866Y1872783D1*
X2342713Y1876585D1*
X2344614Y1880432D1*
X2356966Y1903336D2*
X2360812Y1905281D1*
X2366560Y1910985D1*
Y1870837D1*
X2617265Y2482728D2*
X2615364Y2486530D1*
X2611517Y2490377D1*
X2607714Y2492278D1*
X2600065D1*
X2596218Y2490377D1*
X2592416Y2486530D1*
X2590470Y2482728D1*
X2588569Y2476980D1*
Y2467385D1*
X2590470Y2461681D1*
X2592416Y2457834D1*
X2596218Y2454032D1*
X2600065Y2452086D1*
X2607714D1*
X2611517Y2454032D1*
X2615364Y2457834D1*
X2617265Y2461681D1*
X2652564Y2492234D2*
X2633463D1*
X2631562Y2475034D1*
X2633463Y2476936D1*
X2639211Y2478881D1*
X2644915D1*
X2650663Y2476936D1*
X2654510Y2473133D1*
X2656411Y2467385D1*
Y2463583D1*
X2654510Y2457834D1*
X2650663Y2453988D1*
X2644915Y2452086D1*
X2639211D1*
X2633463Y2453988D1*
X2631562Y2455933D1*
X2629616Y2459736D1*
X871394Y2036743D2*
X867591Y2034841D1*
X863745Y2030995D1*
X861843Y2027192D1*
Y2019543D1*
X863745Y2015696D1*
X867591Y2011894D1*
X871394Y2009948D1*
X877142Y2008047D1*
X886737D1*
X892441Y2009948D1*
X896287Y2011894D1*
X900090Y2015696D1*
X902035Y2019543D1*
Y2027192D1*
X900090Y2030995D1*
X896287Y2034841D1*
X892441Y2036743D1*
X902035Y2056743D2*
X861888Y2075889D1*
Y2049094D1*
X1146394Y2036765D2*
X1142591Y2034864D1*
X1138745Y2031017D1*
X1136843Y2027214D1*
Y2019565D1*
X1138745Y2015718D1*
X1142591Y2011916D1*
X1146394Y2009970D1*
X1152142Y2008069D1*
X1161737D1*
X1167441Y2009970D1*
X1171287Y2011916D1*
X1175090Y2015718D1*
X1177035Y2019565D1*
Y2027214D1*
X1175090Y2031017D1*
X1171287Y2034864D1*
X1167441Y2036765D1*
X1136888Y2058667D2*
X1138789Y2052963D1*
X1142591Y2051018D1*
X1146438D1*
X1150241Y2052963D1*
X1152186Y2056766D1*
X1154087Y2064415D1*
X1155989Y2070163D1*
X1159836Y2073965D1*
X1163638Y2075867D1*
X1169386D1*
X1173189Y2073965D1*
X1175134Y2072064D1*
X1177035Y2066316D1*
Y2058667D1*
X1175134Y2052963D1*
X1173189Y2051017D1*
X1169386Y2049116D1*
X1163638D1*
X1159836Y2051017D1*
X1155989Y2054864D1*
X1154087Y2060568D1*
X1152186Y2068217D1*
X1150241Y2072064D1*
X1146438Y2073965D1*
X1142591D1*
X1138789Y2072064D1*
X1136888Y2066316D1*
Y2058667D1*
X2581962Y880047D2*
X2580061Y883849D1*
X2576214Y887696D1*
X2572412Y889597D1*
X2564762D1*
X2560916Y887696D1*
X2557113Y883849D1*
X2555168Y880047D1*
X2553266Y874299D1*
Y864704D1*
X2555168Y859000D1*
X2557113Y855153D1*
X2560916Y851351D1*
X2564762Y849405D1*
X2572412D1*
X2576214Y851351D1*
X2580061Y855153D1*
X2581962Y859000D1*
X2619207Y876200D2*
X2617262Y870452D1*
X2613459Y866605D1*
X2607711Y864704D1*
X2605810D1*
X2600062Y866605D1*
X2596259Y870452D1*
X2594314Y876200D1*
Y878101D1*
X2596259Y883849D1*
X2600062Y887652D1*
X2605810Y889553D1*
X2607711D1*
X2613459Y887652D1*
X2617262Y883849D1*
X2619207Y876200D1*
Y866605D1*
X2617262Y857055D1*
X2613459Y851307D1*
X2607711Y849405D1*
X2603909D1*
X2598160Y851307D1*
X2596259Y855153D1*
X2255293Y883411D2*
X2251490Y881510D1*
X2247644Y877663D1*
X2245742Y873861D1*
Y866212D1*
X2247644Y862365D1*
X2251490Y858562D1*
X2255293Y856617D1*
X2261041Y854715D1*
X2270636D1*
X2276339Y856617D1*
X2280186Y858562D1*
X2283989Y862365D1*
X2285934Y866211D1*
Y873861D1*
X2283989Y877663D1*
X2280186Y881510D1*
X2276340Y883411D1*
X2253436Y895763D2*
X2251490Y899610D1*
X2245787Y905358D1*
X2285934Y905357D1*
X2245787Y929205D2*
X2247688Y923457D1*
X2253436Y919610D1*
X2262986Y917709D1*
X2268734D1*
X2278285Y919610D1*
X2284033Y923457D1*
X2285934Y929205D1*
Y933007D1*
X2284033Y938756D1*
X2278285Y942558D1*
X2268734Y944504D1*
X2262986D1*
X2253436Y942558D1*
X2247688Y938756D1*
X2245787Y933008D1*
Y929205D1*
X2253436Y942558D2*
X2278285Y919610D1*
X2433777Y550254D2*
X2429975Y548353D1*
X2426128Y544506D1*
X2424227Y540704D1*
Y533054D1*
X2426128Y529208D1*
X2429975Y525405D1*
X2433777Y523459D1*
X2439525Y521558D1*
X2449120D1*
X2454824Y523459D1*
X2458671Y525405D1*
X2462473Y529207D1*
X2464419Y533054D1*
Y540703D1*
X2462473Y544506D1*
X2458671Y548353D1*
X2454824Y550254D1*
X2431920Y562605D2*
X2429975Y566452D1*
X2424271Y572200D1*
X2464419D1*
X2431920Y584552D2*
X2429975Y588398D1*
X2424271Y594146D1*
X2464419D1*
X2856073Y1023560D2*
X2854171Y1027362D1*
X2850325Y1031209D1*
X2846522Y1033110D1*
X2838873D1*
X2835026Y1031209D1*
X2831224Y1027362D1*
X2829278Y1023560D1*
X2827377Y1017812D1*
Y1008217D1*
X2829278Y1002513D1*
X2831224Y998667D1*
X2835026Y994864D1*
X2838873Y992918D1*
X2846522D1*
X2850325Y994864D1*
X2854171Y998667D1*
X2856073Y1002513D1*
X2868424Y1025417D2*
X2872271Y1027362D1*
X2878019Y1033066D1*
Y992918D1*
X2892316Y1023516D2*
Y1025417D1*
X2894217Y1029264D1*
X2896118Y1031165D1*
X2899965Y1033066D1*
X2907614D1*
X2911417Y1031165D1*
X2913318Y1029264D1*
X2915264Y1025417D1*
Y1021614D1*
X2913318Y1017768D1*
X2909516Y1012064D1*
X2890370Y992918D1*
X2917165D1*
X531830Y2483971D2*
Y2443779D1*
X545227D1*
X550975Y2445725D1*
X554822Y2449527D1*
X556723Y2453374D1*
X558624Y2459078D1*
Y2468673D1*
X556723Y2474421D1*
X554822Y2478223D1*
X550975Y2482070D1*
X545227Y2483971D1*
X531830D1*
X570976Y2476278D2*
X574822Y2478223D1*
X580570Y2483927D1*
Y2443779D1*
X2204546Y743134D2*
Y702942D1*
X2217943D1*
X2223691Y704888D1*
X2227538Y708690D1*
X2229439Y712537D1*
X2231341Y718241D1*
Y727835D1*
X2229439Y733584D1*
X2227538Y737386D1*
X2223691Y741233D1*
X2217943Y743134D1*
X2204546D1*
X2245637Y733539D2*
Y735441D1*
X2247539Y739287D1*
X2249440Y741189D1*
X2253287Y743090D1*
X2260936D1*
X2264739Y741189D1*
X2266640Y739287D1*
X2268585Y735441D1*
Y731638D1*
X2266640Y727791D1*
X2262837Y722087D1*
X2243692Y702942D1*
X2270487D1*
X2704800Y2264778D2*
Y2234181D1*
X2702898Y2228433D1*
X2700953Y2226532D1*
X2697150Y2224586D1*
X2693304D1*
X2689501Y2226532D1*
X2687600Y2228433D1*
X2685654Y2234181D1*
Y2237984D1*
X2717151Y2257085D2*
X2720998Y2259030D1*
X2726746Y2264734D1*
Y2224586D1*
X2783700Y2402278D2*
Y2371681D1*
X2781798Y2365933D1*
X2779853Y2364032D1*
X2776050Y2362086D1*
X2772204D1*
X2768401Y2364032D1*
X2766500Y2365933D1*
X2764554Y2371681D1*
Y2375484D1*
X2797997Y2392684D2*
Y2394585D1*
X2799898Y2398432D1*
X2801799Y2400333D1*
X2805646Y2402234D1*
X2813295D1*
X2817098Y2400333D1*
X2818999Y2398432D1*
X2820944Y2394585D1*
Y2390782D1*
X2818999Y2386936D1*
X2815196Y2381232D1*
X2796051Y2362086D1*
X2822846D1*
X2094826Y1041649D2*
Y1011051D1*
X2092924Y1005303D1*
X2090979Y1003402D1*
X2087176Y1001457D1*
X2083330D1*
X2079527Y1003402D1*
X2077626Y1005303D1*
X2075680Y1011051D1*
Y1014854D1*
X2114826Y1001457D2*
X2133972Y1041604D1*
X2107177D1*
X1352458Y1062369D2*
Y1031772D1*
X1350557Y1026024D1*
X1348611Y1024122D1*
X1344809Y1022177D1*
X1340962D1*
X1337159Y1024122D1*
X1335258Y1026024D1*
X1333313Y1031772D1*
Y1035574D1*
X1374360Y1062325D2*
X1368656Y1060424D1*
X1366711Y1056621D1*
Y1052774D1*
X1368656Y1048972D1*
X1372459Y1047026D1*
X1380108Y1045125D1*
X1385856Y1043224D1*
X1389659Y1039377D1*
X1391560Y1035574D1*
Y1029826D1*
X1389659Y1026024D1*
X1387757Y1024078D1*
X1382009Y1022177D1*
X1374360D1*
X1368656Y1024078D1*
X1366711Y1026024D1*
X1364809Y1029826D1*
Y1035574D1*
X1366711Y1039377D1*
X1370557Y1043224D1*
X1376261Y1045125D1*
X1383911Y1047026D1*
X1387757Y1048972D1*
X1389659Y1052774D1*
Y1056621D1*
X1387757Y1060424D1*
X1382009Y1062325D1*
X1374360D1*
X2895753Y824038D2*
Y783846D1*
X2918701D1*
X2931052Y816345D2*
X2934899Y818290D1*
X2940647Y823994D1*
Y783846D1*
X962239Y2024082D2*
Y2041282D1*
X960294Y2047030D1*
X958393Y2048975D1*
X954590Y2050877D1*
X950743D1*
X946941Y2048975D1*
X944995Y2047030D1*
X943094Y2041282D1*
Y2024082D1*
X983286D1*
X962239Y2037479D2*
X983286Y2050877D1*
X956491Y2088121D2*
X962239Y2086176D1*
X966086Y2082373D1*
X967987Y2076625D1*
Y2074724D1*
X966086Y2068976D1*
X962239Y2065173D1*
X956491Y2063228D1*
X954590D1*
X948842Y2065173D1*
X945040Y2068976D1*
X943138Y2074724D1*
Y2076625D1*
X945040Y2082373D1*
X948842Y2086176D1*
X956491Y2088121D1*
X966086D1*
X975637Y2086176D1*
X981385Y2082373D1*
X983286Y2076625D1*
Y2072823D1*
X981385Y2067075D1*
X977538Y2065173D1*
X1074739Y1949658D2*
Y1966858D1*
X1072794Y1972606D1*
X1070893Y1974552D1*
X1067090Y1976453D1*
X1063243D1*
X1059441Y1974552D1*
X1057495Y1972606D1*
X1055594Y1966858D1*
Y1949658D1*
X1095786D1*
X1074739Y1963056D2*
X1095786Y1976453D1*
X1063288Y1988804D2*
X1061342Y1992651D1*
X1055638Y1998399D1*
X1095786D1*
X1055638Y2022246D2*
X1057540Y2016498D1*
X1063288Y2012652D1*
X1072838Y2010750D1*
X1078586D1*
X1088137Y2012652D1*
X1093885Y2016498D1*
X1095786Y2022246D1*
Y2026049D1*
X1093885Y2031797D1*
X1088137Y2035600D1*
X1078586Y2037545D1*
X1072838D1*
X1063288Y2035600D1*
X1057540Y2031797D1*
X1055638Y2026049D1*
Y2022246D1*
X1063288Y2035600D2*
X1088137Y2012652D1*
X2576793Y1115646D2*
Y1132846D1*
X2574848Y1138594D1*
X2572946Y1140540D1*
X2569144Y1142441D1*
X2565297D1*
X2561495Y1140540D1*
X2559549Y1138594D1*
X2557648Y1132846D1*
Y1115646D1*
X2597840D1*
X2576793Y1129044D2*
X2597840Y1142441D1*
X2565341Y1154792D2*
X2563396Y1158639D1*
X2557692Y1164387D1*
X2597840D1*
X2557692Y1180585D2*
Y1201588D1*
X2572991Y1190136D1*
Y1195884D1*
X2574892Y1199686D1*
X2576793Y1201588D1*
X2582541Y1203533D1*
X2586344D1*
X2592092Y1201588D1*
X2595939Y1197785D1*
X2597840Y1192037D1*
Y1186289D1*
X2595939Y1180585D1*
X2593993Y1178684D1*
X2590191Y1176739D1*
X2832707Y1198452D2*
X2849907D1*
X2855655Y1200397D1*
X2857601Y1202299D1*
X2859502Y1206101D1*
Y1209948D1*
X2857601Y1213751D1*
X2855655Y1215696D1*
X2849907Y1217597D1*
X2832707D1*
Y1177405D1*
X2846105Y1198452D2*
X2859502Y1177405D1*
X2871854Y1209904D2*
X2875700Y1211849D1*
X2881448Y1217553D1*
Y1177405D1*
X2912945D2*
Y1217553D1*
X2893800Y1190803D1*
X2922496D1*
X2281042Y1020146D2*
X2281043Y1037346D1*
X2279097Y1043094D1*
X2277196Y1045040D1*
X2273393Y1046941D1*
X2269546D1*
X2265744Y1045040D1*
X2263798Y1043094D1*
X2261897Y1037346D1*
Y1020146D1*
X2302089D1*
X2281043Y1033544D2*
X2302089Y1046941D1*
X2269591Y1059292D2*
X2267645Y1063139D1*
X2261941Y1068887D1*
X2302089D1*
X2261941Y1104187D2*
Y1085085D1*
X2279141Y1083184D1*
X2277240Y1085085D1*
X2275295Y1090833D1*
Y1096537D1*
X2277240Y1102285D1*
X2281043Y1106132D1*
X2286791Y1108033D1*
X2290593D1*
X2296341Y1106132D1*
X2300188Y1102285D1*
X2302089Y1096537D1*
Y1090833D1*
X2300188Y1085085D1*
X2298242Y1083184D1*
X2294440Y1081239D1*
X2833185Y1111452D2*
X2850385D1*
X2856133Y1113397D1*
X2858078Y1115299D1*
X2859979Y1119101D1*
Y1122948D1*
X2858078Y1126751D1*
X2856133Y1128696D1*
X2850385Y1130597D1*
X2833185D1*
Y1090405D1*
X2846582Y1111452D2*
X2859979Y1090405D1*
X2872331Y1122904D2*
X2876177Y1124849D1*
X2881926Y1130553D1*
Y1090405D1*
X2917225Y1124849D2*
X2915324Y1128652D1*
X2909576Y1130553D1*
X2905773D1*
X2900025Y1128652D1*
X2896178Y1122904D1*
X2894277Y1113353D1*
Y1103803D1*
X2896178Y1096153D1*
X2900025Y1092307D1*
X2905773Y1090405D1*
X2907674D1*
X2913378Y1092307D1*
X2917225Y1096153D1*
X2919126Y1101901D1*
Y1103803D1*
X2917225Y1109551D1*
X2913378Y1113353D1*
X2907674Y1115255D1*
X2905773D1*
X2900025Y1113353D1*
X2896178Y1109551D1*
X2894277Y1103803D1*
X2394330Y2046029D2*
Y2017333D1*
X2396231Y2011585D1*
X2400078Y2007783D1*
X2405826Y2005837D1*
X2409628D1*
X2415376Y2007783D1*
X2419223Y2011585D1*
X2421124Y2017333D1*
Y2046029D1*
X2433476Y2038336D2*
X2437322Y2040281D1*
X2443070Y2045985D1*
Y2005837D1*
X2435730Y2702278D2*
Y2673583D1*
X2437631Y2667834D1*
X2441478Y2664032D1*
X2447226Y2662086D1*
X2451028D1*
X2456776Y2664032D1*
X2460623Y2667834D1*
X2462524Y2673583D1*
Y2702278D1*
X2476821Y2692684D2*
Y2694585D1*
X2478722Y2698432D1*
X2480624Y2700333D1*
X2484470Y2702234D1*
X2492120D1*
X2495922Y2700333D1*
X2497824Y2698432D1*
X2499769Y2694585D1*
Y2690782D1*
X2497824Y2686936D1*
X2494021Y2681232D1*
X2474876Y2662086D1*
X2501670D1*
X2435003Y1143613D2*
Y1114917D1*
X2436905Y1109169D1*
X2440751Y1105367D1*
X2446499Y1103421D1*
X2450302D1*
X2456050Y1105367D1*
X2459897Y1109169D1*
X2461798Y1114917D1*
Y1143613D1*
X2493295Y1103421D2*
Y1143569D1*
X2474149Y1116818D1*
X2502845D1*
X686702Y2371767D2*
Y2343071D1*
X688604Y2337323D1*
X692450Y2333520D1*
X698198Y2331575D1*
X702001D1*
X707749Y2333520D1*
X711596Y2337323D1*
X713497Y2343071D1*
Y2371767D1*
X748796Y2366019D2*
X746895Y2369821D1*
X741147Y2371722D1*
X737345D1*
X731596Y2369821D1*
X727750Y2364073D1*
X725848Y2354523D1*
Y2344972D1*
X727750Y2337323D1*
X731596Y2333476D1*
X737345Y2331575D1*
X739246D1*
X744950Y2333476D1*
X748796Y2337323D1*
X750698Y2343071D1*
Y2344972D1*
X748796Y2350720D1*
X744950Y2354523D1*
X739246Y2356424D1*
X737345D1*
X731596Y2354523D1*
X727750Y2350720D1*
X725848Y2344972D1*
X1200946Y2403232D2*
D108*
X1196192Y2408041D1*
X1189007Y2410417D1*
X1179446D1*
X1172261Y2408041D1*
X1167452Y2403232D1*
Y2398479D1*
X1169884Y2393670D1*
X1172261Y2391294D1*
X1177014Y2388917D1*
X1191384Y2384109D1*
X1196192Y2381732D1*
X1198569Y2379300D1*
X1200946Y2374547D1*
Y2367362D1*
X1196192Y2362609D1*
X1189007Y2360177D1*
X1179446D1*
X1172261Y2362609D1*
X1167452Y2367362D1*
X1216385Y2379300D2*
X1245070D1*
Y2384109D1*
X1242693Y2388917D1*
X1240316Y2391294D1*
X1235508Y2393670D1*
X1228323D1*
X1223570Y2391294D1*
X1218761Y2386485D1*
X1216385Y2379300D1*
Y2374547D1*
X1218761Y2367362D1*
X1223570Y2362609D1*
X1228323Y2360177D1*
X1235508D1*
X1240316Y2362609D1*
X1245070Y2367362D1*
X1260509Y2393670D2*
Y2360177D1*
Y2379300D2*
X1262941Y2386485D1*
X1267694Y2391294D1*
X1272502Y2393670D1*
X1279687D1*
X1295127D2*
X1309497Y2360177D1*
X1323812Y2393670D1*
X1351189D2*
X1346436Y2391294D1*
X1341627Y2386485D1*
X1339251Y2379300D1*
Y2374547D1*
X1341627Y2367362D1*
X1346436Y2362609D1*
X1351189Y2360177D1*
X1358374D1*
X1363183Y2362609D1*
X1367936Y2367362D1*
X1370368Y2374547D1*
Y2379300D1*
X1367936Y2386485D1*
X1363183Y2391294D1*
X1358374Y2393670D1*
X1351189D1*
X772083Y2373136D2*
Y2399389D1*
X791206Y2385074D1*
Y2392259D1*
X793583Y2397013D1*
X795959Y2399389D1*
X803144Y2401821D1*
X807897D1*
X815082Y2399389D1*
X819891Y2394636D1*
X822268Y2387451D1*
Y2380266D1*
X819891Y2373136D1*
X817459Y2370760D1*
X812706Y2368328D1*
X788774Y2417260D2*
X822267Y2431630D1*
X788774Y2445945D1*
X772083Y2466193D2*
Y2492446D1*
X791206Y2478131D1*
Y2485316D1*
X793583Y2490069D1*
X795959Y2492446D1*
X803144Y2494878D1*
X807897D1*
X815082Y2492446D1*
X819891Y2487693D1*
X822267Y2480508D1*
Y2473322D1*
X819891Y2466193D1*
X817459Y2463816D1*
X812706Y2461384D1*
X859527Y2455828D2*
X909768Y2489321D1*
X859528D2*
X909767Y2455828D1*
X959527D2*
X983459Y2474951D1*
X1009768D1*
X959528Y2494074D2*
X983459Y2474951D1*
X1173336Y2443328D2*
Y2464883D1*
X1170959Y2472013D1*
X1168527Y2474444D1*
X1163774Y2476821D1*
X1156589D1*
X1151836Y2474444D1*
X1149404Y2472013D1*
X1147027Y2464883D1*
Y2443328D1*
X1197267D1*
X1147028Y2492260D2*
X1197268Y2504254D1*
X1147028Y2516192D1*
X1197267Y2528130D1*
X1147028Y2540124D1*
X1197267Y2593809D2*
X1147028D1*
X1197267Y2574686D1*
X1147028Y2555563D1*
X1197267D1*
X1234583Y2547013D2*
Y2523136D1*
X1256083Y2520760D1*
X1253706Y2523136D1*
X1251274Y2530321D1*
Y2537451D1*
X1253706Y2544636D1*
X1258459Y2549444D1*
X1265644Y2551821D1*
X1270397D1*
X1277582Y2549444D1*
X1282391Y2544636D1*
X1284768Y2537451D1*
Y2530321D1*
X1282391Y2523136D1*
X1279959Y2520760D1*
X1275206Y2518328D1*
X1251274Y2567260D2*
X1284767Y2581630D1*
X1251274Y2595945D1*
X1346466Y2504198D2*
X1341713Y2501821D1*
X1336904Y2497013D1*
X1334527Y2492259D1*
Y2482698D1*
X1336904Y2477889D1*
X1341713Y2473136D1*
X1346466Y2470704D1*
X1353651Y2468328D1*
X1365644D1*
X1372774Y2470704D1*
X1377582Y2473136D1*
X1382336Y2477889D1*
X1384768Y2482698D1*
Y2492259D1*
X1382336Y2497012D1*
X1377582Y2501821D1*
X1372774Y2504198D1*
X1365644D1*
Y2492259D1*
X1351274Y2519637D2*
X1384768D1*
X1360836D2*
X1353651Y2526822D1*
X1351274Y2531630D1*
Y2538760D1*
X1353651Y2543568D1*
X1360836Y2545945D1*
X1384767D1*
X1334528Y2590069D2*
X1384767D1*
X1358459D2*
X1353651Y2585316D1*
X1351274Y2580508D1*
Y2573322D1*
X1353651Y2568569D1*
X1358459Y2563761D1*
X1365644Y2561384D1*
X1370397D1*
X1377582Y2563761D1*
X1382336Y2568569D1*
X1384767Y2573322D1*
Y2580508D1*
X1382336Y2585316D1*
X1377582Y2590069D1*
X437919Y706373D2*
D109*
Y669100D1*
X498207D1*
Y706373D1*
X466637Y669100D2*
Y692048D1*
X446541Y765092D2*
X440771Y759389D1*
X437919Y750767D1*
Y739293D1*
X440771Y730671D1*
X446541Y724900D1*
X452245D1*
X458015Y727819D1*
X460867Y730671D1*
X463719Y736374D1*
X469489Y753618D1*
X472341Y759389D1*
X475259Y762240D1*
X480963Y765092D1*
X489585D1*
X495289Y759389D1*
X498207Y750767D1*
Y739293D1*
X495289Y730671D1*
X489585Y724900D1*
X469489Y783619D2*
Y809486D1*
X466637Y818041D1*
X463719Y820960D1*
X458015Y823811D1*
X449393D1*
X443689Y820960D1*
X440771Y818041D1*
X437919Y809486D1*
Y783620D1*
X498207Y783619D1*
X437986Y848109D2*
Y879612D1*
X460933Y862435D1*
Y871057D1*
X463785Y876760D1*
X466637Y879612D1*
X475259Y882531D1*
X480963D1*
X489585Y879612D1*
X495355Y873909D1*
X498207Y865286D1*
Y856664D1*
X495355Y848109D1*
X492437Y845257D1*
X486733Y842339D1*
X452311Y903976D2*
X449460D1*
X443689Y906828D1*
X440837Y909680D1*
X437986Y915450D1*
Y926924D1*
X440837Y932628D1*
X443689Y935480D1*
X449460Y938398D1*
X455163D1*
X460933Y935480D1*
X469489Y929776D1*
X498207Y901058D1*
Y941250D1*
X469489Y1018098D2*
Y1043964D1*
X466637Y1052520D1*
X463719Y1055438D1*
X458015Y1058290D1*
X449393D1*
X443689Y1055438D1*
X440771Y1052520D1*
X437919Y1043964D1*
Y1018098D1*
X498207D1*
X475259Y1076817D2*
Y1111239D1*
X469489D1*
X463719Y1108387D1*
X460867Y1105535D1*
X458015Y1099765D1*
Y1091143D1*
X460867Y1085439D1*
X466637Y1079669D1*
X475259Y1076817D1*
X480963D1*
X489585Y1079669D1*
X495289Y1085439D1*
X498207Y1091143D1*
Y1099765D1*
X495289Y1105535D1*
X489585Y1111239D1*
X458015Y1129766D2*
X498207D1*
X469489D2*
X460867Y1138388D1*
X458015Y1144158D1*
Y1152714D1*
X460867Y1158484D1*
X469489Y1161336D1*
X498207D1*
Y1179863D2*
X437986Y1220055D1*
X437919Y1238582D2*
X498207D1*
Y1273004D1*
X458015Y1325953D2*
X498207D1*
X466637D2*
X460867Y1320249D1*
X458015Y1314479D1*
Y1305923D1*
X460867Y1300153D1*
X466637Y1294449D1*
X475259Y1291531D1*
X480963D1*
X489585Y1294449D1*
X495289Y1300153D1*
X498207Y1305923D1*
Y1314479D1*
X495289Y1320249D1*
X489585Y1325953D1*
X466637Y1376050D2*
X460867Y1373198D1*
X458015Y1364576D1*
Y1355954D1*
X460867Y1347332D1*
X466637Y1344480D1*
X472341Y1347332D1*
X475259Y1353102D1*
X478111Y1367428D1*
X480963Y1373198D1*
X486733Y1376050D1*
X489585D1*
X495289Y1373198D1*
X498207Y1364576D1*
Y1355954D1*
X495289Y1347332D1*
X489585Y1344480D1*
X475259Y1394577D2*
Y1428999D1*
X469489D1*
X463719Y1426147D1*
X460867Y1423295D1*
X458015Y1417525D1*
Y1408903D1*
X460867Y1403199D1*
X466637Y1397429D1*
X475259Y1394577D1*
X480963D1*
X489585Y1397429D1*
X495289Y1403199D1*
X498207Y1408903D1*
Y1417525D1*
X495289Y1423295D1*
X489585Y1428999D1*
X458015Y1447526D2*
X498207D1*
X475259D2*
X466637Y1450444D1*
X460867Y1456148D1*
X458015Y1461918D1*
Y1470540D1*
X437919Y1567485D2*
X498207D1*
X437919Y1547389D2*
Y1587581D1*
X498207Y1652003D2*
X437919D1*
X498207Y1629056D1*
X437919Y1606108D1*
X498207D1*
X452245Y1713574D2*
X446541Y1710723D1*
X440771Y1704952D1*
X437919Y1699249D1*
Y1687775D1*
X440771Y1682005D1*
X446541Y1676301D1*
X452245Y1673382D1*
X460867Y1670531D1*
X475259D1*
X483815Y1673382D1*
X489585Y1676301D1*
X495289Y1682005D1*
X498207Y1687775D1*
Y1699249D1*
X495289Y1704952D1*
X489585Y1710723D1*
X483815Y1713574D1*
X452311Y1735020D2*
X449459D1*
X443689Y1737872D1*
X440837Y1740724D1*
X437986Y1746494D1*
Y1757968D1*
X440837Y1763672D1*
X443689Y1766523D1*
X449459Y1769442D1*
X455163D1*
X460933Y1766523D1*
X469489Y1760820D1*
X498207Y1732102D1*
Y1772294D1*
X449459Y1790821D2*
X446541Y1796591D1*
X437986Y1805213D1*
X498207D1*
X437986Y1829510D2*
Y1861014D1*
X460933Y1843836D1*
Y1852458D1*
X463785Y1858162D1*
X466637Y1861014D1*
X475259Y1863932D1*
X480963D1*
X489585Y1861014D1*
X495355Y1855310D1*
X498207Y1846688D1*
Y1838066D1*
X495355Y1829510D1*
X492437Y1826658D1*
X486733Y1823740D1*
X437986Y1899703D2*
X440837Y1891081D1*
X449459Y1885311D1*
X463785Y1882459D1*
X472407D1*
X486733Y1885311D1*
X495355Y1891081D1*
X498207Y1899703D1*
Y1905407D1*
X495355Y1914029D1*
X486733Y1919733D1*
X472407Y1922651D1*
X463785D1*
X449459Y1919733D1*
X440837Y1914029D1*
X437986Y1905407D1*
Y1899703D1*
X449459Y1919733D2*
X486733Y1885311D1*
X437919Y1999499D2*
X498207Y2022447D1*
X437919Y2045395D1*
X452311Y2066840D2*
X449459D1*
X443689Y2069692D1*
X440837Y2072544D1*
X437986Y2078314D1*
Y2089788D1*
X440837Y2095492D1*
X443689Y2098344D1*
X449459Y2101262D1*
X455163D1*
X460933Y2098344D1*
X469489Y2092640D1*
X498207Y2063922D1*
Y2104114D1*
X537919Y662850D2*
X598207D1*
X566637D2*
X560867Y668620D1*
X558015Y674324D1*
Y682946D1*
X560867Y688650D1*
X566637Y694420D1*
X575259Y697272D1*
X580963D1*
X589585Y694420D1*
X595289Y688650D1*
X598207Y682946D1*
Y674324D1*
X595289Y668620D1*
X589585Y662850D1*
X558015Y715799D2*
X586733D1*
X595289Y718651D1*
X598207Y724421D1*
Y733043D1*
X595289Y738747D1*
X586733Y747369D1*
X558015D2*
X598207D1*
X537919Y765896D2*
X540771Y768748D1*
X537919Y771666D1*
X535001Y768748D1*
X537919Y765896D1*
X558015Y768748D2*
X598207D1*
X537919Y790193D2*
X598207D1*
X537919Y843142D2*
X598207D1*
X566637D2*
X560867Y837439D1*
X558015Y831668D1*
Y823046D1*
X560867Y817343D1*
X566637Y811572D1*
X575259Y808721D1*
X580963D1*
X589585Y811572D1*
X595289Y817343D1*
X598207Y823046D1*
Y831668D1*
X595289Y837439D1*
X589585Y843142D1*
X537919Y861669D2*
X598207D1*
X558015Y894522D2*
X560867Y888819D1*
X566637Y883048D1*
X575259Y880197D1*
X580963D1*
X589585Y883048D1*
X595289Y888819D1*
X598207Y894522D1*
Y903144D1*
X595289Y908915D1*
X589585Y914618D1*
X580963Y917537D1*
X575259D1*
X566637Y914618D1*
X560867Y908915D1*
X558015Y903144D1*
Y894522D1*
X560867Y970486D2*
X606829D1*
X615385Y967634D1*
X618303Y964782D1*
X621155Y959012D1*
Y950390D1*
X618303Y944686D1*
X569489Y970486D2*
X563785Y964782D1*
X560867Y959012D1*
Y950390D1*
X563785Y944686D1*
X569489Y938916D1*
X578111Y936064D1*
X583881D1*
X592437Y938916D1*
X598207Y944686D1*
X601059Y950390D1*
Y959012D1*
X598207Y964782D1*
X592437Y970486D1*
Y991865D2*
X595355Y989013D1*
X598207Y991865D1*
X595355Y994783D1*
X592437Y991865D1*
X558015Y1013310D2*
X598207D1*
X569489D2*
X560867Y1021932D1*
X558015Y1027702D1*
Y1036258D1*
X560867Y1042028D1*
X569489Y1044880D1*
X598207D1*
X575259Y1063407D2*
Y1097829D1*
X569489D1*
X563719Y1094977D1*
X560867Y1092125D1*
X558015Y1086355D1*
Y1077733D1*
X560867Y1072029D1*
X566637Y1066259D1*
X575259Y1063407D1*
X580963D1*
X589585Y1066259D1*
X595289Y1072029D1*
X598207Y1077733D1*
Y1086355D1*
X595289Y1092125D1*
X589585Y1097829D1*
X537919Y1124978D2*
X586733D1*
X595289Y1127830D1*
X598207Y1133600D1*
Y1139304D1*
X558015Y1116356D2*
Y1136452D1*
X539811Y1581920D2*
Y1573298D1*
X542663Y1567594D1*
X545515Y1564676D1*
X551285Y1561824D1*
X562759D1*
X565611Y1564676D1*
Y1570446D1*
X562759Y1581920D1*
X568463Y1584772D1*
Y1587624D1*
X562759Y1593394D1*
X548433Y1596246D1*
X539811Y1593394D1*
X534041Y1590542D1*
X528337Y1584772D1*
X525486Y1579068D1*
Y1567594D1*
X528337Y1561824D1*
X534041Y1556120D1*
X539811Y1553202D1*
X548433Y1550350D1*
X562759D1*
X571381Y1553202D1*
X577085Y1556120D1*
X582855Y1561824D1*
X585707Y1567594D1*
Y1579068D1*
X582855Y1584772D1*
X577085Y1590542D1*
X536960Y1581920D2*
X562759D1*
X525419Y1614773D2*
X585707D1*
X554137D2*
X548367Y1620543D1*
X545515Y1626247D1*
Y1634869D1*
X548367Y1640573D1*
X554137Y1646343D1*
X562759Y1649195D1*
X568463D1*
X577085Y1646343D1*
X582789Y1640573D1*
X585707Y1634869D1*
Y1626247D1*
X582789Y1620543D1*
X577085Y1614773D1*
X545515Y1667722D2*
X574233D1*
X582789Y1670574D1*
X585707Y1676344D1*
Y1684966D1*
X582789Y1690670D1*
X574233Y1699292D1*
X545515D2*
X585707D1*
X525419Y1717819D2*
X528271Y1720671D1*
X525419Y1723589D1*
X522501Y1720671D1*
X525419Y1717819D1*
X545515Y1720671D2*
X585707D1*
X525419Y1742116D2*
X585707D1*
X525419Y1795065D2*
X585707D1*
X554137D2*
X548367Y1789361D1*
X545515Y1783591D1*
Y1774969D1*
X548367Y1769265D1*
X554137Y1763495D1*
X562759Y1760643D1*
X568463D1*
X577085Y1763495D1*
X582789Y1769265D1*
X585707Y1774969D1*
Y1783591D1*
X582789Y1789361D1*
X577085Y1795065D1*
X525419Y1813592D2*
X585707D1*
X545515Y1846445D2*
X548367Y1840742D1*
X554137Y1834971D1*
X562759Y1832119D1*
X568463D1*
X577085Y1834971D1*
X582789Y1840742D1*
X585707Y1846445D1*
Y1855067D1*
X582789Y1860838D1*
X577085Y1866541D1*
X568463Y1869460D1*
X562759D1*
X554137Y1866541D1*
X548367Y1860838D1*
X545515Y1855067D1*
Y1846445D1*
X548367Y1922409D2*
X594329D1*
X602885Y1919557D1*
X605803Y1916705D1*
X608655Y1910935D1*
Y1902313D1*
X605803Y1896609D1*
X556989Y1922409D2*
X551285Y1916705D1*
X548367Y1910935D1*
Y1902313D1*
X551285Y1896609D1*
X556989Y1890839D1*
X565611Y1887987D1*
X571381D1*
X579937Y1890839D1*
X585707Y1896609D1*
X588559Y1902313D1*
Y1910935D1*
X585707Y1916705D1*
X579937Y1922409D1*
X886202Y2422917D2*
D108*
Y2372677D1*
X914886D1*
X930326Y2422917D2*
X932702Y2420541D1*
X935134Y2422917D1*
X932702Y2425349D1*
X930326Y2422917D1*
X932702Y2406170D2*
Y2372677D1*
X950573Y2406170D2*
Y2372677D1*
Y2396609D2*
X957758Y2403794D1*
X962567Y2406170D1*
X969697D1*
X974505Y2403794D1*
X976882Y2396609D1*
Y2372677D1*
Y2396609D2*
X984067Y2403794D1*
X988875Y2406170D1*
X996005D1*
X1000813Y2403794D1*
X1003245Y2396609D1*
Y2372677D1*
X2915777Y1587078D2*
X2939709Y1606201D1*
X2966018D1*
X2915778Y1625324D2*
X2939709Y1606201D1*
X2940925Y1640763D2*
Y1668398D1*
X2966017Y1722084D2*
X2915778D1*
X2966017Y1702961D1*
X2915778Y1683837D1*
X2966017D1*
X2932524Y1749461D2*
X2934901Y1744708D1*
X2939709Y1739900D1*
X2946894Y1737523D1*
X2951647D1*
X2958832Y1739900D1*
X2963586Y1744708D1*
X2966017Y1749461D1*
Y1756646D1*
X2963586Y1761455D1*
X2958832Y1766208D1*
X2951647Y1768640D1*
X2946894D1*
X2939709Y1766208D1*
X2934901Y1761455D1*
X2932524Y1756646D1*
Y1749461D1*
X2915777Y1791264D2*
X2956456D1*
X2963586Y1793641D1*
X2966017Y1798449D1*
Y1803202D1*
X2932524Y1784079D2*
Y1800826D1*
X2922027Y2118328D2*
X2972268Y2151821D1*
X2922028D2*
X2972267Y2118328D1*
X2947175Y2167260D2*
Y2194895D1*
X2972267Y2248581D2*
X2922028D1*
X2972267Y2229457D1*
X2922028Y2210334D1*
X2972267D1*
X2938774Y2275958D2*
X2941151Y2271205D1*
X2945959Y2266396D1*
X2953144Y2264020D1*
X2957897D1*
X2965082Y2266396D1*
X2969836Y2271205D1*
X2972267Y2275958D1*
Y2283143D1*
X2969836Y2287952D1*
X2965082Y2292705D1*
X2957897Y2295137D1*
X2953144D1*
X2945959Y2292705D1*
X2941151Y2287952D1*
X2938774Y2283143D1*
Y2275958D1*
X2922027Y2317761D2*
X2962706D1*
X2969836Y2320138D1*
X2972267Y2324946D1*
Y2329699D1*
X2938774Y2310576D2*
Y2327323D1*
X1319171Y1287850D2*
D109*
X1379459Y1310798D1*
X1319171Y1333746D1*
X1356511Y1352273D2*
Y1386695D1*
X1350741D1*
X1344971Y1383843D1*
X1342119Y1380991D1*
X1339267Y1375221D1*
Y1366599D1*
X1342119Y1360895D1*
X1347889Y1355125D1*
X1356511Y1352273D1*
X1362215D1*
X1370837Y1355125D1*
X1376541Y1360895D1*
X1379459Y1366599D1*
Y1375221D1*
X1376541Y1380991D1*
X1370837Y1386695D1*
X1339267Y1405222D2*
X1379459D1*
X1356511D2*
X1347889Y1408140D1*
X1342119Y1413844D1*
X1339267Y1419614D1*
Y1428236D1*
X1319171Y1446763D2*
X1322023Y1449615D1*
X1319171Y1452534D1*
X1316253Y1449615D1*
X1319171Y1446763D1*
X1339267Y1449615D2*
X1379459D1*
X1319171Y1494009D2*
Y1488305D1*
X1322023Y1482535D1*
X1330645Y1479683D1*
X1379459D1*
X1339267Y1471061D2*
Y1491157D1*
Y1515454D2*
X1379459Y1532632D1*
X1390933Y1526928D1*
X1396703Y1521158D1*
X1399555Y1515454D1*
Y1512536D1*
X1339267Y1549876D2*
X1379459Y1532632D1*
X1319171Y1643968D2*
X1322023Y1638198D1*
X1327793Y1632494D1*
X1333497Y1629576D1*
X1342119Y1626724D1*
X1356511D1*
X1365067Y1629576D1*
X1370837Y1632494D1*
X1376541Y1638198D1*
X1379459Y1643968D1*
Y1655442D1*
X1376541Y1661146D1*
X1370837Y1666916D1*
X1365067Y1669768D1*
X1356511Y1672620D1*
X1342119D1*
X1333497Y1669768D1*
X1327793Y1666916D1*
X1322023Y1661146D1*
X1319171Y1655442D1*
Y1643968D1*
X1339267Y1691147D2*
X1379459D1*
X1356511D2*
X1347889Y1694065D1*
X1342119Y1699769D1*
X1339267Y1705539D1*
Y1714161D1*
X1319171Y1732688D2*
X1322023Y1735540D1*
X1319171Y1738458D1*
X1316253Y1735540D1*
X1319171Y1732688D1*
X1339267Y1735540D2*
X1379459D1*
X1356511Y1756985D2*
Y1791407D1*
X1350741D1*
X1344971Y1788555D1*
X1342119Y1785703D1*
X1339267Y1779933D1*
Y1771311D1*
X1342119Y1765607D1*
X1347889Y1759837D1*
X1356511Y1756985D1*
X1362215D1*
X1370837Y1759837D1*
X1376541Y1765607D1*
X1379459Y1771311D1*
Y1779933D1*
X1376541Y1785703D1*
X1370837Y1791407D1*
X1339267Y1809934D2*
X1379459D1*
X1350741D2*
X1342119Y1818556D1*
X1339267Y1824327D1*
Y1832882D1*
X1342119Y1838652D1*
X1350741Y1841504D1*
X1379459D1*
X1319171Y1868653D2*
X1367985D1*
X1376541Y1871505D1*
X1379459Y1877276D1*
Y1882979D1*
X1339267Y1860031D2*
Y1880127D1*
Y1935928D2*
X1379459D1*
X1347889D2*
X1342119Y1930225D1*
X1339267Y1924454D1*
Y1915899D1*
X1342119Y1910128D1*
X1347889Y1904425D1*
X1356511Y1901506D1*
X1362215D1*
X1370837Y1904425D1*
X1376541Y1910128D1*
X1379459Y1915899D1*
Y1924454D1*
X1376541Y1930225D1*
X1370837Y1935928D1*
X1319171Y1963077D2*
X1367985D1*
X1376541Y1965929D1*
X1379459Y1971700D1*
Y1977403D1*
X1339267Y1954455D2*
Y1974551D1*
X1319171Y1995930D2*
X1322023Y1998782D1*
X1319171Y2001701D1*
X1316253Y1998782D1*
X1319171Y1995930D1*
X1339267Y1998782D2*
X1379459D1*
X1339267Y2034554D2*
X1342119Y2028850D1*
X1347889Y2023080D1*
X1356511Y2020228D1*
X1362215D1*
X1370837Y2023080D1*
X1376541Y2028850D1*
X1379459Y2034554D1*
Y2043176D1*
X1376541Y2048946D1*
X1370837Y2054650D1*
X1362215Y2057568D1*
X1356511D1*
X1347889Y2054650D1*
X1342119Y2048946D1*
X1339267Y2043176D1*
Y2034554D1*
Y2076095D2*
X1379459D1*
X1350741D2*
X1342119Y2084717D1*
X1339267Y2090487D1*
Y2099043D1*
X1342119Y2104813D1*
X1350741Y2107665D1*
X1379459D1*
X1319238Y2129110D2*
X1359363D1*
X1373689D2*
X1376607Y2126192D1*
X1379459Y2129110D1*
X1376607Y2131962D1*
X1373689Y2129110D1*
X1442265Y1071246D2*
X1468131Y1025350D1*
X1493931Y1071246D1*
X1468098Y1089773D2*
Y1122935D1*
Y1141462D2*
Y1174624D1*
Y1193151D2*
Y1226312D1*
Y1244840D2*
Y1278001D1*
X1437921Y1354849D2*
X1480964D1*
X1489586Y1357701D1*
X1495290Y1363472D1*
X1498209Y1372094D1*
Y1377797D1*
X1495290Y1386419D1*
X1489586Y1392190D1*
X1480964Y1395041D1*
X1437921D1*
X1446543Y1453761D2*
X1440772Y1448057D1*
X1437921Y1439435D1*
Y1427961D1*
X1440772Y1419339D1*
X1446543Y1413569D1*
X1452246D1*
X1458017Y1416487D1*
X1460868Y1419339D1*
X1463720Y1425043D1*
X1469490Y1442287D1*
X1472342Y1448057D1*
X1475261Y1450909D1*
X1480964Y1453761D1*
X1489586D1*
X1495290Y1448057D1*
X1498209Y1439435D1*
Y1427961D1*
X1495290Y1419339D1*
X1489586Y1413569D1*
X1437921Y1472288D2*
X1498209D1*
Y1498154D1*
X1495290Y1506776D1*
X1492438Y1509628D1*
X1486735Y1512480D1*
X1478113D1*
X1472342Y1509628D1*
X1469490Y1506776D1*
X1466639Y1498154D1*
X1463720Y1506776D1*
X1460868Y1509628D1*
X1455165Y1512480D1*
X1449394D1*
X1443691Y1509628D1*
X1440772Y1506776D1*
X1437921Y1498154D1*
Y1472288D1*
X1466639D2*
Y1498154D1*
X1437921Y1626602D2*
Y1589328D1*
X1498209D1*
Y1626602D1*
X1466639Y1589328D2*
Y1612276D1*
X1458017Y1645129D2*
X1498209D1*
X1469490D2*
X1460868Y1653751D1*
X1458017Y1659521D1*
Y1668077D1*
X1460868Y1673847D1*
X1469490Y1676699D1*
X1498209D1*
X1437921Y1729648D2*
X1498209D1*
X1466639D2*
X1460868Y1723944D1*
X1458017Y1718174D1*
Y1709552D1*
X1460868Y1703848D1*
X1466639Y1698078D1*
X1475261Y1695226D1*
X1480964D1*
X1489586Y1698078D1*
X1495290Y1703848D1*
X1498209Y1709552D1*
Y1718174D1*
X1495290Y1723944D1*
X1489586Y1729648D1*
X1056595Y1789163D2*
D107*
X1083390Y1748971D1*
Y1789163D2*
X1056595Y1748971D1*
X1095741Y1742338D2*
X1132086D1*
X1171232Y1783415D2*
X1167430Y1787261D1*
X1161682Y1789163D1*
X1154032D1*
X1148284Y1787261D1*
X1144438Y1783415D1*
Y1779612D1*
X1146383Y1775765D1*
X1148284Y1773864D1*
X1152087Y1771963D1*
X1163583Y1768116D1*
X1167430Y1766215D1*
X1169331Y1764269D1*
X1171232Y1760467D1*
Y1754719D1*
X1167430Y1750916D1*
X1161682Y1748971D1*
X1154032D1*
X1148284Y1750916D1*
X1144438Y1754719D1*
X1212280Y1779612D2*
X1210378Y1783415D1*
X1206532Y1787261D1*
X1202729Y1789163D1*
X1195080D1*
X1191233Y1787261D1*
X1187430Y1783415D1*
X1185485Y1779612D1*
X1183584Y1773864D1*
Y1764269D1*
X1185485Y1758565D1*
X1187430Y1754719D1*
X1191233Y1750916D1*
X1195080Y1748971D1*
X1202729D1*
X1206532Y1750916D1*
X1210378Y1754719D1*
X1212280Y1758565D1*
Y1764269D1*
X1202729D1*
X1050345Y1682913D2*
X1065644Y1663768D1*
Y1642721D1*
X1080942Y1682913D2*
X1065644Y1663768D1*
X1093294Y1636089D2*
X1129639D1*
X1168785Y1677165D2*
X1164982Y1681012D1*
X1159234Y1682913D1*
X1151585D1*
X1145837Y1681012D1*
X1141990Y1677165D1*
Y1673363D1*
X1143936Y1669516D1*
X1145837Y1667615D1*
X1149639Y1665713D1*
X1161136Y1661867D1*
X1164982Y1659965D1*
X1166884Y1658020D1*
X1168785Y1654217D1*
Y1648469D1*
X1164982Y1644667D1*
X1159234Y1642721D1*
X1151585D1*
X1145837Y1644667D1*
X1141990Y1648469D1*
X1209832Y1673363D2*
X1207931Y1677165D1*
X1204084Y1681012D1*
X1200282Y1682913D1*
X1192632D1*
X1188786Y1681012D1*
X1184983Y1677165D1*
X1183038Y1673363D1*
X1181136Y1667615D1*
Y1658020D1*
X1183038Y1652316D1*
X1184983Y1648469D1*
X1188786Y1644667D1*
X1192632Y1642721D1*
X1200282D1*
X1204084Y1644667D1*
X1207931Y1648469D1*
X1209832Y1652316D1*
Y1658020D1*
X1200282D1*
X813240Y1932913D2*
Y1902316D1*
X811339Y1896568D1*
X809394Y1894667D1*
X805591Y1892721D1*
X801744D1*
X797942Y1894667D1*
X796040Y1896568D1*
X794095Y1902316D1*
Y1906119D1*
X825592Y1919516D2*
Y1900371D1*
X827493Y1894667D1*
X831340Y1892721D1*
X837088D1*
X840890Y1894667D1*
X846638Y1900371D1*
Y1919516D2*
Y1892721D1*
X858990Y1919516D2*
Y1892721D1*
Y1911867D2*
X864738Y1917615D1*
X868585Y1919516D1*
X874288D1*
X878135Y1917615D1*
X880036Y1911867D1*
Y1892721D1*
Y1911867D2*
X885784Y1917615D1*
X889631Y1919516D1*
X895335D1*
X899182Y1917615D1*
X901127Y1911867D1*
Y1892721D1*
X913479Y1919516D2*
Y1879324D1*
Y1913768D2*
X917325Y1917570D1*
X921128Y1919516D1*
X926876D1*
X930723Y1917570D1*
X934525Y1913768D1*
X936471Y1908020D1*
Y1904173D1*
X934525Y1898469D1*
X930723Y1894622D1*
X926876Y1892721D1*
X921128D1*
X917325Y1894622D1*
X913479Y1898469D1*
X948822Y1908020D2*
X971770D1*
Y1911867D1*
X969869Y1915713D1*
X967968Y1917615D1*
X964121Y1919516D1*
X958373D1*
X954570Y1917615D1*
X950723Y1913768D1*
X948822Y1908020D1*
Y1904217D1*
X950723Y1898469D1*
X954570Y1894667D1*
X958373Y1892721D1*
X964121D1*
X967968Y1894667D1*
X971770Y1898469D1*
X984121Y1919516D2*
Y1892721D1*
Y1908020D2*
X986067Y1913768D1*
X989869Y1917615D1*
X993716Y1919516D1*
X999464D1*
X1056444Y1932913D2*
Y1900371D1*
X1058346Y1894667D1*
X1062193Y1892721D1*
X1065995D1*
X1050696Y1919516D2*
X1064094D1*
X1087897D2*
X1084094Y1917615D1*
X1080248Y1913768D1*
X1078346Y1908020D1*
Y1904217D1*
X1080248Y1898469D1*
X1084094Y1894667D1*
X1087897Y1892721D1*
X1093645D1*
X1097492Y1894667D1*
X1101294Y1898469D1*
X1103240Y1904217D1*
Y1908020D1*
X1101294Y1913768D1*
X1097492Y1917615D1*
X1093645Y1919516D1*
X1087897D1*
X1154472D2*
Y1900371D1*
X1156373Y1894667D1*
X1160220Y1892721D1*
X1165968D1*
X1169771Y1894667D1*
X1175519Y1900371D1*
Y1919516D2*
Y1892721D1*
X1208917Y1913768D2*
X1207015Y1917615D1*
X1201267Y1919516D1*
X1195519D1*
X1189771Y1917615D1*
X1187870Y1913768D1*
X1189771Y1909965D1*
X1193618Y1908020D1*
X1203169Y1906119D1*
X1207015Y1904217D1*
X1208917Y1900371D1*
Y1898469D1*
X1207015Y1894667D1*
X1201267Y1892721D1*
X1195519D1*
X1189771Y1894667D1*
X1187870Y1898469D1*
X1221268Y1908020D2*
X1244216D1*
Y1911867D1*
X1242315Y1915713D1*
X1240413Y1917615D1*
X1236567Y1919516D1*
X1230819D1*
X1227016Y1917615D1*
X1223169Y1913768D1*
X1221268Y1908020D1*
Y1904217D1*
X1223169Y1898469D1*
X1227016Y1894667D1*
X1230819Y1892721D1*
X1236567D1*
X1240413Y1894667D1*
X1244216Y1898469D1*
X820890Y1864665D2*
X817087Y1868512D1*
X811339Y1870413D1*
X803690D1*
X797942Y1868512D1*
X794095Y1864665D1*
Y1860863D1*
X796040Y1857016D1*
X797942Y1855115D1*
X801744Y1853213D1*
X813240Y1849367D1*
X817087Y1847465D1*
X818988Y1845520D1*
X820890Y1841717D1*
Y1835969D1*
X817087Y1832167D1*
X811339Y1830221D1*
X803690D1*
X797942Y1832167D1*
X794095Y1835969D1*
X838989Y1870413D2*
Y1837871D1*
X840890Y1832167D1*
X844737Y1830221D1*
X848540D1*
X833241Y1857016D2*
X846638D1*
X883839D2*
Y1830221D1*
Y1851268D2*
X880036Y1855115D1*
X876190Y1857016D1*
X870486D1*
X866639Y1855115D1*
X862836Y1851268D1*
X860891Y1845520D1*
Y1841717D1*
X862836Y1835969D1*
X866639Y1832167D1*
X870486Y1830221D1*
X876190D1*
X880036Y1832167D1*
X883839Y1835969D1*
X896190Y1870413D2*
Y1830221D1*
X908542Y1870413D2*
Y1830221D1*
X943841Y1855115D2*
Y1824473D1*
X941940Y1818769D1*
X940038Y1816824D1*
X936192Y1814923D1*
X930444D1*
X926641Y1816824D1*
X943841Y1849367D2*
X940038Y1853169D1*
X936192Y1855115D1*
X930444D1*
X926641Y1853169D1*
X922794Y1849367D1*
X920893Y1843619D1*
Y1839772D1*
X922794Y1834068D1*
X926641Y1830221D1*
X930444Y1828320D1*
X936192D1*
X940038Y1830221D1*
X943841Y1834068D1*
X979140Y1857016D2*
Y1830221D1*
Y1851268D2*
X975338Y1855115D1*
X971491Y1857016D1*
X965787D1*
X961940Y1855115D1*
X958138Y1851268D1*
X956192Y1845520D1*
Y1841717D1*
X958138Y1835969D1*
X961940Y1832167D1*
X965787Y1830221D1*
X971491D1*
X975338Y1832167D1*
X979140Y1835969D1*
X991492Y1857016D2*
Y1837871D1*
X993393Y1832167D1*
X997240Y1830221D1*
X1002988D1*
X1006790Y1832167D1*
X1012538Y1837871D1*
Y1857016D2*
Y1830221D1*
X1024890Y1857016D2*
Y1830221D1*
Y1845520D2*
X1026835Y1851268D1*
X1030638Y1855115D1*
X1034485Y1857016D1*
X1040233D1*
X1075532Y1870413D2*
Y1830221D1*
Y1851268D2*
X1071729Y1855115D1*
X1067883Y1857016D1*
X1062135D1*
X1058332Y1855115D1*
X1054485Y1851268D1*
X1052584Y1845520D1*
Y1841717D1*
X1054485Y1835969D1*
X1058332Y1832167D1*
X1062135Y1830221D1*
X1067883D1*
X1071729Y1832167D1*
X1075532Y1835969D1*
X1126764Y1870413D2*
Y1830221D1*
X1149712D1*
X1162063Y1870413D2*
X1163965Y1868512D1*
X1165910Y1870413D1*
X1163965Y1872359D1*
X1162063Y1870413D1*
X1163965Y1857016D2*
Y1830221D1*
X1178262Y1857016D2*
Y1830221D1*
Y1849367D2*
X1184010Y1855115D1*
X1187856Y1857016D1*
X1193560D1*
X1197407Y1855115D1*
X1199308Y1849367D1*
Y1830221D1*
Y1849367D2*
X1205056Y1855115D1*
X1208903Y1857016D1*
X1214607D1*
X1218454Y1855115D1*
X1220399Y1849367D1*
Y1830221D1*
X1232750Y1870413D2*
X1234652Y1868512D1*
X1236597Y1870413D1*
X1234652Y1872359D1*
X1232750Y1870413D1*
X1234652Y1857016D2*
Y1830221D1*
X1254697Y1870413D2*
Y1837871D1*
X1256598Y1832167D1*
X1260445Y1830221D1*
X1264247D1*
X1248949Y1857016D2*
X1262346D1*
X1297645Y1851268D2*
X1295744Y1855115D1*
X1289996Y1857016D1*
X1284248D1*
X1278500Y1855115D1*
X1276599Y1851268D1*
X1278500Y1847465D1*
X1282347Y1845520D1*
X1291897Y1843619D1*
X1295744Y1841717D1*
X1297645Y1837871D1*
Y1835969D1*
X1295744Y1832167D1*
X1289996Y1830221D1*
X1284248D1*
X1278500Y1832167D1*
X1276599Y1835969D1*
X3032755Y775588D2*
X3067199D1*
X3049999Y758388D2*
Y792832D1*
X3029903Y828131D2*
Y809030D1*
X3047103Y807129D1*
X3045201Y809030D1*
X3043256Y814778D1*
Y820482D1*
X3045201Y826230D1*
X3049004Y830077D1*
X3054752Y831978D1*
X3058554D1*
X3064303Y830077D1*
X3068149Y826230D1*
X3070051Y820482D1*
Y814778D1*
X3068149Y809030D1*
X3066204Y807129D1*
X3062401Y805184D1*
X3029859Y844330D2*
X3070051Y859628D1*
X3029859Y874927D1*
X3036086Y1146657D2*
X3032284Y1144756D1*
X3028437Y1140909D1*
X3026536Y1137106D1*
Y1129457D1*
X3028437Y1125610D1*
X3032284Y1121808D1*
X3036086Y1119862D1*
X3041834Y1117961D1*
X3051429D1*
X3057133Y1119862D1*
X3060980Y1121808D1*
X3064782Y1125610D1*
X3066728Y1129457D1*
Y1137106D1*
X3064782Y1140909D1*
X3060980Y1144756D1*
X3057133Y1146657D1*
X3051429D1*
Y1137106D1*
X3039933Y1159008D2*
X3066728D1*
X3047583D2*
X3041834Y1164756D1*
X3039933Y1168603D1*
Y1174307D1*
X3041834Y1178154D1*
X3047583Y1180055D1*
X3066728D1*
X3026536Y1215354D2*
X3066728D1*
X3045681D2*
X3041834Y1211552D1*
X3039933Y1207705D1*
Y1201957D1*
X3041834Y1198154D1*
X3045681Y1194308D1*
X3051429Y1192406D1*
X3055232D1*
X3060980Y1194307D1*
X3064782Y1198154D1*
X3066728Y1201957D1*
Y1207705D1*
X3064782Y1211552D1*
X3060980Y1215354D1*
X2943385Y969756D2*
Y944862D1*
X2983577D1*
X2962530D2*
Y960161D1*
X2956782Y1005055D2*
X2983577D1*
X2962530D2*
X2958683Y1001252D1*
X2956782Y997406D1*
Y991702D1*
X2958683Y987855D1*
X2962530Y984052D1*
X2968278Y982107D1*
X2972081D1*
X2977829Y984052D1*
X2981631Y987855D1*
X2983577Y991702D1*
Y997406D1*
X2981631Y1001252D1*
X2977829Y1005055D1*
X2956782Y1017406D2*
X2983577D1*
X2964431D2*
X2958683Y1023154D1*
X2956782Y1027001D1*
Y1032705D1*
X2958683Y1036552D1*
X2964431Y1038453D1*
X2983577D1*
X2044747Y1715559D2*
X2084939Y1730857D1*
X2044747Y1746156D1*
X2084939Y1789104D2*
X2044747D1*
X2084939Y1773806D1*
X2044747Y1758507D1*
X2084939D1*
X2058144Y1811006D2*
X2060046Y1807204D1*
X2063892Y1803357D1*
X2069640Y1801456D1*
X2073443D1*
X2079191Y1803357D1*
X2082993Y1807204D1*
X2084939Y1811006D1*
Y1816754D1*
X2082993Y1820601D1*
X2079191Y1824404D1*
X2073443Y1826349D1*
X2069640D1*
X2063892Y1824404D1*
X2060046Y1820601D1*
X2058144Y1816754D1*
Y1811006D1*
X2044747Y1844449D2*
X2077290D1*
X2082993Y1846350D1*
X2084939Y1850197D1*
Y1853999D1*
X2058144Y1838701D2*
Y1852098D1*
X2754298Y1794235D2*
X2750495Y1792333D1*
X2746648Y1788487D1*
X2744747Y1784684D1*
Y1777035D1*
X2746648Y1773188D1*
X2750495Y1769385D1*
X2754298Y1767440D1*
X2760046Y1765539D1*
X2769640D1*
X2775344Y1767440D1*
X2779191Y1769385D1*
X2782994Y1773188D1*
X2784939Y1777035D1*
Y1784684D1*
X2782994Y1788486D1*
X2779191Y1792333D1*
X2775344Y1794235D1*
X2769640D1*
Y1784684D1*
X2758144Y1806586D2*
X2784939D1*
X2765794D2*
X2760046Y1812334D1*
X2758144Y1816181D1*
Y1821884D1*
X2760046Y1825731D1*
X2765794Y1827633D1*
X2784939Y1827632D1*
X2744747Y1862932D2*
X2784939D1*
X2763892D2*
X2760046Y1859129D1*
X2758144Y1855283D1*
Y1849534D1*
X2760046Y1845732D1*
X2763892Y1841885D1*
X2769640Y1839984D1*
X2773443D1*
X2779191Y1841885D1*
X2782993Y1845732D1*
X2784939Y1849534D1*
Y1855282D1*
X2782993Y1859129D1*
X2779191Y1862932D1*
X2154864Y1626466D2*
D111*
Y1656610D1*
X2144816D1*
X2140505Y1655151D1*
X2137620Y1652299D1*
X2136194Y1649414D1*
X2134768Y1645136D1*
Y1637940D1*
X2136194Y1633629D1*
X2137620Y1630777D1*
X2140505Y1627892D1*
X2144816Y1626466D1*
X2154864D1*
X2125504Y1632236D2*
X2122619Y1630777D1*
X2118308Y1626499D1*
Y1656610D1*
X2744747Y1515519D2*
D107*
X2784939D1*
Y1528916D1*
X2782994Y1534664D1*
X2779191Y1538511D1*
X2775344Y1540412D1*
X2769640Y1542313D1*
X2760046D1*
X2754298Y1540412D1*
X2750495Y1538511D1*
X2746648Y1534664D1*
X2744747Y1528916D1*
Y1515519D1*
Y1554665D2*
X2746648Y1556566D1*
X2744747Y1558511D1*
X2742802Y1556566D1*
X2744747Y1554665D1*
X2758144Y1556566D2*
X2784939D1*
X2758144Y1570863D2*
X2784939D1*
X2769640D2*
X2763892Y1572808D1*
X2760046Y1576611D1*
X2758144Y1580458D1*
Y1586206D1*
X2154944Y1513966D2*
D111*
Y1544110D1*
X2144896D1*
X2140585Y1542651D1*
X2137700Y1539799D1*
X2136274Y1536914D1*
X2134848Y1532636D1*
Y1525440D1*
X2136274Y1521129D1*
X2137700Y1518277D1*
X2140585Y1515392D1*
X2144896Y1513966D1*
X2154944D1*
X2116962Y1513999D2*
X2121273Y1515425D1*
X2124159Y1519736D1*
X2125584Y1526899D1*
X2125585Y1531210D1*
X2124159Y1538373D1*
X2121274Y1542684D1*
X2116963Y1544110D1*
X2114111D1*
X2109800Y1542684D1*
X2106948Y1538373D1*
X2105489Y1531210D1*
Y1526899D1*
X2106948Y1519736D1*
X2109800Y1515425D1*
X2114111Y1513999D1*
X2116962D1*
X2106948Y1519736D2*
X2124159Y1538373D1*
X2094747Y2371808D2*
D107*
X2134939Y2387107D1*
X2094747Y2402405D1*
X2134939Y2445354D2*
X2094747D1*
X2134939Y2430055D1*
X2094747Y2414757D1*
X2134939Y2414756D1*
X2108144Y2467256D2*
X2110046Y2463453D1*
X2113892Y2459606D1*
X2119640Y2457705D1*
X2123443D1*
X2129191Y2459606D1*
X2132993Y2463453D1*
X2134939Y2467256D1*
Y2473004D1*
X2132993Y2476850D1*
X2129191Y2480653D1*
X2123443Y2482598D1*
X2119640D1*
X2113892Y2480653D1*
X2110046Y2476850D1*
X2108144Y2473004D1*
Y2467256D1*
X2094747Y2500698D2*
X2127290D1*
X2132993Y2502599D1*
X2134939Y2506446D1*
Y2510248D1*
X2108144Y2494950D2*
Y2508347D1*
X2804298Y2450484D2*
X2800495Y2448583D1*
X2796648Y2444736D1*
X2794747Y2440933D1*
Y2433284D1*
X2796648Y2429437D1*
X2800495Y2425635D1*
X2804298Y2423689D1*
X2810046Y2421788D1*
X2819640D1*
X2825344Y2423689D1*
X2829191Y2425635D1*
X2832994Y2429437D1*
X2834939Y2433284D1*
Y2440933D1*
X2832994Y2444736D1*
X2829191Y2448583D1*
X2825344Y2450484D1*
X2819640D1*
Y2440933D1*
X2808144Y2462835D2*
X2834939D1*
X2815794D2*
X2810046Y2468583D1*
X2808144Y2472430D1*
Y2478134D1*
X2810046Y2481981D1*
X2815794Y2483882D1*
X2834939D1*
X2794747Y2519181D2*
X2834939D1*
X2813892D2*
X2810046Y2515379D1*
X2808144Y2511532D1*
Y2505784D1*
X2810046Y2501981D1*
X2813892Y2498135D1*
X2819640Y2496233D1*
X2823443D1*
X2829191Y2498135D1*
X2832993Y2501981D1*
X2834939Y2505784D1*
Y2511532D1*
X2832993Y2515379D1*
X2829191Y2519181D1*
X2204864Y2282715D2*
D111*
Y2312859D1*
X2194816D1*
X2190505Y2311400D1*
X2187620Y2308548D1*
X2186194Y2305663D1*
X2184768Y2301385D1*
Y2294189D1*
X2186194Y2289878D1*
X2187620Y2287026D1*
X2190505Y2284141D1*
X2194816Y2282715D1*
X2204864D1*
X2175504Y2288485D2*
X2172619Y2287026D1*
X2168308Y2282748D1*
Y2312859D1*
X2794747Y2171768D2*
D107*
X2834939D1*
Y2185165D1*
X2832994Y2190913D1*
X2829191Y2194760D1*
X2825344Y2196661D1*
X2819640Y2198563D1*
X2810046D1*
X2804298Y2196661D1*
X2800495Y2194760D1*
X2796648Y2190913D1*
X2794747Y2185165D1*
Y2171768D1*
Y2210914D2*
X2796648Y2212815D1*
X2794747Y2214761D1*
X2792802Y2212815D1*
X2794747Y2210914D1*
X2808144Y2212815D2*
X2834939D1*
X2808144Y2227112D2*
X2834939D1*
X2819640D2*
X2813892Y2229058D1*
X2810046Y2232860D1*
X2808144Y2236707D1*
Y2242455D1*
X2204944Y2170215D2*
D111*
Y2200359D1*
X2194896D1*
X2190585Y2198900D1*
X2187700Y2196048D1*
X2186274Y2193163D1*
X2184848Y2188885D1*
Y2181689D1*
X2186274Y2177378D1*
X2187700Y2174526D1*
X2190585Y2171641D1*
X2194896Y2170215D1*
X2204944D1*
X2166962Y2170248D2*
X2171273Y2171674D1*
X2174159Y2175985D1*
X2175584Y2183148D1*
X2175585Y2187459D1*
X2174159Y2194622D1*
X2171274Y2198933D1*
X2166963Y2200359D1*
X2164111D1*
X2159800Y2198933D1*
X2156948Y2194622D1*
X2155489Y2187459D1*
Y2183148D1*
X2156948Y2175985D1*
X2159800Y2171674D1*
X2164111Y2170248D1*
X2166962D1*
X2156948Y2175985D2*
X2174159Y2194622D1*
X1080504Y507420D2*
D112*
Y457202D1*
X1083831Y447143D1*
X1090563Y440488D1*
X1100622Y437084D1*
X1107276D1*
X1117335Y440488D1*
X1124067Y447143D1*
X1127394Y457202D1*
Y507420D1*
X1195900Y497360D2*
X1189246Y504092D1*
X1179187Y507420D1*
X1165800D1*
X1155741Y504092D1*
X1149009Y497360D1*
Y490706D1*
X1152414Y483974D1*
X1155741Y480647D1*
X1162396Y477320D1*
X1182514Y470588D1*
X1189246Y467261D1*
X1192573Y463856D1*
X1195900Y457202D1*
Y447143D1*
X1189246Y440488D1*
X1179187Y437084D1*
X1165800D1*
X1155741Y440488D1*
X1149009Y447143D1*
X1217515Y507420D2*
Y437084D1*
X1247692D1*
X1257751Y440488D1*
X1261078Y443815D1*
X1264406Y450470D1*
Y460529D1*
X1261078Y467261D1*
X1257751Y470588D1*
X1247692Y473915D1*
X1257751Y477320D1*
X1261078Y480647D1*
X1264406Y487301D1*
Y494033D1*
X1261078Y500688D1*
X1257751Y504092D1*
X1247692Y507420D1*
X1217515D1*
Y473915D2*
X1247692D1*
M02*
