M48
INCH
T01C0.013
T02C0.0191
T03C0.035
T04C0.0354
T05C0.0394
T06C0.0433
T07C0.14
%
T01
X+025626Y+009503
X+025366Y+009503
X+025106Y+009503
X+025106Y+009893
X+025366Y+009893
X+025626Y+009893
X+025626Y+010283
X+025366Y+010283
X+025106Y+010283
X+023150Y+006380
X+023150Y+005990
T02
X+008815Y+022940
X+008190Y+020690
X+008940Y+018940
X+010815Y+020690
X+011565Y+022940
X+011690Y+016940
X+010052Y+015552
X+010940Y+014440
X+012217Y+013413
X+013065Y+012440
X+012690Y+010440
X+014440Y+008440
X+014440Y+006190
X+010440Y+008690
X+008690Y+008440
X+008690Y+006190
X+006315Y+010440
X+008440Y+011440
X+009690Y+011940
X+008940Y+013440
X+007940Y+012940
X+008440Y+015940
X+006315Y+019940
X+005565Y+024440
X+015440Y+016940
X+018196Y+015440
X+019315Y+014440
X+018815Y+012440
X+021690Y+012940
X+022315Y+011440
X+026406Y+012493
X+024690Y+016440
X+024190Y+016440
X+023690Y+016440
X+019315Y+020440
X+018815Y+021815
X+018196Y+022190
X+023128Y+023065
X+023628Y+023065
X+024190Y+023065
X+022940Y+004940
X+022440Y+004940
X+027700Y+004950
T03
X+021190Y+020940
X+022190Y+020940
X+023190Y+020940
X+024190Y+020940
X+025190Y+020940
X+026190Y+020940
X+027190Y+020940
X+028190Y+020940
X+028690Y+019440
X+027690Y+019440
X+026690Y+019440
X+025690Y+019440
X+024690Y+019440
X+023690Y+019440
X+022690Y+019440
X+021690Y+019440
X+021690Y+014440
X+022690Y+014440
X+023690Y+014440
X+024690Y+014440
X+025690Y+014440
X+026690Y+014440
X+027690Y+014440
X+028690Y+014440
X+028190Y+025940
X+027190Y+025940
X+026190Y+025940
X+025190Y+025940
X+024190Y+025940
X+023190Y+025940
X+022190Y+025940
X+021190Y+025940
X+016190Y+022440
X+016190Y+021440
X+016190Y+020440
X+016190Y+019440
X+016190Y+018440
X+016190Y+017440
X+016190Y+016440
X+016190Y+015440
X+016190Y+014440
X+016190Y+013440
X+016190Y+012440
X+016190Y+011440
X+016190Y+010440
X+016190Y+009440
X+016190Y+008440
X+016190Y+007440
X+016190Y+006440
X+016190Y+005440
X+016190Y+004440
X+007190Y+004440
X+007190Y+005440
X+007190Y+006440
X+007190Y+007440
X+007190Y+008440
X+007190Y+009440
X+007190Y+010440
X+007190Y+011440
X+007190Y+012440
X+007190Y+013440
X+007190Y+014440
X+007190Y+015440
X+007190Y+016440
X+007190Y+017440
X+007190Y+018440
X+007190Y+019440
X+007190Y+020440
X+007190Y+021440
X+007190Y+022440
T04
X+017190Y+004440
X+017190Y+005440
X+017190Y+006440
X+017190Y+007440
X+017190Y+008440
X+017190Y+009440
X+017190Y+010440
X+017190Y+011440
X+017190Y+012440
X+017190Y+013440
X+017190Y+014440
X+017190Y+015440
X+017190Y+016440
X+017190Y+017440
X+017190Y+018440
X+017190Y+019440
X+017190Y+020440
X+017190Y+021440
X+017190Y+022440
X+009940Y+025690
X+008940Y+025690
X+007940Y+025690
X+007940Y+026690
X+008940Y+026690
X+009940Y+026690
X+030440Y+023815
X+030440Y+022815
X+030440Y+021815
X+030440Y+020815
X+030440Y+018440
X+030440Y+017440
X+030440Y+016440
X+030440Y+015440
T05
X+020137Y+009440G85X+019743Y+009440
X+021791Y+008062G85X+021791Y+008456
X+020137Y+007078G85X+019743Y+007078
X+013008Y+005099
X+009859Y+005099
T06
X+011690Y+026690
X+012690Y+026690
X+013690Y+026690
T07
X+005318Y+005318
X+005318Y+026040
X+030200Y+026040
X+030200Y+005240
T00
M30
