G04 DipTrace 3.3.0.0*
G04 TopMask.gbr*
%MOIN*%
G04 #@! TF.FileFunction,Soldermask,Top*
G04 #@! TF.Part,Single*
%ADD51C,0.03937*%
%ADD60C,0.068031*%
%ADD62R,0.111181X0.14622*%
%ADD64R,0.071024X0.032047*%
%ADD66R,0.074961X0.106457*%
%ADD68C,0.208031*%
%ADD70R,0.145827X0.100551*%
%ADD72R,0.039528X0.06315*%
%ADD74R,0.055276X0.06315*%
%ADD76R,0.055276X0.086772*%
%ADD78R,0.035591X0.059213*%
%ADD80O,0.086772X0.126142*%
%ADD82O,0.126142X0.086772*%
%ADD84C,0.074961*%
%ADD86R,0.074961X0.074961*%
%ADD88C,0.067087*%
%ADD90R,0.067087X0.067087*%
%ADD92R,0.106457X0.074961*%
%ADD94C,0.067031*%
%ADD96R,0.067031X0.067031*%
%ADD98R,0.078898X0.071024*%
%ADD100R,0.059213X0.067087*%
%ADD102R,0.067087X0.059213*%
%ADD104R,0.171417X0.071024*%
%FSLAX26Y26*%
G04*
G70*
G90*
G75*
G01*
G04 TopMask*
%LPD*%
D104*
X2361016Y2357016D3*
X2112984D3*
X2419016Y1694016D3*
X2170984D3*
D102*
X881516Y2144016D3*
Y2218819D3*
X1156516Y2144016D3*
Y2218819D3*
D100*
X2503570Y839307D3*
X2428766D3*
D98*
X2341570Y846307D3*
Y956543D3*
X2374803Y613286D3*
Y503050D3*
D100*
X2718570Y1015307D3*
X2793373D3*
D96*
X2119016Y2094016D3*
D94*
X2219016D3*
X2319016D3*
X2419016D3*
X2519016D3*
X2619016D3*
X2719016D3*
X2819016D3*
Y2594016D3*
X2719016D3*
X2619016D3*
X2519016D3*
X2419016D3*
X2319016D3*
X2219016D3*
X2119016D3*
D92*
X2503570Y722307D3*
X2346089D3*
D90*
X1719016Y444016D3*
D88*
Y544016D3*
Y644016D3*
Y744016D3*
Y844016D3*
Y944016D3*
Y1044016D3*
Y1144016D3*
Y1244016D3*
Y1344016D3*
Y1444016D3*
Y1544016D3*
Y1644016D3*
Y1744016D3*
Y1844016D3*
Y1944016D3*
Y2044016D3*
Y2144016D3*
Y2244016D3*
D90*
X3044016Y2081516D3*
D88*
Y2181516D3*
Y2281516D3*
Y2381516D3*
D90*
X794016Y2569016D3*
D88*
Y2669016D3*
X894016Y2569016D3*
Y2669016D3*
X994016Y2569016D3*
Y2669016D3*
D96*
X2169016Y1444016D3*
D94*
X2269016D3*
X2369016D3*
X2469016D3*
X2569016D3*
X2669016D3*
X2769016D3*
X2869016D3*
Y1944016D3*
X2769016D3*
X2669016D3*
X2569016D3*
X2469016D3*
X2369016D3*
X2269016D3*
X2169016D3*
D86*
X1169016Y2669016D3*
D84*
X1269016D3*
X1369016D3*
D82*
X1994016Y944016D3*
Y707795D3*
D80*
X2179055Y825906D3*
D78*
X1265016Y941016D3*
X1221709D3*
X1178402D3*
X1135094D3*
X1091787D3*
X1048480D3*
X1005173D3*
X961866D3*
X918559D3*
D76*
X1453205Y525661D3*
D74*
Y907551D3*
D72*
X875252D3*
D76*
Y525661D3*
D51*
X985882Y509913D3*
X1300843D3*
D70*
X2731016Y807016D3*
Y568827D3*
D68*
X531811Y531811D3*
X531816Y2604016D3*
X3020016Y524016D3*
Y2604016D3*
D90*
X3044016Y1544016D3*
D88*
Y1644016D3*
Y1744016D3*
Y1844016D3*
D66*
X556516Y2219016D3*
Y2376496D3*
D102*
X969016Y2218819D3*
Y2144016D3*
X1069016Y2218819D3*
Y2144016D3*
X2640570Y1197307D3*
Y1122504D3*
D100*
X2796570Y1197307D3*
X2721766D3*
D102*
X2341570Y1106307D3*
Y1031504D3*
D100*
X2718570Y1106307D3*
X2793373D3*
D64*
X2643525Y913255D3*
Y963255D3*
Y1013255D3*
Y1063255D3*
X2430927D3*
Y1013255D3*
Y963255D3*
Y913255D3*
D62*
X2537226Y988255D3*
D60*
X719016Y444016D3*
Y544016D3*
Y644016D3*
Y744016D3*
Y844016D3*
Y944016D3*
Y1044016D3*
Y1144016D3*
Y1244016D3*
Y1344016D3*
Y1444016D3*
Y1544016D3*
Y1644016D3*
Y1744016D3*
Y1844016D3*
Y1944016D3*
Y2044016D3*
Y2144016D3*
Y2244016D3*
X1619016Y444016D3*
Y544016D3*
Y644016D3*
Y744016D3*
Y844016D3*
Y944016D3*
Y1044016D3*
Y1144016D3*
Y1244016D3*
Y1344016D3*
Y1444016D3*
Y1544016D3*
Y1644016D3*
Y1744016D3*
Y1844016D3*
Y1944016D3*
Y2044016D3*
Y2144016D3*
Y2244016D3*
M02*
