G04 DipTrace 3.3.0.0*
G04 BottomSilk.gbr*
%MOIN*%
G04 #@! TF.FileFunction,Legend,Bot*
G04 #@! TF.Part,Single*
%ADD107C,0.00772*%
%ADD108C,0.009264*%
%FSLAX26Y26*%
G04*
G70*
G90*
G75*
G01*
G04 BotSilk*
%LPD*%
X772399Y2490385D2*
D107*
Y2464132D1*
X791522Y2478447D1*
Y2471262D1*
X793898Y2466508D1*
X796275Y2464132D1*
X803460Y2461700D1*
X808213D1*
X815398Y2464132D1*
X820207Y2468885D1*
X822583Y2476070D1*
Y2483255D1*
X820207Y2490385D1*
X817775Y2492761D1*
X813022Y2495193D1*
X789090Y2446261D2*
X822583Y2431891D1*
X789090Y2417576D1*
X772399Y2397328D2*
X772398Y2371075D1*
X791522Y2385390D1*
Y2378205D1*
X793898Y2373452D1*
X796275Y2371075D1*
X803460Y2368643D1*
X808213D1*
X815398Y2371075D1*
X820207Y2375828D1*
X822583Y2383013D1*
Y2390198D1*
X820207Y2397328D1*
X817775Y2399705D1*
X813022Y2402137D1*
X859843Y2515194D2*
X910083Y2481700D1*
X859843D2*
X910083Y2515194D1*
X884991Y2466261D2*
Y2438626D1*
X859843Y2423187D2*
X910083D1*
Y2394502D1*
X859843Y2379063D2*
X862220Y2376686D1*
X859843Y2374254D1*
X857411Y2376686D1*
X859843Y2379063D1*
X876590Y2376686D2*
X910083D1*
X876590Y2358815D2*
X910083D1*
X886152D2*
X878967Y2351630D1*
X876590Y2346822D1*
Y2339692D1*
X878967Y2334884D1*
X886152Y2332507D1*
X910083D1*
X886152D2*
X878967Y2325322D1*
X876590Y2320513D1*
Y2313384D1*
X878966Y2308575D1*
X886152Y2306143D1*
X910083D1*
X959843Y2519947D2*
X983775Y2500823D1*
X1010083D1*
X959843Y2481700D2*
X983775Y2500823D1*
X984991Y2466261D2*
Y2438626D1*
X959843Y2423187D2*
X1010083D1*
Y2394502D1*
X959843Y2379063D2*
X962220Y2376686D1*
X959843Y2374254D1*
X957411Y2376686D1*
X959843Y2379063D1*
X976590Y2376686D2*
X1010083D1*
X976590Y2358815D2*
X1010083D1*
X986152D2*
X978967Y2351630D1*
X976590Y2346822D1*
Y2339692D1*
X978967Y2334884D1*
X986152Y2332507D1*
X1010083D1*
X986152D2*
X978967Y2325322D1*
X976590Y2320513D1*
Y2313384D1*
X978966Y2308575D1*
X986152Y2306143D1*
X1010083D1*
X1173652Y2594125D2*
Y2572570D1*
X1171275Y2565440D1*
X1168843Y2563008D1*
X1164090Y2560632D1*
X1156905D1*
X1152152Y2563008D1*
X1149720Y2565440D1*
X1147343Y2572570D1*
Y2594125D1*
X1197583D1*
X1147343Y2545192D2*
X1197583Y2533199D1*
X1147343Y2521261D1*
X1197583Y2509323D1*
X1147343Y2497329D1*
X1197583Y2443643D2*
X1147343D1*
X1197583Y2462767D1*
X1147343Y2481890D1*
X1197583D1*
X1234899Y2567576D2*
Y2591452D1*
X1256398Y2593829D1*
X1254022Y2591452D1*
X1251590Y2584267D1*
Y2577138D1*
X1254022Y2569953D1*
X1258775Y2565144D1*
X1265960Y2562767D1*
X1270713D1*
X1277898Y2565144D1*
X1282707Y2569952D1*
X1285083Y2577138D1*
Y2584267D1*
X1282707Y2591452D1*
X1280275Y2593829D1*
X1275522Y2596261D1*
X1251590Y2547328D2*
X1285083Y2532958D1*
X1251590Y2518643D1*
X1346781Y2554515D2*
X1342028Y2556892D1*
X1337220Y2561700D1*
X1334843Y2566453D1*
Y2576015D1*
X1337220Y2580823D1*
X1342028Y2585576D1*
X1346781Y2588008D1*
X1353967Y2590385D1*
X1365960D1*
X1373090Y2588008D1*
X1377898Y2585576D1*
X1382651Y2580823D1*
X1385083Y2576015D1*
Y2566453D1*
X1382651Y2561700D1*
X1377898Y2556892D1*
X1373090Y2554515D1*
X1365960D1*
Y2566453D1*
X1351590Y2539076D2*
X1385083D1*
X1361152D2*
X1353967Y2531891D1*
X1351590Y2527082D1*
Y2519953D1*
X1353967Y2515144D1*
X1361152Y2512767D1*
X1385083D1*
X1334843Y2468643D2*
X1385083D1*
X1358775D2*
X1353966Y2473397D1*
X1351590Y2478205D1*
Y2485390D1*
X1353967Y2490143D1*
X1358775Y2494952D1*
X1365960Y2497328D1*
X1370713D1*
X1377898Y2494952D1*
X1382651Y2490143D1*
X1385083Y2485390D1*
Y2478205D1*
X1382651Y2473397D1*
X1377898Y2468643D1*
X1337190Y2403548D2*
X1341943Y2408356D1*
X1349128Y2410733D1*
X1358690D1*
X1365875Y2408356D1*
X1370683Y2403548D1*
Y2398795D1*
X1368251Y2393986D1*
X1365875Y2391610D1*
X1361122Y2389233D1*
X1346752Y2384425D1*
X1341943Y2382048D1*
X1339567Y2379616D1*
X1337190Y2374863D1*
Y2367678D1*
X1341943Y2362925D1*
X1349128Y2360493D1*
X1358690D1*
X1365875Y2362925D1*
X1370683Y2367678D1*
X1321751Y2379616D2*
X1293066D1*
Y2384425D1*
X1295442Y2389233D1*
X1297819Y2391610D1*
X1302627Y2393986D1*
X1309813D1*
X1314566Y2391610D1*
X1319374Y2386801D1*
X1321751Y2379616D1*
Y2374863D1*
X1319374Y2367678D1*
X1314566Y2362925D1*
X1309813Y2360493D1*
X1302627D1*
X1297819Y2362925D1*
X1293066Y2367678D1*
X1277627Y2393986D2*
Y2360493D1*
Y2379616D2*
X1275195Y2386801D1*
X1270442Y2391610D1*
X1265633Y2393986D1*
X1258448D1*
X1243009D2*
X1228639Y2360493D1*
X1214324Y2393986D1*
X1186946D2*
X1191700Y2391610D1*
X1196508Y2386801D1*
X1198885Y2379616D1*
Y2374863D1*
X1196508Y2367678D1*
X1191700Y2362925D1*
X1186946Y2360493D1*
X1179761D1*
X1174953Y2362925D1*
X1170200Y2367678D1*
X1167768Y2374863D1*
Y2379616D1*
X1170200Y2386801D1*
X1174953Y2391610D1*
X1179761Y2393986D1*
X1186946D1*
X2947343Y1809768D2*
X2971275Y1790645D1*
X2997583D1*
X2947343Y1771522D2*
X2971275Y1790645D1*
X2972491Y1756082D2*
Y1728448D1*
X2997583Y1674762D2*
X2947343D1*
X2997583Y1693885D1*
X2947343Y1713008D1*
X2997583D1*
X2964090Y1647384D2*
X2966467Y1652138D1*
X2971275Y1656946D1*
X2978460Y1659323D1*
X2983213D1*
X2990398Y1656946D1*
X2995151Y1652138D1*
X2997583Y1647384D1*
Y1640199D1*
X2995151Y1635391D1*
X2990398Y1630638D1*
X2983213Y1628206D1*
X2978460D1*
X2971275Y1630638D1*
X2966467Y1635391D1*
X2964090Y1640199D1*
Y1647384D1*
X2947343Y1605582D2*
X2988022D1*
X2995151Y1603205D1*
X2997583Y1598397D1*
Y1593643D1*
X2964090Y1612767D2*
Y1596020D1*
X2934843Y2330015D2*
X2985083Y2296522D1*
X2934843D2*
X2985083Y2330015D1*
X2959991Y2281082D2*
Y2253448D1*
X2985083Y2199762D2*
X2934843D1*
X2985083Y2218885D1*
X2934843Y2238008D1*
X2985083D1*
X2951590Y2172384D2*
X2953967Y2177138D1*
X2958775Y2181946D1*
X2965960Y2184323D1*
X2970713D1*
X2977898Y2181946D1*
X2982651Y2177138D1*
X2985083Y2172384D1*
Y2165199D1*
X2982651Y2160391D1*
X2977898Y2155638D1*
X2970713Y2153206D1*
X2965960D1*
X2958775Y2155638D1*
X2953967Y2160391D1*
X2951590Y2165199D1*
Y2172384D1*
X2934843Y2130582D2*
X2975522D1*
X2982651Y2128205D1*
X2985083Y2123397D1*
Y2118643D1*
X2951590Y2137767D2*
Y2121020D1*
X2098640Y628530D2*
X2077085D1*
X2069955Y630906D1*
X2067523Y633338D1*
X2065147Y638091D1*
Y645276D1*
X2067523Y650029D1*
X2069955Y652461D1*
X2077085Y654838D1*
X2098640D1*
Y604598D1*
X2037769Y638091D2*
X2042522Y635715D1*
X2047331Y630906D1*
X2049707Y623721D1*
Y618968D1*
X2047331Y611783D1*
X2042522Y607030D1*
X2037769Y604598D1*
X2030584D1*
X2025776Y607030D1*
X2021022Y611783D1*
X2018591Y618968D1*
Y623721D1*
X2021022Y630906D1*
X2025776Y635715D1*
X2030584Y638091D1*
X2037769D1*
X2003151D2*
X1993590Y604598D1*
X1984028Y638091D1*
X1974466Y604598D1*
X1964905Y638091D1*
X1949466Y623721D2*
X1920781D1*
Y628530D1*
X1923157Y633338D1*
X1925534Y635715D1*
X1930342Y638091D1*
X1937527D1*
X1942281Y635715D1*
X1947089Y630906D1*
X1949466Y623721D1*
Y618968D1*
X1947089Y611783D1*
X1942281Y607030D1*
X1937527Y604598D1*
X1930342D1*
X1925534Y607030D1*
X1920781Y611783D1*
X1905341Y638091D2*
Y604598D1*
Y623721D2*
X1902910Y630906D1*
X1898156Y635715D1*
X1893348Y638091D1*
X1886163D1*
X2130976Y550591D2*
X2133408Y543406D1*
X2138161Y538598D1*
X2145346Y536221D1*
X2147722D1*
X2154907Y538598D1*
X2159661Y543406D1*
X2162092Y550591D1*
Y552968D1*
X2159661Y560153D1*
X2154907Y564906D1*
X2147722Y567283D1*
X2145346D1*
X2138161Y564906D1*
X2133408Y560153D1*
X2130976Y550591D1*
Y538598D1*
X2133408Y526660D1*
X2138161Y519474D1*
X2145346Y517098D1*
X2150099D1*
X2157284Y519474D1*
X2159661Y524283D1*
X2115536Y542190D2*
X2087902D1*
X2070031Y555344D2*
Y557721D1*
X2067654Y562529D1*
X2065277Y564906D1*
X2060469Y567283D1*
X2050907D1*
X2046154Y564906D1*
X2043778Y562529D1*
X2041346Y557721D1*
Y552968D1*
X2043778Y548159D1*
X2048531Y541030D1*
X2072462Y517098D1*
X2038969D1*
X2011592Y567283D2*
X2018721Y564906D1*
X2021153Y560153D1*
Y555344D1*
X2018721Y550591D1*
X2013968Y548159D1*
X2004407Y545783D1*
X1997222Y543406D1*
X1992468Y538598D1*
X1990092Y533845D1*
Y526660D1*
X1992468Y521906D1*
X1994845Y519474D1*
X2002030Y517098D1*
X2011592D1*
X2018721Y519474D1*
X2021153Y521906D1*
X2023530Y526660D1*
Y533845D1*
X2021153Y538598D1*
X2016345Y543406D1*
X2009215Y545783D1*
X1999653Y548159D1*
X1994845Y550591D1*
X1992468Y555344D1*
Y560153D1*
X1994845Y564906D1*
X2002030Y567283D1*
X2011592D1*
X1974653Y567338D2*
X1955529Y517098D1*
X1936406Y567338D1*
X1920967D2*
Y517098D1*
X1904220D1*
X1897035Y519530D1*
X1892227Y524283D1*
X1889850Y529091D1*
X1887473Y536221D1*
Y548215D1*
X1889850Y555400D1*
X1892227Y560153D1*
X1897035Y564961D1*
X1904220Y567338D1*
X1920967D1*
X1836164Y555400D2*
X1838541Y560153D1*
X1843349Y564961D1*
X1848102Y567338D1*
X1857664D1*
X1862473Y564961D1*
X1867226Y560153D1*
X1869658Y555400D1*
X1872034Y548215D1*
Y536221D1*
X1869658Y529091D1*
X1867226Y524283D1*
X1862473Y519530D1*
X1857664Y517098D1*
X1848102D1*
X1843349Y519530D1*
X1838541Y524283D1*
X1836164Y529091D1*
X2087584Y480400D2*
X2089961Y485153D1*
X2094769Y489961D1*
X2099522Y492338D1*
X2109084D1*
X2113892Y489961D1*
X2118645Y485153D1*
X2121077Y480400D1*
X2123454Y473215D1*
Y461221D1*
X2121077Y454091D1*
X2118645Y449283D1*
X2113892Y444530D1*
X2109084Y442098D1*
X2099522D1*
X2094769Y444530D1*
X2089961Y449283D1*
X2087584Y454091D1*
X2072145Y461221D2*
X2043460D1*
Y466030D1*
X2045836Y470838D1*
X2048213Y473215D1*
X2053021Y475591D1*
X2060206D1*
X2064960Y473215D1*
X2069768Y468406D1*
X2072145Y461221D1*
Y456468D1*
X2069768Y449283D1*
X2064960Y444530D1*
X2060206Y442098D1*
X2053021D1*
X2048213Y444530D1*
X2043460Y449283D1*
X2028021Y475591D2*
Y442098D1*
Y466030D2*
X2020836Y473215D1*
X2016027Y475591D1*
X2008897D1*
X2004089Y473215D1*
X2001712Y466030D1*
Y442098D1*
X1979088Y492338D2*
Y451660D1*
X1976711Y444530D1*
X1971903Y442098D1*
X1967150D1*
X1986273Y475591D2*
X1969526D1*
X1951710Y461221D2*
X1923026D1*
Y466030D1*
X1925402Y470838D1*
X1927779Y473215D1*
X1932587Y475591D1*
X1939772D1*
X1944525Y473215D1*
X1949334Y468406D1*
X1951710Y461221D1*
Y456468D1*
X1949334Y449283D1*
X1944525Y444530D1*
X1939772Y442098D1*
X1932587D1*
X1927779Y444530D1*
X1923026Y449283D1*
X1907586Y475591D2*
Y442098D1*
Y461221D2*
X1905154Y468406D1*
X1900401Y473215D1*
X1895593Y475591D1*
X1888408D1*
X1851469Y488718D2*
Y445663D1*
X1872969Y467163D2*
X1829914D1*
X431986Y2072606D2*
D108*
Y2109880D1*
X492274D1*
Y2072606D1*
X460704Y2109880D2*
Y2086932D1*
X440608Y2013887D2*
X434838Y2019591D1*
X431986Y2028213D1*
Y2039687D1*
X434838Y2048309D1*
X440608Y2054079D1*
X446311D1*
X452082Y2051161D1*
X454934Y2048309D1*
X457785Y2042605D1*
X463556Y2025361D1*
X466407Y2019591D1*
X469326Y2016739D1*
X475030Y2013887D1*
X483652D1*
X489355Y2019591D1*
X492274Y2028213D1*
Y2039687D1*
X489355Y2048309D1*
X483652Y2054079D1*
X463556Y1995360D2*
Y1969494D1*
X460704Y1960938D1*
X457785Y1958020D1*
X452082Y1955168D1*
X443460D1*
X437756Y1958020D1*
X434838Y1960938D1*
X431986Y1969494D1*
Y1995360D1*
X492274D1*
X432052Y1930871D2*
Y1899367D1*
X455000Y1916545D1*
Y1907923D1*
X457852Y1902219D1*
X460704Y1899367D1*
X469326Y1896449D1*
X475030D1*
X483652Y1899367D1*
X489422Y1905071D1*
X492274Y1913693D1*
Y1922315D1*
X489422Y1930871D1*
X486503Y1933723D1*
X480800Y1936641D1*
X446378Y1875004D2*
X443526D1*
X437756Y1872152D1*
X434904Y1869300D1*
X432052Y1863530D1*
Y1852056D1*
X434904Y1846352D1*
X437756Y1843500D1*
X443526Y1840582D1*
X449230D1*
X455000Y1843500D1*
X463556Y1849204D1*
X492274Y1877922D1*
Y1837730D1*
X463556Y1760882D2*
Y1735016D1*
X460704Y1726460D1*
X457785Y1723542D1*
X452082Y1720690D1*
X443460D1*
X437756Y1723542D1*
X434838Y1726460D1*
X431986Y1735016D1*
Y1760882D1*
X492274D1*
X469326Y1702163D2*
Y1667741D1*
X463556D1*
X457785Y1670593D1*
X454934Y1673445D1*
X452082Y1679215D1*
Y1687837D1*
X454934Y1693541D1*
X460704Y1699311D1*
X469326Y1702163D1*
X475030D1*
X483652Y1699311D1*
X489355Y1693541D1*
X492274Y1687837D1*
Y1679215D1*
X489355Y1673445D1*
X483652Y1667741D1*
X452082Y1649214D2*
X492274D1*
X463556D2*
X454934Y1640592D1*
X452082Y1634822D1*
Y1626266D1*
X454934Y1620496D1*
X463556Y1617644D1*
X492274D1*
Y1599117D2*
X432052Y1558925D1*
X431986Y1540398D2*
X492274D1*
Y1505976D1*
X452082Y1453027D2*
X492274D1*
X460704D2*
X454934Y1458731D1*
X452082Y1464501D1*
Y1473056D1*
X454934Y1478827D1*
X460704Y1484530D1*
X469326Y1487449D1*
X475030D1*
X483652Y1484530D1*
X489355Y1478827D1*
X492274Y1473056D1*
Y1464501D1*
X489355Y1458731D1*
X483652Y1453027D1*
X460704Y1402930D2*
X454934Y1405782D1*
X452082Y1414404D1*
Y1423026D1*
X454934Y1431648D1*
X460704Y1434500D1*
X466407Y1431648D1*
X469326Y1425878D1*
X472178Y1411552D1*
X475030Y1405782D1*
X480800Y1402930D1*
X483652D1*
X489355Y1405782D1*
X492274Y1414404D1*
Y1423026D1*
X489355Y1431648D1*
X483652Y1434500D1*
X469326Y1384403D2*
Y1349981D1*
X463556D1*
X457785Y1352833D1*
X454934Y1355685D1*
X452082Y1361455D1*
Y1370077D1*
X454934Y1375781D1*
X460704Y1381551D1*
X469326Y1384403D1*
X475030D1*
X483652Y1381551D1*
X489355Y1375781D1*
X492274Y1370077D1*
Y1361455D1*
X489355Y1355685D1*
X483652Y1349981D1*
X452082Y1331454D2*
X492274D1*
X469326D2*
X460704Y1328535D1*
X454934Y1322832D1*
X452082Y1317061D1*
Y1308439D1*
X431986Y1211495D2*
X492274D1*
X431986Y1231591D2*
Y1191399D1*
X492274Y1126976D2*
X431986D1*
X492274Y1149924D1*
X431986Y1172872D1*
X492274D1*
X446311Y1065405D2*
X440608Y1068257D1*
X434838Y1074027D1*
X431986Y1079731D1*
Y1091205D1*
X434838Y1096975D1*
X440608Y1102679D1*
X446311Y1105597D1*
X454934Y1108449D1*
X469326D1*
X477881Y1105597D1*
X483652Y1102679D1*
X489355Y1096975D1*
X492274Y1091205D1*
Y1079731D1*
X489355Y1074027D1*
X483652Y1068257D1*
X477881Y1065405D1*
X446378Y1043960D2*
X443526D1*
X437756Y1041108D1*
X434904Y1038256D1*
X432052Y1032486D1*
Y1021012D1*
X434904Y1015308D1*
X437756Y1012456D1*
X443526Y1009538D1*
X449230D1*
X455000Y1012456D1*
X463556Y1018160D1*
X492274Y1046878D1*
Y1006686D1*
X443526Y988159D2*
X440608Y982389D1*
X432052Y973767D1*
X492274D1*
X432052Y949470D2*
Y917966D1*
X455000Y935144D1*
Y926522D1*
X457852Y920818D1*
X460704Y917966D1*
X469326Y915048D1*
X475030D1*
X483652Y917966D1*
X489422Y923670D1*
X492274Y932292D1*
Y940914D1*
X489422Y949470D1*
X486503Y952321D1*
X480800Y955240D1*
X432052Y879277D2*
X434904Y887899D1*
X443526Y893669D1*
X457852Y896521D1*
X466474D1*
X480800Y893669D1*
X489422Y887899D1*
X492274Y879277D1*
Y873573D1*
X489422Y864951D1*
X480800Y859247D1*
X466474Y856329D1*
X457852D1*
X443526Y859247D1*
X434904Y864951D1*
X432052Y873573D1*
Y879277D1*
X443526Y859247D2*
X480800Y893669D1*
X431986Y779480D2*
X492274Y756532D1*
X431986Y733585D1*
X443526Y715058D2*
X440608Y709287D1*
X432052Y700665D1*
X492274D1*
X575735Y1170869D2*
X636023D1*
X604453D2*
X598683Y1165099D1*
X595831Y1159395D1*
Y1150773D1*
X598683Y1145069D1*
X604453Y1139299D1*
X613075Y1136447D1*
X618779D1*
X627401Y1139299D1*
X633105Y1145069D1*
X636023Y1150773D1*
Y1159395D1*
X633105Y1165099D1*
X627401Y1170869D1*
X595831Y1117920D2*
X624549D1*
X633105Y1115068D1*
X636023Y1109298D1*
Y1100676D1*
X633105Y1094972D1*
X624549Y1086350D1*
X595831D2*
X636023D1*
X575735Y1067823D2*
X578587Y1064971D1*
X575735Y1062053D1*
X572817Y1064971D1*
X575735Y1067823D1*
X595831Y1064971D2*
X636023D1*
X575735Y1043526D2*
X636023D1*
X575735Y990577D2*
X636023D1*
X604453D2*
X598683Y996281D1*
X595831Y1002051D1*
Y1010673D1*
X598683Y1016377D1*
X604453Y1022147D1*
X613075Y1024999D1*
X618779D1*
X627401Y1022147D1*
X633105Y1016377D1*
X636023Y1010673D1*
Y1002051D1*
X633105Y996281D1*
X627401Y990577D1*
X575735Y972050D2*
X636023D1*
X595831Y939197D2*
X598683Y944901D1*
X604453Y950671D1*
X613075Y953523D1*
X618779D1*
X627401Y950671D1*
X633105Y944901D1*
X636023Y939197D1*
Y930575D1*
X633105Y924805D1*
X627401Y919101D1*
X618779Y916182D1*
X613075D1*
X604453Y919101D1*
X598683Y924805D1*
X595831Y930575D1*
Y939197D1*
X598683Y863234D2*
X644645Y863233D1*
X653201Y866085D1*
X656119Y868937D1*
X658971Y874707D1*
Y883329D1*
X656119Y889033D1*
X607305Y863234D2*
X601601Y868937D1*
X598683Y874707D1*
Y883330D1*
X601601Y889033D1*
X607305Y894803D1*
X615927Y897655D1*
X621697D1*
X630253Y894803D1*
X636023Y889033D1*
X638875Y883329D1*
Y874707D1*
X636023Y868937D1*
X630253Y863233D1*
Y841854D2*
X633171Y844706D1*
X636023Y841854D1*
X633171Y838936D1*
X630253Y841854D1*
X595831Y820409D2*
X636023D1*
X607305D2*
X598683Y811787D1*
X595831Y806017D1*
Y797461D1*
X598683Y791691D1*
X607305Y788839D1*
X636023D1*
X613075Y770312D2*
Y735890D1*
X607305D1*
X601535Y738742D1*
X598683Y741594D1*
X595831Y747364D1*
Y755986D1*
X598683Y761690D1*
X604453Y767460D1*
X613075Y770312D1*
X618779D1*
X627401Y767460D1*
X633105Y761690D1*
X636023Y755986D1*
Y747364D1*
X633105Y741594D1*
X627401Y735890D1*
X575735Y708741D2*
X624549D1*
X633105Y705889D1*
X636023Y700119D1*
Y694415D1*
X595831Y717363D2*
Y697267D1*
X590127Y1959904D2*
Y1968526D1*
X592979Y1974230D1*
X595831Y1977148D1*
X601601Y1980000D1*
X613075D1*
X615927Y1977148D1*
Y1971378D1*
X613075Y1959904D1*
X618779Y1957052D1*
Y1954200D1*
X613075Y1948430D1*
X598749Y1945578D1*
X590127Y1948430D1*
X584357Y1951282D1*
X578653Y1957052D1*
X575801Y1962756D1*
Y1974230D1*
X578653Y1980000D1*
X584357Y1985703D1*
X590127Y1988622D1*
X598749Y1991474D1*
X613075D1*
X621697Y1988622D1*
X627401Y1985703D1*
X633171Y1980000D1*
X636023Y1974230D1*
Y1962756D1*
X633171Y1957052D1*
X627401Y1951282D1*
X587275Y1959904D2*
X613075D1*
X575735Y1927051D2*
X636023D1*
X604453D2*
X598683Y1921281D1*
X595831Y1915577D1*
Y1906955D1*
X598683Y1901251D1*
X604453Y1895481D1*
X613075Y1892629D1*
X618779D1*
X627401Y1895481D1*
X633105Y1901251D1*
X636023Y1906955D1*
Y1915577D1*
X633105Y1921281D1*
X627401Y1927051D1*
X595831Y1874102D2*
X624549D1*
X633105Y1871250D1*
X636023Y1865480D1*
Y1856858D1*
X633105Y1851154D1*
X624549Y1842532D1*
X595831D2*
X636023D1*
X575735Y1824005D2*
X578587Y1821153D1*
X575735Y1818235D1*
X572817Y1821153D1*
X575735Y1824005D1*
X595831Y1821153D2*
X636023D1*
X575735Y1799707D2*
X636023D1*
X575735Y1746759D2*
X636023Y1746758D1*
X604453Y1746759D2*
X598683Y1752462D1*
X595831Y1758232D1*
Y1766855D1*
X598683Y1772558D1*
X604453Y1778328D1*
X613075Y1781180D1*
X618779D1*
X627401Y1778328D1*
X633105Y1772558D1*
X636023Y1766854D1*
Y1758232D1*
X633105Y1752462D1*
X627401Y1746758D1*
X575735Y1728231D2*
X636023D1*
X595831Y1695378D2*
X598683Y1701082D1*
X604453Y1706852D1*
X613075Y1709704D1*
X618779D1*
X627401Y1706852D1*
X633105Y1701082D1*
X636023Y1695378D1*
Y1686756D1*
X633105Y1680986D1*
X627401Y1675282D1*
X618779Y1672364D1*
X613075D1*
X604453Y1675282D1*
X598683Y1680986D1*
X595831Y1686756D1*
Y1695378D1*
X598683Y1619415D2*
X644645D1*
X653201Y1622267D1*
X656119Y1625119D1*
X658971Y1630889D1*
Y1639511D1*
X656119Y1645215D1*
X607305Y1619415D2*
X601601Y1625119D1*
X598683Y1630889D1*
Y1639511D1*
X601601Y1645215D1*
X607305Y1650985D1*
X615927Y1653837D1*
X621697D1*
X630253Y1650985D1*
X636023Y1645215D1*
X638875Y1639511D1*
Y1630889D1*
X636023Y1625119D1*
X630253Y1619415D1*
M02*
